<svg width="1357" height="417" viewBox="0 0 1357 417" fill="none" xmlns="http://www.w3.org/2000/svg">
<g clip-path="url(#clip0_99_164)">
<g opacity="0.1">
<path d="M328.53 65.88H533.04C544.09 65.88 554.44 69.82 562.18 76.97C569.68 83.9 573.8 93.05 573.8 102.74C573.8 112.41 569.65 121.56 562.15 128.48C554.41 135.61 544.08 139.54 533.02 139.54L472.72 139.46C454.14 139.46 439 153.8 438.99 171.42C438.99 189.03 454.11 203.37 472.69 203.39L533.05 203.47C561.77 203.47 588.82 193.11 609.21 174.31C629.87 155.27 641.25 129.87 641.27 102.71C641.27 75.65 629.91 50.26 609.3 31.2C588.89 12.34 561.81 1.95 533.04 1.95H328.53C309.93 1.95 294.8 16.29 294.8 33.92C294.8 51.55 309.93 65.89 328.53 65.89V65.88Z" fill="#BABB15"/>
<path d="M672.8 66.86H795.41C806.22 66.86 816.33 70.71 823.89 77.69C831.09 84.34 835.1 93.09 835.2 102.36L835.14 103.3L835.22 103.8C835.8 121.41 851.28 135.69 869.91 135.7C889.03 135.7 904.61 120.9 904.62 102.7C904.62 75.37 893.15 49.72 872.33 30.48C851.74 11.45 824.42 0.97 795.41 0.97H672.8" fill="#BABB15"/>
<path d="M673.63 204.37L791.69 204.44C810.81 204.44 826.38 189.66 826.4 171.5C826.4 153.35 810.84 138.57 791.71 138.56L673.65 138.49" fill="#BABB15"/>
<path d="M1157.79 349.69H1135.66C1120.99 349.83 1112.72 344.52 1103.45 335.21L1023.07 238.58C1020.75 235.79 1018.18 233.53 1015.42 231.86C1002.08 223.8 984.23 223.57 972.98 234.05C966.34 240.24 960.71 252.5 960.76 261.34C960.81 271.12 965.47 278.6 970.01 284.61L970.3 284.97L1057.89 387.85L1058.11 388.09C1076.89 407.26 1097.64 414.59 1129.73 414.59H1157.79C1176.66 414.59 1192.01 400.03 1192.01 382.14C1192.01 364.25 1176.66 349.69 1157.79 349.69Z" fill="#BABB15"/>
<path d="M1322.07 283.81C1303.21 283.81 1287.86 298.36 1287.85 316.24C1287.83 334.56 1271.27 349.46 1250.93 349.46C1232.06 349.46 1216.71 364.02 1216.71 381.91C1216.71 399.8 1232.06 414.36 1250.93 414.36C1308.99 414.36 1356.25 370.36 1356.3 316.26C1356.3 298.38 1340.96 283.82 1322.1 283.81H1322.07Z" fill="#BABB15"/>
<path d="M1249.94 69.99C1259.97 69.99 1269.36 73.56 1276.38 80.04C1282.9 86.06 1286.61 93.97 1286.85 102.34L1286.61 103.73L1286.91 104.87C1287.78 122.21 1302.69 135.73 1321.09 135.75C1339.95 135.75 1355.3 121.2 1355.31 103.24C1355.31 76.87 1344.25 52.13 1324.16 33.56C1304.29 15.2 1277.94 5.09 1249.94 5.09C1231.07 5.09 1215.72 19.65 1215.72 37.54C1215.72 55.43 1231.07 69.99 1249.94 69.99Z" fill="#BABB15"/>
<path d="M673.18 415.88C673.18 415.88 673.24 415.88 673.27 415.88C674.31 415.99 675.3 416.04 676.29 416.05C678.24 416.11 683.95 416.14 685.85 416.14C721.62 416.14 744.09 405.72 771.46 380.96L1090.94 78.48C1100.64 68.34 1116.69 67.89 1125.32 67.89H1159.97C1179.66 67.89 1195.69 52.66 1195.69 33.94C1195.69 15.22 1179.66 0 1159.97 0H1121.33C1095.78 0 1070.85 8.34 1051.14 23.5L1050.92 23.67C1050.29 24.15 1049.68 24.67 1049.11 25.21L724.38 331.81C713.06 342.02 694.57 348.43 677.22 348.17H676.36C675.68 348.17 674.98 348.2 674.23 348.25C673.88 348.24 673.53 348.23 673.18 348.23" fill="#BABB15"/>
<path d="M153.96 1.15C179.51 1.15 204.44 8.35 224.15 23.5L224.37 23.66C225.01 24.15 225.61 24.67 226.19 25.21L550.92 331.81C562.24 342.02 580.69 348.44 597.98 348.17H598.93C599.61 348.17 600.31 348.2 601.06 348.25C601.41 348.24 601.76 348.23 602.11 348.23C620.76 348.23 635.94 363.41 635.94 382.06C635.94 400.71 620.76 415.89 602.11 415.89C602.08 415.89 602.04 415.89 602.01 415.89C600.99 416 599.98 416.05 599 416.06C597.05 416.12 590.95 416.15 589.06 416.15C553.29 416.15 531.21 405.73 503.83 380.97L503.74 380.88L182.38 77.46C181.18 76.52 179.88 75.54 178.51 74.57C173.1 70.74 166.82 68.28 160.27 67.3C158.05 66.97 155.91 66.79 153.95 66.79H113.13C90.6 66.79 72.26 83.27 72.24 103.6L72.05 306.05C72.05 315.75 76.19 324.92 83.7 331.86C91.46 339.03 101.85 342.98 112.94 342.98H256.66C275.7 342.98 291.19 361.66 291.19 379.71C291.19 397.76 275.7 415.44 256.66 415.44H112.95C83.73 415.44 53.23 404.89 32.5 385.73C11.54 366.37 0 340.56 0 313.06L0.19 103.55C0.24 47.13 49.56 1.15 110.15 1.15H153.96Z" fill="#BABB15"/>
</g>
</g>
<defs>
<clipPath id="clip0_99_164">
<rect width="1356.28" height="416.14" fill="white"/>
</clipPath>
</defs>
</svg>
