<svg width="440" height="956" viewBox="0 0 440 956" fill="none" xmlns="http://www.w3.org/2000/svg">
<g clip-path="url(#clip0_138_84)">
<g clip-path="url(#clip1_138_84)">
<g opacity="0.1">
<path d="M429.26 114.53V319.04C429.26 330.09 425.32 340.44 418.17 348.18C411.24 355.68 402.09 359.8 392.4 359.8C382.73 359.8 373.58 355.65 366.66 348.15C359.53 340.41 355.6 330.08 355.6 319.02L355.68 258.72C355.68 240.14 341.34 225 323.72 224.99C306.11 224.99 291.77 240.11 291.75 258.69L291.67 319.05C291.67 347.77 302.03 374.82 320.83 395.21C339.87 415.87 365.27 427.25 392.43 427.27C419.49 427.27 444.88 415.91 463.94 395.3C482.8 374.89 493.19 347.81 493.19 319.04L493.19 114.53C493.19 95.93 478.85 80.8 461.22 80.8C443.59 80.8 429.25 95.93 429.25 114.53H429.26Z" fill="#BABB15"/>
<path d="M428.28 458.8V581.41C428.28 592.22 424.43 602.33 417.45 609.89C410.8 617.09 402.05 621.1 392.78 621.2L391.84 621.14L391.34 621.22C373.73 621.8 359.45 637.28 359.44 655.91C359.44 675.03 374.24 690.61 392.44 690.62C419.77 690.62 445.42 679.15 464.66 658.33C483.69 637.74 494.17 610.42 494.17 581.41V458.8" fill="#BABB15"/>
<path d="M290.77 459.63L290.7 577.69C290.7 596.81 305.48 612.38 323.64 612.4C341.79 612.4 356.57 596.84 356.58 577.71L356.65 459.65" fill="#BABB15"/>
<path d="M145.45 943.79V921.66C145.31 906.99 150.62 898.72 159.93 889.45L256.56 809.07C259.35 806.75 261.61 804.18 263.28 801.42C271.34 788.08 271.57 770.23 261.09 758.98C254.9 752.34 242.64 746.71 233.8 746.76C224.02 746.81 216.54 751.47 210.53 756.01L210.17 756.3L107.29 843.89L107.05 844.11C87.8801 862.89 80.5501 883.64 80.5501 915.73V943.79C80.5501 962.66 95.1101 978.01 113 978.01C130.89 978.01 145.45 962.66 145.45 943.79Z" fill="#BABB15"/>
<path d="M211.33 1108.07C211.33 1089.21 196.78 1073.86 178.9 1073.85C160.58 1073.83 145.68 1057.27 145.68 1036.93C145.68 1018.06 131.12 1002.71 113.23 1002.71C95.3401 1002.71 80.7802 1018.06 80.7802 1036.93C80.7802 1094.99 124.78 1142.25 178.88 1142.3C196.76 1142.3 211.32 1126.96 211.33 1108.1V1108.07Z" fill="#BABB15"/>
<path d="M425.15 1035.94C425.15 1045.97 421.58 1055.36 415.1 1062.38C409.08 1068.9 401.17 1072.61 392.8 1072.85L391.41 1072.61L390.27 1072.91C372.93 1073.78 359.41 1088.69 359.39 1107.09C359.39 1125.95 373.94 1141.3 391.9 1141.31C418.27 1141.31 443.01 1130.25 461.58 1110.16C479.94 1090.29 490.05 1063.94 490.05 1035.94C490.05 1017.07 475.49 1001.72 457.6 1001.72C439.71 1001.72 425.15 1017.07 425.15 1035.94Z" fill="#BABB15"/>
<path d="M79.2601 459.18C79.2601 459.18 79.2601 459.24 79.2601 459.27C79.1501 460.31 79.1002 461.3 79.0901 462.29C79.0302 464.24 79.0001 469.95 79.0001 471.85C79.0001 507.62 89.4201 530.09 114.18 557.46L416.66 876.94C426.8 886.64 427.25 902.69 427.25 911.32V945.97C427.25 965.66 442.48 981.69 461.2 981.69C479.92 981.69 495.14 965.66 495.14 945.97V907.33C495.14 881.78 486.8 856.85 471.64 837.14L471.47 836.92C470.99 836.29 470.47 835.68 469.93 835.11L163.33 510.38C153.12 499.06 146.71 480.57 146.97 463.22V462.36C146.97 461.68 146.94 460.98 146.89 460.23C146.9 459.88 146.91 459.53 146.91 459.18" fill="#BABB15"/>
<path d="M493.99 -60.04C493.99 -34.49 486.79 -9.56 471.64 10.15L471.48 10.37C470.99 11.01 470.47 11.61 469.93 12.19L163.33 336.92C153.12 348.24 146.7 366.69 146.97 383.98V384.93C146.97 385.61 146.94 386.31 146.89 387.06C146.9 387.41 146.91 387.76 146.91 388.11C146.91 406.76 131.73 421.94 113.08 421.94C94.4301 421.94 79.2501 406.76 79.2501 388.11C79.2501 388.08 79.2501 388.04 79.2501 388.01C79.1401 386.99 79.0901 385.98 79.0801 385C79.0201 383.05 78.9901 376.95 78.9901 375.06C78.9901 339.29 89.4101 317.21 114.17 289.83L114.26 289.74L417.68 -31.62C418.62 -32.82 419.6 -34.12 420.57 -35.49C424.4 -40.9 426.86 -47.18 427.84 -53.73C428.17 -55.95 428.35 -58.09 428.35 -60.05V-100.87C428.35 -123.4 411.87 -141.74 391.54 -141.76L189.09 -141.95C179.39 -141.95 170.22 -137.81 163.28 -130.3C156.11 -122.54 152.16 -112.15 152.16 -101.06V42.66C152.16 61.7 133.48 77.19 115.43 77.19C97.3802 77.19 79.7001 61.7 79.7001 42.66V-101.05C79.7001 -130.27 90.2501 -160.77 109.41 -181.5C128.77 -202.46 154.58 -214 182.08 -214L391.59 -213.81C448.01 -213.76 493.99 -164.44 493.99 -103.85V-60.04Z" fill="#BABB15"/>
</g>
</g>
</g>
<defs>
<clipPath id="clip0_138_84">
<rect width="440" height="956" fill="white"/>
</clipPath>
<clipPath id="clip1_138_84">
<rect width="1356.28" height="416.14" fill="white" transform="matrix(0 1 -1 0 495.14 -214)"/>
</clipPath>
</defs>
</svg>
