<svg width="68" height="67" viewBox="0 0 68 67" fill="none" xmlns="http://www.w3.org/2000/svg">
<path d="M67.5503 58.1686V37.3197C67.5503 35.4213 66.3812 33.9836 64.884 33.9836C63.3867 33.9836 62.1561 35.4213 62.1561 37.3197V52.3081C61.7869 51.125 60.5426 50.2995 58.9701 50.2995C57.7326 50.2995 56.8917 49.1233 56.8917 47.555C56.8917 45.9867 55.4628 44.8105 53.5759 44.8105C52.3384 44.8105 51.4975 43.6342 51.4975 42.1278C51.4975 40.6214 50.0686 39.3833 48.1816 39.3833C46.951 39.3833 46.0349 38.2071 46.0349 36.7007C46.0349 35.1943 44.6059 34.018 42.719 34.018H38.4938C38.4186 34.018 38.3434 34.0318 38.2682 34.0387C38.111 34.0043 37.9469 33.9836 37.7828 33.9836C36.224 33.9836 35.0549 35.4213 35.0549 37.3197V41.6326C35.0549 41.9421 35.1096 42.2379 35.178 42.5199V63.3688C35.178 65.2672 36.3471 66.7048 37.8443 66.7048C39.3416 66.7048 40.5722 65.2672 40.5722 63.3688V48.3804C40.9414 49.5635 42.1857 50.389 43.7582 50.389C44.9957 50.389 45.8366 51.5652 45.8366 53.1335C45.8366 54.7018 47.2655 55.878 49.1525 55.878C50.3899 55.878 51.2308 57.0543 51.2308 58.5607C51.2308 60.0671 52.6597 61.3052 54.5467 61.3052C55.7841 61.3052 56.6934 62.4814 56.6934 63.9878C56.6934 65.4942 58.1224 66.6705 60.0093 66.6705H64.2345C64.3097 66.6705 64.3849 66.6567 64.4601 66.6498C64.6173 66.6842 64.7814 66.7048 64.9455 66.7048C66.5043 66.7048 67.6734 65.2672 67.6734 63.3688V59.0559C67.6734 58.7464 67.6187 58.4506 67.5503 58.1686ZM59.4966 61.2433C57.9378 61.2433 56.7686 60.0671 56.7686 58.4988C56.7686 56.9304 55.3398 55.8161 53.4528 55.8161C52.2153 55.8161 51.306 54.6399 51.306 53.0716C51.306 51.5033 49.8771 50.327 47.9902 50.327C46.7527 50.327 45.9118 49.1508 45.9118 47.5825C45.9118 46.0142 44.4829 44.8999 42.5959 44.8999C41.5772 44.8999 40.832 43.9094 40.5996 42.4993C40.709 40.7452 41.8234 39.4452 43.2386 39.4452C44.7974 39.4452 45.9665 40.6214 45.9665 42.1897C45.9665 43.758 47.3954 44.8724 49.2824 44.8724C50.5198 44.8724 51.4291 46.0486 51.4291 47.6169C51.4291 49.1852 52.858 50.3614 54.745 50.3614C55.9824 50.3614 56.8233 51.5377 56.8233 53.106C56.8233 54.6743 58.2523 55.7886 60.1392 55.7886C61.1579 55.7886 61.9031 56.7791 62.1356 58.1892C62.0262 59.9432 60.9118 61.2433 59.4966 61.2433Z" fill="#BABB15"/>
<path d="M30.4401 34.307H4.58322C2.69626 34.307 1.26734 35.4832 1.26734 36.9896C1.26734 38.496 2.69626 39.7342 4.58322 39.7342H25.0458C26.9328 39.7342 28.3617 40.9104 28.3617 42.4168C28.3617 43.9232 27.1926 45.1613 25.6338 45.1613C24.075 45.1613 22.9674 46.5989 22.9674 48.4974C22.9674 49.7424 21.7983 50.6573 20.2395 50.6573C18.6807 50.6573 17.5116 52.0949 17.5116 53.9934C17.5116 55.2384 16.3425 56.0844 14.7837 56.0844C13.225 56.0844 12.1174 57.5221 12.1174 59.4205C12.1174 60.6655 10.6885 61.5116 8.80153 61.5116H4.57638C2.68942 61.5116 1.2605 62.6878 1.2605 64.2561C1.2605 65.8244 2.68942 67.0007 4.57638 67.0007H8.86308C10.75 67.0007 12.1789 65.5631 12.1789 63.6646C12.1789 62.4196 13.348 61.5735 14.8453 61.5735C16.3426 61.5735 17.5732 60.1359 17.5732 58.2374C17.5732 56.9924 18.7423 56.1463 20.3011 56.1463C21.8599 56.1463 23.0289 54.7087 23.0289 52.8103C23.0289 51.5652 24.1981 50.7192 25.6953 50.7192C27.1926 50.7192 28.4232 49.2816 28.4232 47.3831C28.4232 46.145 29.5923 45.2232 31.0895 45.2232C32.5868 45.2232 33.7559 43.7856 33.7559 41.8871V37.6362C33.7559 35.7377 32.327 34.3001 30.4401 34.3001V34.307Z" fill="#BABB15"/>
<path d="M38.1452 32.8693H64.002C65.889 32.8693 67.3179 31.6931 67.3179 30.1867C67.3179 28.6803 65.889 27.4422 64.002 27.4422H43.5394C41.6525 27.4422 40.2236 26.266 40.2236 24.7596C40.2236 23.2532 41.3927 22.015 42.9515 22.015C44.5103 22.015 45.6178 20.5774 45.6178 18.6789C45.6178 17.4339 46.7869 16.5191 48.3457 16.5191C49.9045 16.5191 51.0736 15.0815 51.0736 13.183C51.0736 11.938 52.2427 11.0919 53.8015 11.0919C55.3603 11.0919 56.4678 9.65428 56.4678 7.75581C56.4678 6.51079 57.8968 5.66473 59.7837 5.66473H64.0089C65.8958 5.66473 67.3247 4.4885 67.3247 2.9202C67.3247 1.35189 65.8958 0.175659 64.0089 0.175659H59.7222C57.8352 0.175659 56.4063 1.61327 56.4063 3.51175C56.4063 4.75677 55.2372 5.60282 53.74 5.60282C52.2427 5.60282 51.0121 7.04044 51.0121 8.93892C51.0121 10.1839 49.843 11.03 48.2842 11.03C46.7254 11.03 45.5563 12.4676 45.5563 14.3661C45.5563 15.6111 44.3872 16.4572 42.8899 16.4572C41.3927 16.4572 40.1621 17.8948 40.1621 19.7932C40.1621 21.0314 38.9929 21.9531 37.4957 21.9531C35.9984 21.9531 34.8293 23.3907 34.8293 25.2892V29.5401C34.8293 31.4386 36.2582 32.8762 38.1452 32.8762V32.8693Z" fill="#BABB15"/>
<path d="M24.7519 27.456H4.28928C2.40232 27.456 0.973396 28.6322 0.973396 30.2005C0.973396 31.7688 2.40232 32.8831 4.28928 32.8831H30.1461C32.0331 32.8831 33.462 31.4455 33.462 29.547V25.2961C33.462 23.3976 32.2929 21.96 30.7956 21.96C29.2983 21.96 28.1293 21.0452 28.1293 19.8001C28.1293 17.9017 26.9602 16.4641 25.4014 16.4641C23.8426 16.4641 22.735 15.6111 22.735 14.373C22.735 12.4745 21.5659 11.0369 20.0071 11.0369C18.4483 11.0369 17.2792 10.1839 17.2792 8.94581C17.2792 7.04734 16.1101 5.60972 14.5513 5.60972C12.9925 5.60972 11.885 4.75678 11.885 3.51865C11.885 1.62017 10.4561 0.182556 8.56909 0.182556H4.28243C2.39547 0.182556 0.966553 1.35879 0.966553 2.92709C0.966553 4.4954 2.39547 5.67163 4.28243 5.67163H8.50758C10.3945 5.67163 11.8234 6.52457 11.8234 7.7627C11.8234 9.66118 12.931 11.0988 14.4898 11.0988C16.0486 11.0988 17.2177 11.9517 17.2177 13.1899C17.2177 15.0883 18.3868 16.526 19.9456 16.526C21.5044 16.526 22.6735 17.4408 22.6735 18.6858C22.6735 20.5843 23.781 22.0219 25.3398 22.0219C26.8986 22.0219 28.0677 23.1981 28.0677 24.7664C28.0677 26.3348 26.6388 27.4491 24.7519 27.4491V27.456Z" fill="#BABB15"/>
</svg>
