<svg width="71" height="71" viewBox="0 0 71 71" fill="none" xmlns="http://www.w3.org/2000/svg">
<path d="M64.0751 57.0716H50.5314C48.6718 57.0716 47.0993 56.425 45.814 55.1318C44.5287 53.8387 43.886 52.2773 43.886 50.4476C43.886 48.6179 44.5287 46.9945 45.814 45.7014C47.0993 44.4082 48.6718 43.7616 50.5314 43.7616H64.0751C65.9553 43.7616 67.5756 43.0738 68.9293 41.6981C70.2898 40.3224 70.9666 38.6853 70.9666 36.8006C70.9666 34.9158 70.2898 33.2168 68.9293 31.8549C67.5687 30.4929 65.9553 29.8051 64.0751 29.8051H50.5314C48.6103 29.8051 46.9694 30.4861 45.602 31.8549C44.2347 33.2237 43.551 34.8677 43.551 36.8006C43.551 38.6302 42.9083 40.1917 41.623 41.4848C40.3377 42.778 38.7857 43.4246 36.9671 43.4246C36.4817 43.4246 36.0237 43.4659 35.5724 43.5553C35.1007 43.459 34.6153 43.4108 34.1094 43.4108C32.2908 43.4108 30.7388 42.7642 29.4535 41.4711C28.1682 40.1779 27.5255 38.5958 27.5255 36.7249C27.5255 34.8539 26.8418 33.2031 25.4745 31.8411C24.1071 30.4723 22.4594 29.7913 20.5451 29.7913H7.00136C5.12124 29.7913 3.50093 30.4723 2.14724 31.8411C0.786716 33.21 0.109863 34.8333 0.109863 36.7249C0.109863 38.6165 0.786716 40.3086 2.14724 41.6706C3.50777 43.0325 5.12124 43.7204 7.00136 43.7204H20.5451C22.4047 43.7204 23.9772 44.3669 25.2625 45.6601C26.5478 46.9533 27.1905 48.5147 27.1905 50.3444C27.1905 52.1741 26.5478 53.7974 25.2625 55.0906C23.9772 56.3837 22.4047 57.0303 20.5451 57.0303H7.00136C5.12124 57.0303 3.50093 57.7182 2.14724 59.0939C0.786716 60.4696 0.109863 62.1067 0.109863 63.9914C0.109863 65.8761 0.786716 67.5751 2.14724 68.9371C3.50777 70.299 5.12124 70.9869 7.00136 70.9869H20.5451C22.4663 70.9869 24.1071 70.3059 25.4745 68.9371C26.8418 67.5682 27.5255 65.9243 27.5255 63.9914C27.5255 62.1617 28.1682 60.6003 29.4535 59.3071C30.7388 58.014 32.2908 57.3674 34.1094 57.3674C34.5948 57.3674 35.0528 57.3261 35.5041 57.2367C35.9758 57.333 36.4612 57.3811 36.9671 57.3811C38.7857 57.3811 40.3377 58.0277 41.623 59.3209C42.9083 60.614 43.551 62.1961 43.551 64.0671C43.551 65.938 44.2347 67.5889 45.602 68.9508C46.9694 70.3197 48.6171 71.0006 50.5314 71.0006H64.0751C65.9553 71.0006 67.5756 70.3197 68.9293 68.9508C70.2898 67.582 70.9666 65.9587 70.9666 64.0671C70.9666 62.1755 70.2898 60.4834 68.9293 59.1214C67.5687 57.7595 65.9553 57.0716 64.0751 57.0716Z" fill="#BABB15"/>
<path d="M21.81 28.4156C23.6286 28.4156 25.1805 29.0622 26.4658 30.3554C27.7512 31.6485 28.3938 33.21 28.3938 35.0397C28.3938 36.9725 29.0775 38.6234 30.4449 39.9853C31.8122 41.3542 33.4599 42.0351 35.3742 42.0351C37.2885 42.0351 38.8747 41.3542 40.2283 39.9853C41.5889 38.6165 42.2657 36.9725 42.2657 35.0397C42.2657 33.21 42.9084 31.6485 44.1937 30.3554C45.479 29.0622 47.0515 28.4156 48.9111 28.4156C50.7707 28.4156 52.4116 27.7278 53.7653 26.3521C55.1258 24.9764 55.8026 23.3186 55.8026 21.3927V7.76627C55.8026 5.87467 55.1258 4.24446 53.7653 2.88251C52.4047 1.51368 50.7912 0.832703 48.9111 0.832703C47.031 0.832703 45.3491 1.51368 43.9954 2.88251C42.6417 4.25134 41.9581 5.87467 41.9581 7.76627V21.3927C41.9581 23.2636 41.3154 24.8457 40.0301 26.1388C38.7448 27.432 37.1928 28.0786 35.3742 28.0786C33.5556 28.0786 31.9421 27.432 30.6568 26.1388C29.3715 24.8457 28.7288 23.2636 28.7288 21.3927V7.76627C28.7288 5.87467 28.0452 4.24446 26.6778 2.88251C25.3104 1.51368 23.6833 0.832703 21.81 0.832703C19.9367 0.832703 18.248 1.51368 16.8943 2.88251C15.5406 4.25134 14.8569 5.87467 14.8569 7.76627V21.3927C14.8569 23.3255 15.5338 24.9764 16.8943 26.3521C18.2548 27.7278 19.8888 28.4156 21.81 28.4156Z" fill="#BABB15"/>
</svg>
