<svg width="87" height="72" viewBox="0 0 87 72" fill="none" xmlns="http://www.w3.org/2000/svg">
<path d="M33.8422 38.1514C34.478 40.7927 36.7889 42.6362 39.4894 42.6362H45.9365C48.5619 42.6362 50.9479 40.7927 51.5837 38.1514L60.4374 2.27981C60.6699 1.34433 59.9657 0.443237 59.0085 0.443237C58.3385 0.443237 57.7506 0.9041 57.5865 1.55756L51.5017 25.66C50.8659 28.2188 48.555 30.0622 45.8545 30.0622H39.4894C36.782 30.0622 34.478 28.2188 33.8422 25.66L27.8326 1.56444C27.6686 0.904099 27.0806 0.443237 26.4038 0.443237H26.3285C25.3714 0.443237 24.6672 1.3512 24.8997 2.27981L33.8285 38.1445L33.8422 38.1514Z" fill="#BABB15"/>
<path d="M61.2853 44.7823L86.349 38.4609V35.3381L48.8696 44.7823C46.2443 45.422 44.412 47.747 44.412 50.464V56.9504C44.412 59.5918 46.2443 61.9924 48.8696 62.6321L86.349 72.0007V68.9604L61.2853 62.5564C58.742 61.9167 56.9097 59.5918 56.9097 56.8748V50.4709C56.9097 47.747 58.742 45.4289 61.2853 44.7892V44.7823Z" fill="#BABB15"/>
<path d="M37.4794 44.6997L0 35.3312V38.3715L25.0638 44.7754C27.6071 45.4151 29.4393 47.7401 29.4393 50.4571V56.861C29.4393 59.5849 27.6071 61.903 25.0638 62.5427L0 68.8778V72.0007L37.4794 62.5564C40.1048 61.9167 41.937 59.5918 41.937 56.8748V50.3883C41.937 47.7469 40.1048 45.3463 37.4794 44.7066V44.6997Z" fill="#BABB15"/>
</svg>
