<svg width="745" height="77" viewBox="0 0 745 77" fill="none" xmlns="http://www.w3.org/2000/svg">
<path d="M33.8908 43.1514C34.5266 45.7927 36.8375 47.6362 39.538 47.6362H45.9851C48.6105 47.6362 50.9965 45.7927 51.6323 43.1514L60.486 7.27981C60.7185 6.34433 60.0143 5.44324 59.0571 5.44324C58.3871 5.44324 57.7991 5.9041 57.6351 6.55756L51.5503 30.66C50.9145 33.2188 48.6036 35.0622 45.9031 35.0622H39.538C36.8306 35.0622 34.5266 33.2188 33.8908 30.66L27.8812 6.56444C27.7171 5.9041 27.1292 5.44324 26.4523 5.44324H26.3771C25.42 5.44324 24.7158 6.3512 24.9482 7.27981L33.8771 43.1445L33.8908 43.1514Z" fill="#BABB15"/>
<path d="M61.3338 49.7823L86.3976 43.4609V40.3381L48.9182 49.7823C46.2928 50.422 44.4606 52.747 44.4606 55.464V61.9504C44.4606 64.5918 46.2928 66.9924 48.9182 67.6321L86.3976 77.0007V73.9604L61.3338 67.5564C58.7905 66.9167 56.9583 64.5918 56.9583 61.8748V55.4709C56.9583 52.747 58.7905 50.4289 61.3338 49.7892V49.7823Z" fill="#BABB15"/>
<path d="M37.528 49.6997L0.048584 40.3312V43.3715L25.1124 49.7754C27.6556 50.4151 29.4879 52.7401 29.4879 55.4571V61.861C29.4879 64.5849 27.6556 66.903 25.1124 67.5427L0.048584 73.8778V77.0007L37.528 67.5564C40.1534 66.9167 41.9856 64.5918 41.9856 61.8748V55.3883C41.9856 52.7469 40.1534 50.3463 37.528 49.7066V49.6997Z" fill="#BABB15"/>
<path d="M174.267 41.528C174.267 43.1582 174.876 44.5546 176.099 45.7102C177.323 46.8658 178.8 47.4436 180.53 47.4436H192.754C194.449 47.4436 195.906 46.8658 197.13 45.7102C198.353 44.5546 198.962 43.1582 198.962 41.528C198.962 39.9803 199.543 38.6597 200.698 37.566C201.861 36.4723 203.276 35.922 204.951 35.922C206.626 35.922 208.103 35.3373 209.326 34.1749C210.55 33.0124 211.159 31.616 211.159 29.9789C211.159 28.6101 210.694 27.3789 209.764 26.2921C208.834 25.2052 207.658 24.5174 206.243 24.2216C207.658 23.9602 208.834 23.2861 209.764 22.1993C210.694 21.1125 211.159 19.8675 211.159 18.4643C211.159 16.8685 210.543 15.4927 209.326 14.3372C208.103 13.1816 206.646 12.6038 204.951 12.6038H192.754C191.024 12.6038 189.541 13.1816 188.31 14.3372C187.079 15.4927 186.464 16.8685 186.464 18.4643C186.464 20.0601 185.883 21.3808 184.728 22.4745C183.565 23.5681 182.171 24.1184 180.53 24.1184C178.8 24.1184 177.323 24.6962 176.099 25.8518C174.876 27.0074 174.267 28.3831 174.267 29.9789C174.267 31.3822 174.732 32.6341 175.662 33.7209C176.592 34.8077 177.761 35.4818 179.183 35.7363C177.768 36.0321 176.592 36.7268 175.662 37.8205C174.732 38.9142 174.267 40.1454 174.267 41.5211V41.528ZM185.527 33.5008C186.355 32.4621 186.772 31.2859 186.772 29.9858C186.772 28.4382 187.353 27.1175 188.508 26.0238C189.671 24.9301 191.086 24.3798 192.761 24.3798H203.084C201.799 24.765 200.746 25.4666 199.926 26.5053C199.105 27.5371 198.695 28.6995 198.695 29.9858C198.695 31.5679 198.114 32.9023 196.959 33.996C195.796 35.0897 194.402 35.64 192.761 35.64H182.355C183.64 35.2617 184.7 34.5463 185.527 33.5008Z" fill="#BABB15"/>
<path d="M198.36 54.6591H204.937C207.713 54.6591 210.379 53.5861 212.382 51.6601L220.211 44.1418C220.689 43.681 220.84 42.9794 220.593 42.3603C220.347 41.7412 219.753 41.3354 219.096 41.3354H211.289C208.513 41.3354 205.846 42.4084 203.836 44.3413L198.873 49.115C196.87 51.041 194.197 52.1209 191.421 52.1209H180.694C177.918 52.1209 175.245 51.041 173.242 49.115L168.278 44.3413C166.268 42.4153 163.602 41.3354 160.826 41.3354H153.018C152.355 41.3354 151.76 41.7412 151.514 42.3603C151.268 42.9794 151.419 43.681 151.897 44.1418L159.725 51.6601C161.735 53.5861 164.402 54.666 167.177 54.666H173.754C174.418 54.666 175.012 55.0718 175.259 55.6909C175.505 56.31 175.354 57.0116 174.876 57.4724L157.469 74.1942C156.991 74.655 156.84 75.3566 157.086 75.9757C157.332 76.5948 157.927 77.0006 158.59 77.0006H166.391C169.167 77.0006 171.833 75.9275 173.843 73.9947L184.946 63.3261C185.575 62.7276 186.553 62.7276 187.182 63.3261L198.285 73.9947C200.295 75.9207 202.961 77.0006 205.737 77.0006H213.545C214.208 77.0006 214.803 76.5948 215.049 75.9757C215.295 75.3566 215.145 74.655 214.666 74.1942L197.259 57.4724C196.781 57.0116 196.63 56.31 196.877 55.6909C197.123 55.0718 197.717 54.666 198.381 54.666L198.36 54.6591Z" fill="#BABB15"/>
<path d="M324.065 39.9528L332.378 32.7166C334.04 31.2515 334.764 29.6832 334.764 27.3858V24.1597C334.764 22.2062 336.535 20.5416 338.757 20.5416H346.407V15.1626H343.358C341.198 15.1626 339.865 15.7473 338.313 17.2674L330.498 25.0883C328.946 26.6016 328.112 28.1218 328.112 30.4192V33.1569C328.112 35.1104 326.225 36.6787 324.01 36.6787H310.603C308.388 36.6787 306.501 35.1172 306.501 33.1569V28.2662C306.501 25.8106 304.525 23.8227 302.084 23.8227H299.855V27.3926C299.855 29.6901 300.573 31.2584 302.235 32.7235L310.439 39.9597C312.1 41.4249 313.987 42.0646 316.476 42.0646H318.247C320.742 42.0646 322.403 41.4317 324.065 39.9597V39.9528Z" fill="#BABB15"/>
<path d="M327.709 41.7963H348.103V35.9289H334.252C331.647 35.9289 329.876 36.5617 328.215 38.0337L320.017 45.2699C318.356 46.7351 317.631 48.3997 317.631 50.6008V52.1622C317.631 54.3634 318.349 55.8285 320.017 57.2936L328.215 64.6262C329.876 66.0913 331.654 66.731 334.252 66.731H337.909C340.124 66.731 342.011 68.2924 342.011 70.2528V77.0006H348.11V74.3111C348.11 72.4058 347.447 71.2295 345.731 69.8607L336.863 62.9684C335.147 61.5996 333.431 60.8636 330.826 60.8636H327.722C325.507 60.8636 323.73 59.199 323.73 57.2455V45.4144C323.73 43.4609 325.501 41.7963 327.722 41.7963H327.709Z" fill="#BABB15"/>
<path d="M313.796 44.4927L305.599 37.2564C303.937 35.7913 302.16 35.1516 299.562 35.1516H285.71V41.019H306.104C308.32 41.019 310.097 42.6836 310.097 44.6371V56.4682C310.097 58.4217 308.326 60.0863 306.104 60.0863H303.001C300.396 60.0863 298.68 60.8223 296.964 62.1911L288.096 69.0834C286.38 70.4523 285.717 71.6285 285.717 73.5338V76.2234H291.809V69.4755C291.809 67.522 293.696 65.9537 295.911 65.9537H299.568C302.173 65.9537 303.944 65.3209 305.605 63.8489L313.803 56.5163C315.464 55.0512 316.189 53.5792 316.189 51.385V49.8235C316.189 47.6224 315.471 45.9578 313.803 44.4927H313.796Z" fill="#BABB15"/>
<path d="M309.174 22.9491C310.801 22.9491 312.285 22.103 313.468 21.1194L313.987 21.6422C312.579 22.8184 311.615 24.4486 311.765 26.0857C312.059 29.1535 314.138 30.6599 317.686 30.6599C321.234 30.6599 323.313 29.1604 323.682 26.0857C323.832 24.4486 322.868 22.8184 321.535 21.6422L321.98 21.1194C323.162 22.0962 324.646 22.9491 326.198 22.9491C329.459 22.9491 330.936 20.404 330.936 17.8521C330.936 15.3002 329.452 12.6932 326.198 12.6932C324.646 12.6932 323.162 13.5393 321.98 14.4541L321.535 13.9313C322.868 12.8239 323.908 11.1868 323.682 9.4878C323.388 6.48188 321.31 4.91357 317.686 4.91357C314.063 4.91357 312.059 6.48188 311.765 9.4878C311.615 11.1868 312.579 12.8239 313.987 13.9313L313.468 14.4541C312.285 13.5393 310.801 12.6244 309.249 12.6244C305.92 12.6244 304.436 15.1695 304.436 17.8521C304.436 20.5347 305.988 22.9491 309.174 22.9491Z" fill="#BABB15"/>
<path d="M477.075 63.0716H463.531C461.672 63.0716 460.099 62.425 458.814 61.1318C457.529 59.8387 456.886 58.2773 456.886 56.4476C456.886 54.6179 457.529 52.9945 458.814 51.7014C460.099 50.4082 461.672 49.7616 463.531 49.7616H477.075C478.955 49.7616 480.576 49.0738 481.929 47.6981C483.29 46.3224 483.967 44.6853 483.967 42.8006C483.967 40.9158 483.29 39.2168 481.929 37.8549C480.569 36.4929 478.955 35.8051 477.075 35.8051H463.531C461.61 35.8051 459.969 36.4861 458.602 37.8549C457.235 39.2237 456.551 40.8677 456.551 42.8006C456.551 44.6302 455.908 46.1917 454.623 47.4848C453.338 48.778 451.786 49.4246 449.967 49.4246C449.482 49.4246 449.024 49.4659 448.572 49.5553C448.101 49.459 447.615 49.4108 447.109 49.4108C445.291 49.4108 443.739 48.7642 442.453 47.4711C441.168 46.1779 440.525 44.5958 440.525 42.7249C440.525 40.8539 439.842 39.2031 438.474 37.8411C437.107 36.4723 435.459 35.7913 433.545 35.7913H420.001C418.121 35.7913 416.501 36.4723 415.147 37.8411C413.787 39.21 413.11 40.8333 413.11 42.7249C413.11 44.6165 413.787 46.3086 415.147 47.6706C416.508 49.0325 418.121 49.7204 420.001 49.7204H433.545C435.405 49.7204 436.977 50.3669 438.263 51.6601C439.548 52.9533 440.191 54.5147 440.191 56.3444C440.191 58.1741 439.548 59.7974 438.263 61.0906C436.977 62.3837 435.405 63.0303 433.545 63.0303H420.001C418.121 63.0303 416.501 63.7182 415.147 65.0939C413.787 66.4696 413.11 68.1067 413.11 69.9914C413.11 71.8761 413.787 73.5751 415.147 74.9371C416.508 76.299 418.121 76.9869 420.001 76.9869H433.545C435.466 76.9869 437.107 76.3059 438.474 74.9371C439.842 73.5682 440.525 71.9243 440.525 69.9914C440.525 68.1617 441.168 66.6003 442.453 65.3071C443.739 64.014 445.291 63.3674 447.109 63.3674C447.595 63.3674 448.053 63.3261 448.504 63.2367C448.976 63.333 449.461 63.3811 449.967 63.3811C451.786 63.3811 453.338 64.0277 454.623 65.3209C455.908 66.614 456.551 68.1961 456.551 70.0671C456.551 71.938 457.235 73.5889 458.602 74.9508C459.969 76.3197 461.617 77.0006 463.531 77.0006H477.075C478.955 77.0006 480.576 76.3197 481.929 74.9508C483.29 73.582 483.967 71.9587 483.967 70.0671C483.967 68.1755 483.29 66.4834 481.929 65.1214C480.569 63.7595 478.955 63.0716 477.075 63.0716Z" fill="#BABB15"/>
<path d="M434.81 34.4156C436.629 34.4156 438.181 35.0622 439.466 36.3554C440.751 37.6485 441.394 39.21 441.394 41.0397C441.394 42.9725 442.078 44.6234 443.445 45.9853C444.812 47.3542 446.46 48.0351 448.374 48.0351C450.289 48.0351 451.875 47.3542 453.228 45.9853C454.589 44.6165 455.266 42.9725 455.266 41.0397C455.266 39.21 455.908 37.6485 457.194 36.3554C458.479 35.0622 460.051 34.4156 461.911 34.4156C463.771 34.4156 465.412 33.7278 466.765 32.3521C468.126 30.9764 468.803 29.3186 468.803 27.3927V13.7663C468.803 11.8747 468.126 10.2445 466.765 8.88251C465.405 7.51368 463.791 6.8327 461.911 6.8327C460.031 6.8327 458.349 7.51368 456.995 8.88251C455.642 10.2513 454.958 11.8747 454.958 13.7663V27.3927C454.958 29.2636 454.315 30.8457 453.03 32.1388C451.745 33.432 450.193 34.0786 448.374 34.0786C446.556 34.0786 444.942 33.432 443.657 32.1388C442.371 30.8457 441.729 29.2636 441.729 27.3927V13.7663C441.729 11.8747 441.045 10.2445 439.678 8.88251C438.31 7.51368 436.683 6.8327 434.81 6.8327C432.937 6.8327 431.248 7.51368 429.894 8.88251C428.541 10.2513 427.857 11.8747 427.857 13.7663V27.3927C427.857 29.3255 428.534 30.9764 429.894 32.3521C431.255 33.7278 432.889 34.4156 434.81 34.4156Z" fill="#BABB15"/>
<path d="M615.55 68.1686V47.3197C615.55 45.4213 614.381 43.9836 612.884 43.9836C611.387 43.9836 610.156 45.4213 610.156 47.3197V62.3081C609.787 61.125 608.543 60.2995 606.97 60.2995C605.733 60.2995 604.892 59.1233 604.892 57.555C604.892 55.9867 603.463 54.8105 601.576 54.8105C600.338 54.8105 599.497 53.6342 599.497 52.1278C599.497 50.6214 598.069 49.3833 596.182 49.3833C594.951 49.3833 594.035 48.2071 594.035 46.7007C594.035 45.1943 592.606 44.018 590.719 44.018H586.494C586.419 44.018 586.343 44.0318 586.268 44.0387C586.111 44.0043 585.947 43.9836 585.783 43.9836C584.224 43.9836 583.055 45.4213 583.055 47.3197V51.6326C583.055 51.9421 583.11 52.2379 583.178 52.5199V73.3688C583.178 75.2672 584.347 76.7048 585.844 76.7048C587.342 76.7048 588.572 75.2672 588.572 73.3688V58.3804C588.941 59.5635 590.186 60.389 591.758 60.389C592.996 60.389 593.837 61.5652 593.837 63.1335C593.837 64.7018 595.265 65.878 597.152 65.878C598.39 65.878 599.231 67.0543 599.231 68.5607C599.231 70.0671 600.66 71.3052 602.547 71.3052C603.784 71.3052 604.693 72.4814 604.693 73.9878C604.693 75.4942 606.122 76.6705 608.009 76.6705H612.234C612.31 76.6705 612.385 76.6567 612.46 76.6498C612.617 76.6842 612.781 76.7048 612.945 76.7048C614.504 76.7048 615.673 75.2672 615.673 73.3688V69.0559C615.673 68.7464 615.619 68.4506 615.55 68.1686ZM607.497 71.2433C605.938 71.2433 604.769 70.0671 604.769 68.4988C604.769 66.9304 603.34 65.8161 601.453 65.8161C600.215 65.8161 599.306 64.6399 599.306 63.0716C599.306 61.5033 597.877 60.327 595.99 60.327C594.753 60.327 593.912 59.1508 593.912 57.5825C593.912 56.0142 592.483 54.8999 590.596 54.8999C589.577 54.8999 588.832 53.9094 588.6 52.4993C588.709 50.7452 589.823 49.4452 591.239 49.4452C592.797 49.4452 593.966 50.6214 593.966 52.1897C593.966 53.758 595.395 54.8724 597.282 54.8724C598.52 54.8724 599.429 56.0486 599.429 57.6169C599.429 59.1852 600.858 60.3614 602.745 60.3614C603.982 60.3614 604.823 61.5377 604.823 63.106C604.823 64.6743 606.252 65.7886 608.139 65.7886C609.158 65.7886 609.903 66.7791 610.136 68.1892C610.026 69.9432 608.912 71.2433 607.497 71.2433Z" fill="#BABB15"/>
<path d="M578.44 44.307H552.583C550.696 44.307 549.267 45.4832 549.267 46.9896C549.267 48.496 550.696 49.7342 552.583 49.7342H573.046C574.933 49.7342 576.362 50.9104 576.362 52.4168C576.362 53.9232 575.193 55.1613 573.634 55.1613C572.075 55.1613 570.967 56.5989 570.967 58.4974C570.967 59.7424 569.798 60.6573 568.24 60.6573C566.681 60.6573 565.512 62.0949 565.512 63.9934C565.512 65.2384 564.343 66.0844 562.784 66.0844C561.225 66.0844 560.117 67.5221 560.117 69.4205C560.117 70.6655 558.688 71.5116 556.802 71.5116H552.576C550.689 71.5116 549.26 72.6878 549.26 74.2561C549.26 75.8244 550.689 77.0007 552.576 77.0007H556.863C558.75 77.0007 560.179 75.5631 560.179 73.6646C560.179 72.4196 561.348 71.5735 562.845 71.5735C564.343 71.5735 565.573 70.1359 565.573 68.2374C565.573 66.9924 566.742 66.1463 568.301 66.1463C569.86 66.1463 571.029 64.7087 571.029 62.8103C571.029 61.5652 572.198 60.7192 573.695 60.7192C575.193 60.7192 576.423 59.2816 576.423 57.3831C576.423 56.145 577.592 55.2232 579.09 55.2232C580.587 55.2232 581.756 53.7856 581.756 51.8871V47.6362C581.756 45.7377 580.327 44.3001 578.44 44.3001V44.307Z" fill="#BABB15"/>
<path d="M586.145 42.8693H612.002C613.889 42.8693 615.318 41.6931 615.318 40.1867C615.318 38.6803 613.889 37.4422 612.002 37.4422H591.539C589.652 37.4422 588.224 36.266 588.224 34.7596C588.224 33.2532 589.393 32.015 590.951 32.015C592.51 32.015 593.618 30.5774 593.618 28.6789C593.618 27.4339 594.787 26.5191 596.346 26.5191C597.905 26.5191 599.074 25.0815 599.074 23.183C599.074 21.938 600.243 21.0919 601.802 21.0919C603.36 21.0919 604.468 19.6543 604.468 17.7558C604.468 16.5108 605.897 15.6647 607.784 15.6647H612.009C613.896 15.6647 615.325 14.4885 615.325 12.9202C615.325 11.3519 613.896 10.1757 612.009 10.1757H607.722C605.835 10.1757 604.406 11.6133 604.406 13.5118C604.406 14.7568 603.237 15.6028 601.74 15.6028C600.243 15.6028 599.012 17.0404 599.012 18.9389C599.012 20.1839 597.843 21.03 596.284 21.03C594.725 21.03 593.556 22.4676 593.556 24.3661C593.556 25.6111 592.387 26.4572 590.89 26.4572C589.393 26.4572 588.162 27.8948 588.162 29.7932C588.162 31.0314 586.993 31.9531 585.496 31.9531C583.998 31.9531 582.829 33.3907 582.829 35.2892V39.5401C582.829 41.4386 584.258 42.8762 586.145 42.8762V42.8693Z" fill="#BABB15"/>
<path d="M572.752 37.456H552.289C550.402 37.456 548.973 38.6322 548.973 40.2005C548.973 41.7688 550.402 42.8831 552.289 42.8831H578.146C580.033 42.8831 581.462 41.4455 581.462 39.547V35.2961C581.462 33.3976 580.293 31.96 578.796 31.96C577.298 31.96 576.129 31.0452 576.129 29.8001C576.129 27.9017 574.96 26.4641 573.401 26.4641C571.843 26.4641 570.735 25.6111 570.735 24.373C570.735 22.4745 569.566 21.0369 568.007 21.0369C566.448 21.0369 565.279 20.1839 565.279 18.9458C565.279 17.0473 564.11 15.6097 562.551 15.6097C560.993 15.6097 559.885 14.7568 559.885 13.5186C559.885 11.6202 558.456 10.1826 556.569 10.1826H552.282C550.395 10.1826 548.967 11.3588 548.967 12.9271C548.967 14.4954 550.395 15.6716 552.282 15.6716H556.508C558.395 15.6716 559.823 16.5246 559.823 17.7627C559.823 19.6612 560.931 21.0988 562.49 21.0988C564.049 21.0988 565.218 21.9517 565.218 23.1899C565.218 25.0883 566.387 26.526 567.946 26.526C569.504 26.526 570.673 27.4408 570.673 28.6858C570.673 30.5843 571.781 32.0219 573.34 32.0219C574.899 32.0219 576.068 33.1981 576.068 34.7664C576.068 36.3348 574.639 37.4491 572.752 37.4491V37.456Z" fill="#BABB15"/>
<path d="M697.191 31.1346C697.957 34.3193 700.74 36.5342 704.001 36.5342H711.767C714.933 36.5342 717.804 34.3124 718.577 31.1346L727.506 2.66429C727.786 1.54309 726.938 0.449402 725.79 0.449402C724.976 0.449402 724.272 0.999685 724.074 1.79072L718.488 16.0843C717.722 19.1728 714.94 21.3877 711.679 21.3877H704.008C700.747 21.3877 697.971 19.1728 697.198 16.0843L691.701 1.7976C691.503 1.00656 690.799 0.449402 689.985 0.449402H689.897C688.741 0.449402 687.9 1.53621 688.18 2.66429L697.198 31.1277L697.191 31.1346Z" fill="#BABB15"/>
<path d="M723.062 28.9197C722.877 33.2806 726.241 36.9744 730.582 37.1601C734.917 37.3459 738.588 33.9616 738.773 29.6006C738.958 25.2396 735.594 21.5459 731.252 21.3601C726.918 21.1744 723.247 24.5587 723.062 28.9197Z" fill="#BABB15"/>
<path d="M744.065 56.6539C743.805 56.0004 743.176 55.5671 742.479 55.5671H729.304C728.942 55.5671 728.62 55.347 728.484 55.0031C728.347 54.666 728.436 54.2808 728.696 54.0263C729.202 53.5379 729.366 52.7882 729.106 52.1347C728.846 51.4812 728.217 51.0479 727.513 51.0479H711.672C708.732 51.0479 705.909 49.9061 703.789 47.8563L703.085 47.1753C702.579 46.6869 702.422 45.9371 702.682 45.2837C702.941 44.6302 703.57 44.1969 704.268 44.1969H736.36C737.618 44.1969 738.643 43.1651 738.643 41.8926C738.643 40.62 737.618 39.5883 736.36 39.5883H682.383C681.686 39.5883 681.057 40.0216 680.797 40.6751C680.537 41.3285 680.694 42.0783 681.2 42.5667L689.48 50.5526C691.599 52.6025 694.43 53.7512 697.363 53.7512H707.597C708.295 53.7512 708.924 54.1776 709.19 54.838C709.45 55.4914 709.293 56.2412 708.78 56.7296L693.91 74.0222C693.404 74.5106 693.24 75.2603 693.5 75.9138C693.759 76.5673 694.388 77.0006 695.086 77.0006H703.352C706.285 77.0006 709.108 75.8588 711.234 73.809L722.071 60.4096C722.235 60.2514 722.454 60.162 722.679 60.162C723.042 60.162 723.363 60.3821 723.493 60.7191C723.63 61.0562 723.541 61.4414 723.281 61.689L713.566 74.0222C713.06 74.5106 712.903 75.2603 713.162 75.9138C713.422 76.5673 714.051 77.0006 714.749 77.0006H723.787C726.727 77.0006 729.55 75.8588 731.67 73.809L743.655 58.5386C744.16 58.0503 744.318 57.3005 744.058 56.647L744.065 56.6539Z" fill="#BABB15"/>
</svg>
