<svg width="64" height="73" viewBox="0 0 64 73" fill="none" xmlns="http://www.w3.org/2000/svg">
<path d="M39.0646 35.9528L47.3782 28.7166C49.0396 27.2515 49.7643 25.6832 49.7643 23.3858V20.1597C49.7643 18.2062 51.535 16.5416 53.757 16.5416H61.4074V11.1626H58.3581C56.1977 11.1626 54.8645 11.7473 53.3126 13.2674L45.4981 21.0883C43.9461 22.6016 43.1121 24.1218 43.1121 26.4192V29.1569C43.1121 31.1104 41.2251 32.6787 39.01 32.6787H25.6029C23.3878 32.6787 21.5009 31.1172 21.5009 29.1569V24.2662C21.5009 21.8106 19.525 19.8227 17.0843 19.8227H14.8555V23.3926C14.8555 25.6901 15.5733 27.2584 17.2347 28.7235L25.4389 35.9597C27.1002 37.4249 28.9872 38.0646 31.4758 38.0646H33.2465C35.7419 38.0646 37.4033 37.4317 39.0646 35.9597V35.9528Z" fill="#BABB15"/>
<path d="M42.7088 37.7963H63.103V31.9289H49.2516C46.6468 31.9289 44.8761 32.5617 43.2147 34.0337L35.0174 41.2699C33.3561 42.7351 32.6313 44.3997 32.6313 46.6008V48.1622C32.6313 50.3634 33.3492 51.8285 35.0174 53.2936L43.2147 60.6262C44.8761 62.0913 46.6537 62.731 49.2516 62.731H52.9093C55.1245 62.731 57.0114 64.2924 57.0114 66.2528V73.0006H63.1099V70.3111C63.1099 68.4058 62.4467 67.2295 60.7307 65.8607L51.8633 58.9684C50.1473 57.5996 48.4312 56.8636 45.8264 56.8636H42.7225C40.5074 56.8636 38.7298 55.199 38.7298 53.2455V41.4144C38.7298 39.4609 40.5005 37.7963 42.7225 37.7963H42.7088Z" fill="#BABB15"/>
<path d="M28.7959 40.4927L20.5985 33.2564C18.9372 31.7913 17.1596 31.1516 14.5616 31.1516H0.710205V37.019H21.1044C23.3196 37.019 25.0971 38.6836 25.0971 40.6371V52.4682C25.0971 54.4217 23.3264 56.0863 21.1044 56.0863H18.0005C15.3957 56.0863 13.6797 56.8223 11.9636 58.1911L3.09627 65.0834C1.38023 66.4523 0.717049 67.6285 0.717049 69.5338V72.2234H6.80866V65.4755C6.80866 63.522 8.69562 61.9537 10.9107 61.9537H14.5684C17.1733 61.9537 18.944 61.3209 20.6053 59.8489L28.8027 52.5163C30.464 51.0512 31.1888 49.5792 31.1888 47.385V45.8235C31.1888 43.6224 30.4709 41.9578 28.8027 40.4927H28.7959Z" fill="#BABB15"/>
<path d="M24.1742 18.9491C25.8014 18.9491 27.2849 18.103 28.4677 17.1194L28.9873 17.6422C27.5789 18.8184 26.6149 20.4486 26.7653 22.0857C27.0593 25.1535 29.1377 26.6599 32.686 26.6599C36.2343 26.6599 38.3127 25.1604 38.6819 22.0857C38.8323 20.4486 37.8683 18.8184 36.5352 17.6422L36.9796 17.1194C38.1623 18.0962 39.6459 18.9491 41.1979 18.9491C44.459 18.9491 45.9358 16.404 45.9358 13.8521C45.9358 11.3002 44.4522 8.6932 41.1979 8.6932C39.6459 8.6932 38.1623 9.53926 36.9796 10.4541L36.5352 9.93134C37.8683 8.82389 38.9075 7.1868 38.6819 5.4878C38.3879 2.48188 36.3095 0.913574 32.686 0.913574C29.0625 0.913574 27.0593 2.48188 26.7653 5.4878C26.6149 7.1868 27.5789 8.82389 28.9873 9.93134L28.4677 10.4541C27.2849 9.53926 25.8014 8.62442 24.2494 8.62442C20.9199 8.62442 19.4363 11.1695 19.4363 13.8521C19.4363 16.5347 20.9882 18.9491 24.1742 18.9491Z" fill="#BABB15"/>
</svg>
