<svg width="65" height="77" viewBox="0 0 65 77" fill="none" xmlns="http://www.w3.org/2000/svg">
<path d="M17.1914 31.1346C17.9572 34.3193 20.7397 36.5342 24.0009 36.5342H31.7675C34.9329 36.5342 37.8044 34.3124 38.577 31.1346L47.5058 2.66429C47.7861 1.54309 46.9384 0.449402 45.7898 0.449402C44.9762 0.449402 44.272 0.999685 44.0737 1.79072L38.4881 16.0843C37.7224 19.1728 34.9398 21.3877 31.6786 21.3877H24.0077C20.7466 21.3877 17.9708 19.1728 17.1982 16.0843L11.7014 1.7976C11.5032 1.00656 10.799 0.449402 9.9854 0.449402H9.89652C8.7411 0.449402 7.90016 1.53621 8.18047 2.66429L17.1982 31.1277L17.1914 31.1346Z" fill="#BABB15"/>
<path d="M43.0619 28.9197C42.8773 33.2806 46.2411 36.9744 50.5825 37.1601C54.917 37.3459 58.5884 33.9616 58.773 29.6006C58.9576 25.2396 55.5938 21.5459 51.2524 21.3601C46.9179 21.1744 43.2465 24.5587 43.0619 28.9197Z" fill="#BABB15"/>
<path d="M64.0648 56.6539C63.805 56.0004 63.176 55.5671 62.4787 55.5671H49.3041C48.9417 55.5671 48.6204 55.347 48.4837 55.0031C48.3469 54.666 48.4358 54.2808 48.6956 54.0263C49.2015 53.5379 49.3656 52.7882 49.1058 52.1347C48.846 51.4812 48.217 51.0479 47.5129 51.0479H31.672C28.7321 51.0479 25.9085 49.9061 23.7891 47.8563L23.0849 47.1753C22.579 46.6869 22.4217 45.9371 22.6815 45.2837C22.9413 44.6302 23.5703 44.1969 24.2677 44.1969H56.3597C57.6177 44.1969 58.6432 43.1651 58.6432 41.8926C58.6432 40.62 57.6177 39.5883 56.3597 39.5883H2.38301C1.68566 39.5883 1.05667 40.0216 0.796866 40.6751C0.537067 41.3285 0.694332 42.0783 1.20026 42.5667L9.47963 50.5526C11.599 52.6025 14.4295 53.7512 17.3625 53.7512H27.5972C28.2946 53.7512 28.9236 54.1776 29.1902 54.838C29.45 55.4914 29.2927 56.2412 28.78 56.7296L13.9099 74.0222C13.404 74.5106 13.2399 75.2603 13.4997 75.9138C13.7595 76.5673 14.3885 77.0006 15.0858 77.0006H23.3515C26.2845 77.0006 29.1081 75.8588 31.2344 73.809L42.0707 60.4096C42.2348 60.2514 42.4536 60.162 42.6792 60.162C43.0416 60.162 43.3629 60.3821 43.4928 60.7191C43.6295 61.0562 43.5407 61.4414 43.2809 61.689L33.5657 74.0222C33.0598 74.5106 32.9026 75.2603 33.1624 75.9138C33.4222 76.5673 34.0512 77.0006 34.7485 77.0006H43.7868C46.7266 77.0006 49.5502 75.8588 51.6697 73.809L63.6546 58.5386C64.1605 58.0503 64.3178 57.3005 64.058 56.647L64.0648 56.6539Z" fill="#BABB15"/>
</svg>
