<svg width="70" height="65" viewBox="0 0 70 65" fill="none" xmlns="http://www.w3.org/2000/svg">
<path d="M23.2672 29.528C23.2672 31.1582 23.8757 32.5546 25.0995 33.7102C26.3233 34.8658 27.8 35.4436 29.5297 35.4436H41.754C43.4495 35.4436 44.9057 34.8658 46.1295 33.7102C47.3533 32.5546 47.9618 31.1582 47.9618 29.528C47.9618 27.9803 48.5429 26.6597 49.6983 25.566C50.8606 24.4723 52.2758 23.922 53.9508 23.922C55.6259 23.922 57.1026 23.3373 58.3264 22.1749C59.5502 21.0124 60.1587 19.616 60.1587 17.9789C60.1587 16.6101 59.6938 15.3789 58.764 14.2921C57.8342 13.2052 56.6582 12.5174 55.243 12.2216C56.6582 11.9602 57.8342 11.2861 58.764 10.1993C59.6938 9.11251 60.1587 7.8675 60.1587 6.46427C60.1587 4.86845 59.5434 3.49275 58.3264 2.33715C57.1026 1.18156 55.6464 0.60376 53.9508 0.60376H41.754C40.0242 0.60376 38.5407 1.18156 37.31 2.33715C36.0794 3.49275 35.4641 4.86845 35.4641 6.46427C35.4641 8.06009 34.883 9.38077 33.7275 10.4745C32.5653 11.5681 31.1706 12.1184 29.5297 12.1184C27.8 12.1184 26.3233 12.6962 25.0995 13.8518C23.8757 15.0074 23.2672 16.3831 23.2672 17.9789C23.2672 19.3822 23.7321 20.6341 24.6619 21.7209C25.5917 22.8077 26.7608 23.4818 28.1829 23.7363C26.7677 24.0321 25.5917 24.7268 24.6619 25.8205C23.7321 26.9142 23.2672 28.1454 23.2672 29.5211V29.528ZM34.5275 21.5008C35.3547 20.4621 35.7717 19.2859 35.7717 17.9858C35.7717 16.4382 36.3529 15.1175 37.5083 14.0238C38.6706 12.9301 40.0858 12.3798 41.7608 12.3798H52.0844C50.7991 12.765 49.7462 13.4666 48.9258 14.5053C48.1054 15.5371 47.6952 16.6995 47.6952 17.9858C47.6952 19.5679 47.114 20.9023 45.9586 21.996C44.7964 23.0897 43.4016 23.64 41.7608 23.64H31.3552C32.6405 23.2617 33.7002 22.5463 34.5275 21.5008Z" fill="#BABB15"/>
<path d="M47.3601 42.6591H53.9372C56.7129 42.6591 59.3793 41.5861 61.3825 39.6601L69.2106 32.1418C69.6892 31.681 69.8396 30.9794 69.5935 30.3603C69.3474 29.7412 68.7525 29.3354 68.0962 29.3354H60.2886C57.5128 29.3354 54.8465 30.4084 52.8364 32.3413L47.8729 37.115C45.8697 39.041 43.1965 40.1209 40.4208 40.1209H29.6938C26.9181 40.1209 24.2449 39.041 22.2417 37.115L17.2782 32.3413C15.2681 30.4153 12.6018 29.3354 9.82603 29.3354H2.01839C1.35522 29.3354 0.760415 29.7412 0.514289 30.3603C0.268164 30.9794 0.418572 31.681 0.897149 32.1418L8.7253 39.6601C10.7353 41.5861 13.4017 42.666 16.1774 42.666H22.7544C23.4176 42.666 24.0124 43.0718 24.2585 43.6909C24.5047 44.31 24.3543 45.0116 23.8757 45.4724L6.46915 62.1942C5.99057 62.655 5.84016 63.3566 6.08629 63.9757C6.33242 64.5948 6.92722 65.0006 7.59039 65.0006H15.3912C18.1669 65.0006 20.8333 63.9275 22.8433 61.9947L33.9463 51.3261C34.5753 50.7276 35.553 50.7276 36.182 51.3261L47.2849 61.9947C49.295 63.9207 51.9613 65.0006 54.7371 65.0006H62.5447C63.2079 65.0006 63.8027 64.5948 64.0488 63.9757C64.2949 63.3566 64.1445 62.655 63.6659 62.1942L46.2594 45.4724C45.7808 45.0116 45.6304 44.31 45.8766 43.6909C46.1227 43.0718 46.7175 42.666 47.3806 42.666L47.3601 42.6591Z" fill="#BABB15"/>
</svg>
