<svg width="906" height="110" viewBox="0 0 906 110" fill="none" xmlns="http://www.w3.org/2000/svg">
<path d="M33.8908 59.1514C34.5266 61.7927 36.8375 63.6362 39.538 63.6362H45.9851C48.6105 63.6362 50.9965 61.7927 51.6323 59.1514L60.486 23.2798C60.7185 22.3443 60.0143 21.4432 59.0571 21.4432C58.3871 21.4432 57.7991 21.9041 57.6351 22.5576L51.5503 46.66C50.9145 49.2188 48.6036 51.0622 45.9031 51.0622H39.538C36.8306 51.0622 34.5266 49.2188 33.8908 46.66L27.8812 22.5644C27.7171 21.9041 27.1292 21.4432 26.4523 21.4432H26.3771C25.42 21.4432 24.7158 22.3512 24.9482 23.2798L33.8771 59.1445L33.8908 59.1514Z" fill="#BABB15"/>
<path d="M61.3338 65.7823L86.3976 59.4609V56.3381L48.9182 65.7823C46.2928 66.422 44.4606 68.747 44.4606 71.464V77.9504C44.4606 80.5918 46.2928 82.9924 48.9182 83.6321L86.3976 93.0007V89.9604L61.3338 83.5564C58.7905 82.9167 56.9583 80.5918 56.9583 77.8748V71.4709C56.9583 68.747 58.7905 66.4289 61.3338 65.7892V65.7823Z" fill="#BABB15"/>
<path d="M37.528 65.6997L0.048584 56.3312V59.3715L25.1124 65.7754C27.6556 66.4151 29.4879 68.7401 29.4879 71.4571V77.861C29.4879 80.5849 27.6556 82.903 25.1124 83.5427L0.048584 89.8778V93.0007L37.528 83.5564C40.1534 82.9167 41.9856 80.5918 41.9856 77.8748V71.3883C41.9856 68.7469 40.1534 66.3463 37.528 65.7066V65.6997Z" fill="#BABB15"/>
<path d="M174.267 57.528C174.267 59.1582 174.876 60.5546 176.099 61.7102C177.323 62.8658 178.8 63.4436 180.53 63.4436H192.754C194.449 63.4436 195.906 62.8658 197.13 61.7102C198.353 60.5546 198.962 59.1582 198.962 57.528C198.962 55.9803 199.543 54.6597 200.698 53.566C201.861 52.4723 203.276 51.922 204.951 51.922C206.626 51.922 208.103 51.3373 209.326 50.1749C210.55 49.0124 211.159 47.616 211.159 45.9789C211.159 44.6101 210.694 43.3789 209.764 42.2921C208.834 41.2052 207.658 40.5174 206.243 40.2216C207.658 39.9602 208.834 39.2861 209.764 38.1993C210.694 37.1125 211.159 35.8675 211.159 34.4643C211.159 32.8685 210.543 31.4927 209.326 30.3372C208.103 29.1816 206.646 28.6038 204.951 28.6038H192.754C191.024 28.6038 189.541 29.1816 188.31 30.3372C187.079 31.4927 186.464 32.8685 186.464 34.4643C186.464 36.0601 185.883 37.3808 184.728 38.4745C183.565 39.5681 182.171 40.1184 180.53 40.1184C178.8 40.1184 177.323 40.6962 176.099 41.8518C174.876 43.0074 174.267 44.3831 174.267 45.9789C174.267 47.3822 174.732 48.6341 175.662 49.7209C176.592 50.8077 177.761 51.4818 179.183 51.7363C177.768 52.0321 176.592 52.7268 175.662 53.8205C174.732 54.9142 174.267 56.1454 174.267 57.5211V57.528ZM185.527 49.5008C186.355 48.4621 186.772 47.2859 186.772 45.9858C186.772 44.4382 187.353 43.1175 188.508 42.0238C189.671 40.9301 191.086 40.3798 192.761 40.3798H203.084C201.799 40.765 200.746 41.4666 199.926 42.5053C199.105 43.5371 198.695 44.6995 198.695 45.9858C198.695 47.5679 198.114 48.9023 196.959 49.996C195.796 51.0897 194.402 51.64 192.761 51.64H182.355C183.64 51.2617 184.7 50.5463 185.527 49.5008Z" fill="#BABB15"/>
<path d="M198.36 70.6591H204.937C207.713 70.6591 210.379 69.5861 212.382 67.6601L220.211 60.1418C220.689 59.681 220.84 58.9794 220.593 58.3603C220.347 57.7412 219.753 57.3354 219.096 57.3354H211.289C208.513 57.3354 205.846 58.4084 203.836 60.3413L198.873 65.115C196.87 67.041 194.197 68.1209 191.421 68.1209H180.694C177.918 68.1209 175.245 67.041 173.242 65.115L168.278 60.3413C166.268 58.4153 163.602 57.3354 160.826 57.3354H153.018C152.355 57.3354 151.76 57.7412 151.514 58.3603C151.268 58.9794 151.419 59.681 151.897 60.1418L159.725 67.6601C161.735 69.5861 164.402 70.666 167.177 70.666H173.754C174.418 70.666 175.012 71.0718 175.259 71.6909C175.505 72.31 175.354 73.0116 174.876 73.4724L157.469 90.1942C156.991 90.655 156.84 91.3566 157.086 91.9757C157.332 92.5948 157.927 93.0006 158.59 93.0006H166.391C169.167 93.0006 171.833 91.9275 173.843 89.9947L184.946 79.3261C185.575 78.7276 186.553 78.7276 187.182 79.3261L198.285 89.9947C200.295 91.9207 202.961 93.0006 205.737 93.0006H213.545C214.208 93.0006 214.803 92.5948 215.049 91.9757C215.295 91.3566 215.145 90.655 214.666 90.1942L197.259 73.4724C196.781 73.0116 196.63 72.31 196.877 71.6909C197.123 71.0718 197.717 70.666 198.381 70.666L198.36 70.6591Z" fill="#BABB15"/>
<path d="M324.065 55.9528L332.378 48.7166C334.04 47.2515 334.764 45.6832 334.764 43.3858V40.1597C334.764 38.2062 336.535 36.5416 338.757 36.5416H346.407V31.1626H343.358C341.198 31.1626 339.865 31.7473 338.313 33.2674L330.498 41.0883C328.946 42.6016 328.112 44.1218 328.112 46.4192V49.1569C328.112 51.1104 326.225 52.6787 324.01 52.6787H310.603C308.388 52.6787 306.501 51.1172 306.501 49.1569V44.2662C306.501 41.8106 304.525 39.8227 302.084 39.8227H299.855V43.3926C299.855 45.6901 300.573 47.2584 302.235 48.7235L310.439 55.9597C312.1 57.4249 313.987 58.0646 316.476 58.0646H318.247C320.742 58.0646 322.403 57.4317 324.065 55.9597V55.9528Z" fill="#BABB15"/>
<path d="M327.709 57.7963H348.103V51.9289H334.252C331.647 51.9289 329.876 52.5617 328.215 54.0337L320.017 61.2699C318.356 62.7351 317.631 64.3997 317.631 66.6008V68.1622C317.631 70.3634 318.349 71.8285 320.017 73.2936L328.215 80.6262C329.876 82.0913 331.654 82.731 334.252 82.731H337.909C340.124 82.731 342.011 84.2924 342.011 86.2528V93.0006H348.11V90.3111C348.11 88.4058 347.447 87.2295 345.731 85.8607L336.863 78.9684C335.147 77.5996 333.431 76.8636 330.826 76.8636H327.722C325.507 76.8636 323.73 75.199 323.73 73.2455V61.4144C323.73 59.4609 325.501 57.7963 327.722 57.7963H327.709Z" fill="#BABB15"/>
<path d="M313.796 60.4927L305.599 53.2564C303.937 51.7913 302.16 51.1516 299.562 51.1516H285.71V57.019H306.104C308.32 57.019 310.097 58.6836 310.097 60.6371V72.4682C310.097 74.4217 308.326 76.0863 306.104 76.0863H303.001C300.396 76.0863 298.68 76.8223 296.964 78.1911L288.096 85.0834C286.38 86.4523 285.717 87.6285 285.717 89.5338V92.2234H291.809V85.4755C291.809 83.522 293.696 81.9537 295.911 81.9537H299.568C302.173 81.9537 303.944 81.3209 305.605 79.8489L313.803 72.5163C315.464 71.0512 316.189 69.5792 316.189 67.385V65.8235C316.189 63.6224 315.471 61.9578 313.803 60.4927H313.796Z" fill="#BABB15"/>
<path d="M309.174 38.9491C310.801 38.9491 312.285 38.103 313.468 37.1194L313.987 37.6422C312.579 38.8184 311.615 40.4486 311.765 42.0857C312.059 45.1535 314.138 46.6599 317.686 46.6599C321.234 46.6599 323.313 45.1604 323.682 42.0857C323.832 40.4486 322.868 38.8184 321.535 37.6422L321.98 37.1194C323.162 38.0962 324.646 38.9491 326.198 38.9491C329.459 38.9491 330.936 36.404 330.936 33.8521C330.936 31.3002 329.452 28.6932 326.198 28.6932C324.646 28.6932 323.162 29.5393 321.98 30.4541L321.535 29.9313C322.868 28.8239 323.908 27.1868 323.682 25.4878C323.388 22.4819 321.31 20.9136 317.686 20.9136C314.063 20.9136 312.059 22.4819 311.765 25.4878C311.615 27.1868 312.579 28.8239 313.987 29.9313L313.468 30.4541C312.285 29.5393 310.801 28.6244 309.249 28.6244C305.92 28.6244 304.436 31.1695 304.436 33.8521C304.436 36.5347 305.988 38.9491 309.174 38.9491Z" fill="#BABB15"/>
<path d="M477.075 79.0716H463.531C461.672 79.0716 460.099 78.425 458.814 77.1318C457.529 75.8387 456.886 74.2773 456.886 72.4476C456.886 70.6179 457.529 68.9945 458.814 67.7014C460.099 66.4082 461.672 65.7616 463.531 65.7616H477.075C478.955 65.7616 480.576 65.0738 481.929 63.6981C483.29 62.3224 483.967 60.6853 483.967 58.8006C483.967 56.9158 483.29 55.2168 481.929 53.8549C480.569 52.4929 478.955 51.8051 477.075 51.8051H463.531C461.61 51.8051 459.969 52.4861 458.602 53.8549C457.235 55.2237 456.551 56.8677 456.551 58.8006C456.551 60.6302 455.908 62.1917 454.623 63.4848C453.338 64.778 451.786 65.4246 449.967 65.4246C449.482 65.4246 449.024 65.4659 448.572 65.5553C448.101 65.459 447.615 65.4108 447.109 65.4108C445.291 65.4108 443.739 64.7642 442.453 63.4711C441.168 62.1779 440.525 60.5958 440.525 58.7249C440.525 56.8539 439.842 55.2031 438.474 53.8411C437.107 52.4723 435.459 51.7913 433.545 51.7913H420.001C418.121 51.7913 416.501 52.4723 415.147 53.8411C413.787 55.21 413.11 56.8333 413.11 58.7249C413.11 60.6165 413.787 62.3086 415.147 63.6706C416.508 65.0325 418.121 65.7204 420.001 65.7204H433.545C435.405 65.7204 436.977 66.3669 438.263 67.6601C439.548 68.9533 440.191 70.5147 440.191 72.3444C440.191 74.1741 439.548 75.7974 438.263 77.0906C436.977 78.3837 435.405 79.0303 433.545 79.0303H420.001C418.121 79.0303 416.501 79.7182 415.147 81.0939C413.787 82.4696 413.11 84.1067 413.11 85.9914C413.11 87.8761 413.787 89.5751 415.147 90.9371C416.508 92.299 418.121 92.9869 420.001 92.9869H433.545C435.466 92.9869 437.107 92.3059 438.474 90.9371C439.842 89.5682 440.525 87.9243 440.525 85.9914C440.525 84.1617 441.168 82.6003 442.453 81.3071C443.739 80.014 445.291 79.3674 447.109 79.3674C447.595 79.3674 448.053 79.3261 448.504 79.2367C448.976 79.333 449.461 79.3811 449.967 79.3811C451.786 79.3811 453.338 80.0277 454.623 81.3209C455.908 82.614 456.551 84.1961 456.551 86.0671C456.551 87.938 457.235 89.5889 458.602 90.9508C459.969 92.3197 461.617 93.0006 463.531 93.0006H477.075C478.955 93.0006 480.576 92.3197 481.929 90.9508C483.29 89.582 483.967 87.9587 483.967 86.0671C483.967 84.1755 483.29 82.4834 481.929 81.1214C480.569 79.7595 478.955 79.0716 477.075 79.0716Z" fill="#BABB15"/>
<path d="M434.81 50.4156C436.629 50.4156 438.181 51.0622 439.466 52.3554C440.751 53.6485 441.394 55.21 441.394 57.0397C441.394 58.9725 442.078 60.6234 443.445 61.9853C444.812 63.3542 446.46 64.0351 448.374 64.0351C450.289 64.0351 451.875 63.3542 453.228 61.9853C454.589 60.6165 455.266 58.9725 455.266 57.0397C455.266 55.21 455.908 53.6485 457.194 52.3554C458.479 51.0622 460.051 50.4156 461.911 50.4156C463.771 50.4156 465.412 49.7278 466.765 48.3521C468.126 46.9764 468.803 45.3186 468.803 43.3927V29.7663C468.803 27.8747 468.126 26.2445 466.765 24.8825C465.405 23.5137 463.791 22.8327 461.911 22.8327C460.031 22.8327 458.349 23.5137 456.995 24.8825C455.642 26.2513 454.958 27.8747 454.958 29.7663V43.3927C454.958 45.2636 454.315 46.8457 453.03 48.1388C451.745 49.432 450.193 50.0786 448.374 50.0786C446.556 50.0786 444.942 49.432 443.657 48.1388C442.371 46.8457 441.729 45.2636 441.729 43.3927V29.7663C441.729 27.8747 441.045 26.2445 439.678 24.8825C438.31 23.5137 436.683 22.8327 434.81 22.8327C432.937 22.8327 431.248 23.5137 429.894 24.8825C428.541 26.2513 427.857 27.8747 427.857 29.7663V43.3927C427.857 45.3255 428.534 46.9764 429.894 48.3521C431.255 49.7278 432.889 50.4156 434.81 50.4156Z" fill="#BABB15"/>
<path d="M615.55 84.1686V63.3197C615.55 61.4213 614.381 59.9836 612.884 59.9836C611.387 59.9836 610.156 61.4213 610.156 63.3197V78.3081C609.787 77.125 608.543 76.2995 606.97 76.2995C605.733 76.2995 604.892 75.1233 604.892 73.555C604.892 71.9867 603.463 70.8105 601.576 70.8105C600.338 70.8105 599.497 69.6342 599.497 68.1278C599.497 66.6214 598.069 65.3833 596.182 65.3833C594.951 65.3833 594.035 64.2071 594.035 62.7007C594.035 61.1943 592.606 60.018 590.719 60.018H586.494C586.419 60.018 586.343 60.0318 586.268 60.0387C586.111 60.0043 585.947 59.9836 585.783 59.9836C584.224 59.9836 583.055 61.4213 583.055 63.3197V67.6326C583.055 67.9421 583.11 68.2379 583.178 68.5199V89.3688C583.178 91.2672 584.347 92.7048 585.844 92.7048C587.342 92.7048 588.572 91.2672 588.572 89.3688V74.3804C588.941 75.5635 590.186 76.389 591.758 76.389C592.996 76.389 593.837 77.5652 593.837 79.1335C593.837 80.7018 595.265 81.878 597.152 81.878C598.39 81.878 599.231 83.0543 599.231 84.5607C599.231 86.0671 600.66 87.3052 602.547 87.3052C603.784 87.3052 604.693 88.4814 604.693 89.9878C604.693 91.4942 606.122 92.6705 608.009 92.6705H612.234C612.31 92.6705 612.385 92.6567 612.46 92.6498C612.617 92.6842 612.781 92.7048 612.945 92.7048C614.504 92.7048 615.673 91.2672 615.673 89.3688V85.0559C615.673 84.7464 615.619 84.4506 615.55 84.1686ZM607.497 87.2433C605.938 87.2433 604.769 86.0671 604.769 84.4988C604.769 82.9304 603.34 81.8161 601.453 81.8161C600.215 81.8161 599.306 80.6399 599.306 79.0716C599.306 77.5033 597.877 76.327 595.99 76.327C594.753 76.327 593.912 75.1508 593.912 73.5825C593.912 72.0142 592.483 70.8999 590.596 70.8999C589.577 70.8999 588.832 69.9094 588.6 68.4993C588.709 66.7452 589.823 65.4452 591.239 65.4452C592.797 65.4452 593.966 66.6214 593.966 68.1897C593.966 69.758 595.395 70.8724 597.282 70.8724C598.52 70.8724 599.429 72.0486 599.429 73.6169C599.429 75.1852 600.858 76.3614 602.745 76.3614C603.982 76.3614 604.823 77.5377 604.823 79.106C604.823 80.6743 606.252 81.7886 608.139 81.7886C609.158 81.7886 609.903 82.7791 610.136 84.1892C610.026 85.9432 608.912 87.2433 607.497 87.2433Z" fill="#BABB15"/>
<path d="M578.44 60.307H552.583C550.696 60.307 549.267 61.4832 549.267 62.9896C549.267 64.496 550.696 65.7342 552.583 65.7342H573.046C574.933 65.7342 576.362 66.9104 576.362 68.4168C576.362 69.9232 575.193 71.1613 573.634 71.1613C572.075 71.1613 570.967 72.5989 570.967 74.4974C570.967 75.7424 569.798 76.6573 568.24 76.6573C566.681 76.6573 565.512 78.0949 565.512 79.9934C565.512 81.2384 564.343 82.0844 562.784 82.0844C561.225 82.0844 560.117 83.5221 560.117 85.4205C560.117 86.6655 558.688 87.5116 556.802 87.5116H552.576C550.689 87.5116 549.26 88.6878 549.26 90.2561C549.26 91.8244 550.689 93.0007 552.576 93.0007H556.863C558.75 93.0007 560.179 91.5631 560.179 89.6646C560.179 88.4196 561.348 87.5735 562.845 87.5735C564.343 87.5735 565.573 86.1359 565.573 84.2374C565.573 82.9924 566.742 82.1463 568.301 82.1463C569.86 82.1463 571.029 80.7087 571.029 78.8103C571.029 77.5652 572.198 76.7192 573.695 76.7192C575.193 76.7192 576.423 75.2816 576.423 73.3831C576.423 72.145 577.592 71.2232 579.09 71.2232C580.587 71.2232 581.756 69.7856 581.756 67.8871V63.6362C581.756 61.7377 580.327 60.3001 578.44 60.3001V60.307Z" fill="#BABB15"/>
<path d="M586.145 58.8693H612.002C613.889 58.8693 615.318 57.6931 615.318 56.1867C615.318 54.6803 613.889 53.4422 612.002 53.4422H591.539C589.652 53.4422 588.224 52.266 588.224 50.7596C588.224 49.2532 589.393 48.015 590.951 48.015C592.51 48.015 593.618 46.5774 593.618 44.6789C593.618 43.4339 594.787 42.5191 596.346 42.5191C597.905 42.5191 599.074 41.0815 599.074 39.183C599.074 37.938 600.243 37.0919 601.802 37.0919C603.36 37.0919 604.468 35.6543 604.468 33.7558C604.468 32.5108 605.897 31.6647 607.784 31.6647H612.009C613.896 31.6647 615.325 30.4885 615.325 28.9202C615.325 27.3519 613.896 26.1757 612.009 26.1757H607.722C605.835 26.1757 604.406 27.6133 604.406 29.5118C604.406 30.7568 603.237 31.6028 601.74 31.6028C600.243 31.6028 599.012 33.0404 599.012 34.9389C599.012 36.1839 597.843 37.03 596.284 37.03C594.725 37.03 593.556 38.4676 593.556 40.3661C593.556 41.6111 592.387 42.4572 590.89 42.4572C589.393 42.4572 588.162 43.8948 588.162 45.7932C588.162 47.0314 586.993 47.9531 585.496 47.9531C583.998 47.9531 582.829 49.3907 582.829 51.2892V55.5401C582.829 57.4386 584.258 58.8762 586.145 58.8762V58.8693Z" fill="#BABB15"/>
<path d="M572.752 53.456H552.289C550.402 53.456 548.973 54.6322 548.973 56.2005C548.973 57.7688 550.402 58.8831 552.289 58.8831H578.146C580.033 58.8831 581.462 57.4455 581.462 55.547V51.2961C581.462 49.3976 580.293 47.96 578.796 47.96C577.298 47.96 576.129 47.0452 576.129 45.8001C576.129 43.9017 574.96 42.4641 573.401 42.4641C571.843 42.4641 570.735 41.6111 570.735 40.373C570.735 38.4745 569.566 37.0369 568.007 37.0369C566.448 37.0369 565.279 36.1839 565.279 34.9458C565.279 33.0473 564.11 31.6097 562.551 31.6097C560.993 31.6097 559.885 30.7568 559.885 29.5186C559.885 27.6202 558.456 26.1826 556.569 26.1826H552.282C550.395 26.1826 548.967 27.3588 548.967 28.9271C548.967 30.4954 550.395 31.6716 552.282 31.6716H556.508C558.395 31.6716 559.823 32.5246 559.823 33.7627C559.823 35.6612 560.931 37.0988 562.49 37.0988C564.049 37.0988 565.218 37.9517 565.218 39.1899C565.218 41.0883 566.387 42.526 567.946 42.526C569.504 42.526 570.673 43.4408 570.673 44.6858C570.673 46.5843 571.781 48.0219 573.34 48.0219C574.899 48.0219 576.068 49.1981 576.068 50.7664C576.068 52.3348 574.639 53.4491 572.752 53.4491V53.456Z" fill="#BABB15"/>
<path d="M697.191 47.1346C697.957 50.3193 700.74 52.5342 704.001 52.5342H711.767C714.933 52.5342 717.804 50.3124 718.577 47.1346L727.506 18.6643C727.786 17.5431 726.938 16.4494 725.79 16.4494C724.976 16.4494 724.272 16.9997 724.074 17.7907L718.488 32.0843C717.722 35.1728 714.94 37.3877 711.679 37.3877H704.008C700.747 37.3877 697.971 35.1728 697.198 32.0843L691.701 17.7976C691.503 17.0066 690.799 16.4494 689.985 16.4494H689.897C688.741 16.4494 687.9 17.5362 688.18 18.6643L697.198 47.1277L697.191 47.1346Z" fill="#BABB15"/>
<path d="M723.062 44.9197C722.877 49.2806 726.241 52.9744 730.582 53.1601C734.917 53.3459 738.588 49.9616 738.773 45.6006C738.958 41.2396 735.594 37.5459 731.252 37.3601C726.918 37.1744 723.247 40.5587 723.062 44.9197Z" fill="#BABB15"/>
<path d="M744.065 72.6539C743.805 72.0004 743.176 71.5671 742.479 71.5671H729.304C728.942 71.5671 728.62 71.347 728.484 71.0031C728.347 70.666 728.436 70.2808 728.696 70.0263C729.202 69.5379 729.366 68.7882 729.106 68.1347C728.846 67.4812 728.217 67.0479 727.513 67.0479H711.672C708.732 67.0479 705.909 65.9061 703.789 63.8563L703.085 63.1753C702.579 62.6869 702.422 61.9371 702.682 61.2837C702.941 60.6302 703.57 60.1969 704.268 60.1969H736.36C737.618 60.1969 738.643 59.1651 738.643 57.8926C738.643 56.62 737.618 55.5883 736.36 55.5883H682.383C681.686 55.5883 681.057 56.0216 680.797 56.6751C680.537 57.3285 680.694 58.0783 681.2 58.5667L689.48 66.5526C691.599 68.6025 694.43 69.7512 697.363 69.7512H707.597C708.295 69.7512 708.924 70.1776 709.19 70.838C709.45 71.4914 709.293 72.2412 708.78 72.7296L693.91 90.0222C693.404 90.5106 693.24 91.2603 693.5 91.9138C693.759 92.5673 694.388 93.0006 695.086 93.0006H703.352C706.285 93.0006 709.108 91.8588 711.234 89.809L722.071 76.4096C722.235 76.2514 722.454 76.162 722.679 76.162C723.042 76.162 723.363 76.3821 723.493 76.7191C723.63 77.0562 723.541 77.4414 723.281 77.689L713.566 90.0222C713.06 90.5106 712.903 91.2603 713.162 91.9138C713.422 92.5673 714.051 93.0006 714.749 93.0006H723.787C726.727 93.0006 729.55 91.8588 731.67 89.809L743.655 74.5386C744.16 74.0503 744.318 73.3005 744.058 72.647L744.065 72.6539Z" fill="#BABB15"/>
<g clip-path="url(#clip0_99_191)">
<path d="M815.882 77.42L821.422 63.23C823.562 57.76 823.562 51.68 821.422 46.2L815.882 32.01C807.472 10.5 832.042 -8.88999 851.012 4.30001L895.932 35.51C909.322 44.82 909.322 64.62 895.932 73.93L851.012 105.14C832.032 118.33 807.462 98.94 815.872 77.42H815.882Z" fill="#BABB15"/>
</g>
<defs>
<clipPath id="clip0_99_191">
<rect width="91.8" height="109.45" fill="white" transform="translate(814.182)"/>
</clipPath>
</defs>
</svg>
