<svg width="951" height="158" viewBox="0 0 951 158" fill="none" xmlns="http://www.w3.org/2000/svg">
<path d="M185.389 137.023C183.732 140.687 179.811 142.359 176.398 144.042C172.237 146.083 168.036 148.124 164.015 150.453C160.243 152.644 156.501 155.441 152.28 156.706C148.099 157.96 143.608 157.622 139.317 157.552C134.757 157.462 130.197 157.403 125.627 157.512C121.136 157.612 116.506 157.741 112.235 156.079C108.423 154.595 105.38 151.927 102.137 149.498C98.8638 147.058 95.0319 145.207 90.8708 146.162C86.9093 147.049 84.1951 149.956 81.0618 152.305C77.7688 154.784 74.1366 156.407 70.0453 157.004C65.4751 157.661 60.8051 157.283 56.2049 157.293C47.4037 157.323 37.8342 158.737 29.6616 154.715C25.9196 152.863 22.6566 150.175 18.9046 148.343C15.1227 146.481 11.0314 145.227 7.42913 143.006C3.99647 140.876 1.19246 137.919 0.354252 133.877C-0.503914 129.725 0.483975 125.394 1.01285 121.263C2.20031 111.884 2.15041 102.396 1.93088 92.9581C1.81114 88.3386 1.42197 83.7689 0.853186 79.2091C0.324316 75.0276 -0.30434 70.428 1.19246 66.3759C2.54956 62.6624 5.54316 60.6712 9.02572 59.0982C13.1469 57.2165 17.1384 55.4643 20.9502 52.9852C27.5162 48.7142 33.5633 42.3125 42.0252 42.88C49.0801 43.3579 56.0153 48.2164 56.3945 55.7231C56.6041 59.4964 54.9177 63.0108 51.7644 65.1314C49.2498 66.8239 46.2562 67.3615 43.3025 67.7897C37.924 68.5662 31.3181 69.1138 29.1727 75.0375C27.6958 79.1493 28.075 83.7589 28.0052 88.0499C27.9154 92.7889 27.8854 97.5478 27.8455 102.297C27.7856 106.847 27.6858 111.396 27.596 115.956C27.5262 120.158 27.4464 124.648 29.1627 128.57C32.745 136.824 42.5541 134.932 49.8784 134.932C54.5584 134.942 59.2285 134.942 63.9284 135.062C67.7702 135.161 71.8215 135.062 75.0247 132.652C78.2578 130.203 80.4032 126.559 83.327 123.782C86.2208 121.044 89.404 118.764 93.0761 117.201C94.6228 116.544 96.4988 115.787 97.0975 114.065C97.7062 112.302 96.5986 110.67 95.2415 109.644C92.4674 107.583 88.7055 107.066 85.6719 105.443C79.545 102.177 74.5058 96.3431 76.8009 89.0256C78.9064 82.3352 85.9214 77.417 92.9364 77.6062C99.8816 77.7953 104.991 83.1018 107.216 89.3143C108.573 93.1473 109.521 97.1197 112.624 99.987C115.508 102.655 119.29 104.159 122.813 105.751C126.495 107.414 130.237 109.037 133.669 111.177C136.743 113.069 140.435 115.668 141.972 119.062C143.598 122.637 141.253 126.181 137.781 127.465C133.669 128.979 129.768 126.4 126.235 124.578C120.827 121.78 109.591 115.508 105.739 123.742C104.232 126.967 105.24 130.591 107.475 133.21C110.08 136.226 113.852 137.67 117.703 138.257C126.155 139.542 135.036 138.447 143.488 137.67C149.236 137.142 155.912 136.007 158.656 130.233C160.452 126.46 160.332 121.98 160.263 117.898C160.173 113.119 160.163 108.35 160.053 103.581C159.963 98.9914 159.674 94.4217 159.494 89.832C159.345 85.7202 159.714 81.3994 158.546 77.407C156.501 70.3881 149.366 68.7852 143.079 67.3416C139.547 66.5253 135.665 65.679 132.951 63.1004C130.277 60.5915 129.389 56.6988 130.277 53.1943C131.953 46.5737 139.357 42.4021 145.913 42.7207C149.935 42.9198 153.457 44.9508 156.73 47.0914C160.622 49.6401 164.404 52.3381 168.395 54.7375C172.257 57.0672 176.508 58.6601 180.439 60.8803C187.983 65.1513 186.297 74.6194 185.439 81.7777C184.87 86.3873 184.501 91.0068 184.361 95.6462C184.082 105.094 184.95 114.513 185.988 123.891C186.018 124.15 186.047 124.399 186.077 124.668C186.516 128.65 187.115 133.23 185.419 137.023H185.389Z" fill="#BABB15"/>
<path d="M337.414 139.253C334.45 143.305 329.391 144.689 324.991 146.601C320.091 148.731 316.1 152.405 311.25 154.635C306.001 157.044 300.124 157.562 294.416 157.652C281.843 157.841 269.26 157.124 256.697 157.492C246.169 157.811 234.963 158.747 225.373 153.54C222.859 152.166 220.564 150.424 218.079 149C215.664 147.626 213.11 146.64 210.555 145.605C206.474 143.942 202.153 141.941 199.928 137.919C197.214 132.951 198.421 126.38 198.441 120.974C198.441 117.718 198.401 114.473 198.531 111.217C198.631 108.609 198.691 105.911 199.419 103.382C200.806 98.6728 204.758 96.0943 209.128 94.4018C214.417 92.3608 219.925 90.9272 225.164 88.697C227.908 87.5123 230.503 85.9691 233.257 84.8142C235.891 83.6892 238.635 83.3109 241.489 83.281C247.676 83.2213 253.853 83.4304 260.039 83.4304C266.226 83.4304 272.243 83.4702 278.34 83.9282C284.407 84.3762 290.225 85.5012 296.142 86.8054C300.583 87.801 305.542 88.0897 309.254 84.9835C312.906 81.9071 314.264 76.2621 312.378 71.8716C308.795 63.4987 296.841 64.7233 289.447 64.7133C277.113 64.7033 264.779 64.5241 252.436 64.8029C247.037 64.9224 241.609 65.2808 236.34 66.585C230.862 67.939 226.391 70.5972 221.612 73.4645C217.171 76.1028 212.072 78.5221 206.763 77.9248C202.263 77.427 197.523 74.7588 195.886 70.3583C194.23 65.9379 196.485 61.5772 200.327 59.2475C205.197 56.2707 211.084 54.7375 216.393 52.7762C221.901 50.7352 227.359 48.4553 232.957 46.713C238.685 44.921 244.343 45.2097 250.26 45.369C262.843 45.7175 275.417 45.4088 288 45.3093C291.143 45.2794 294.286 45.2495 297.429 45.2097C300.064 45.1798 302.768 45.14 305.353 45.7971C310.352 47.0914 314.184 50.7551 318.524 53.3337C323.344 56.1911 328.912 57.6048 333.652 60.5916C342.803 66.366 339.4 78.6914 338.362 87.4227C336.925 99.5589 337.793 111.844 339.3 123.941C339.53 125.823 339.779 127.794 339.839 129.745C339.959 133.12 339.5 136.455 337.444 139.253H337.414ZM312.876 126.938C311.998 120.506 304.644 117.798 299.355 115.966C290.774 113.009 282.112 110.132 273.82 106.399C270.238 104.796 266.765 102.944 263.093 101.57C259.451 100.226 255.639 99.4693 251.767 99.2503C247.716 99.0313 243.624 99.2901 239.593 99.778C236.26 100.176 232.838 100.913 230.213 103.133C225.473 107.115 224.875 114.025 225.064 119.789C225.244 125.743 227.02 131.866 232.738 134.693C238.815 137.71 245.969 136.445 252.466 136.326C260.638 136.177 268.851 136.137 277.003 136.645C285.086 137.122 293.228 138.337 301.311 137.371C306.121 136.804 311.998 134.355 312.847 129.347C312.976 128.6 312.996 127.784 312.876 126.928V126.938Z" fill="#BABB15"/>
<path d="M493.93 128.521C493.969 131.995 493.96 135.868 491.814 138.805C489.798 141.573 486.525 142.917 483.552 144.39C480.149 146.063 476.736 147.726 473.383 149.498C469.981 151.31 466.758 153.45 463.355 155.232C456.559 158.777 448.576 157.652 441.182 157.612C432.72 157.582 424.258 157.462 415.797 157.602C407.674 157.731 399.442 158.259 391.339 157.532C387.417 157.184 383.785 156.178 380.272 154.396C376.9 152.674 373.667 150.692 370.114 149.348C366.502 147.994 362.76 147.337 359.068 146.342C355.835 145.495 352.642 144.092 350.556 141.384C346.914 136.674 348.201 130.143 352.731 126.519C357.611 122.627 365.225 122.886 370.823 125.016C374.255 126.33 377.029 128.76 380.103 130.701C383.206 132.642 386.549 134.036 390.131 134.853C397.895 136.615 405.918 135.988 413.791 135.908C422.053 135.818 430.296 136.097 438.538 136.167C442.619 136.197 446.691 136.137 450.772 136.067C454.165 136.007 457.946 135.978 461.05 134.405C466.059 131.886 467.596 125.584 466.458 120.466C465.74 117.27 463.974 114.164 460.95 112.681C457.827 111.138 454.095 111.357 450.692 111.267C442.33 111.058 433.968 110.988 425.616 111.148C417.443 111.307 409.29 111.715 401.138 111.586C393.784 111.486 386.479 110.361 379.963 106.817C376.67 105.025 373.537 102.994 370.024 101.64C366.412 100.256 362.54 99.4195 359.108 97.5976C356.254 96.0843 353.889 93.8044 352.652 90.7878C351.324 87.5521 351.195 83.9182 350.995 80.4635C350.656 74.4502 350.955 67.6602 355.306 63.0108C359.906 58.0926 367.101 56.8282 372.759 53.5129C375.972 51.6313 379.015 49.3713 382.468 47.8978C385.89 46.4442 389.523 45.8967 393.225 45.7672C401.278 45.4885 409.4 45.7772 417.473 45.7971C425.685 45.8071 433.918 45.9763 442.15 45.8867C449.345 45.817 456.869 45.0803 463.694 47.8679C467.366 49.3514 470.739 51.452 474.441 52.8857C478.024 54.2696 481.736 55.3548 485.378 56.5893C490.377 58.2917 496.414 61.2387 496.983 67.1724C497.552 73.1659 491.994 78.2135 486.605 79.5476C479.371 81.3595 472.795 76.5011 466.957 72.9866C460.75 69.2432 453.935 66.6547 446.631 66.4655C438.458 66.2465 430.335 67.5408 422.163 67.4113C413.761 67.2819 405.399 66.0872 396.997 66.1868C395.33 66.2166 393.574 66.3062 391.838 66.5551C387.208 67.2122 382.697 68.9446 380.382 73.2455C377.678 78.2633 378.776 85.0432 383.027 88.8663C388.056 93.3564 395.54 92.5002 401.747 92.3708C410.019 92.1916 418.311 92.2812 426.584 92.0621C434.596 91.8431 442.619 91.3752 450.612 91.9924C454.454 92.2812 458.286 92.9382 461.898 94.3221C465.54 95.706 468.873 97.737 472.376 99.3996C475.778 101.003 479.321 102.247 482.783 103.671C485.807 104.905 488.97 106.329 491.016 108.997C495.137 114.363 493.87 122.209 493.97 128.521H493.93Z" fill="#BABB15"/>
<path d="M507.62 38.4895C506.922 31.8987 506.114 25.3079 505.325 18.7171C504.707 13.7591 505.255 8.70146 508.908 4.94809C514.975 -1.27435 526.59 -1.90157 532.677 4.6295C539.003 11.4393 535.171 21.4848 533.345 29.2902C532.218 34.1487 531.27 39.8435 533.695 44.473C536.03 48.8735 541.019 50.1478 545.649 49.5803C551.506 48.8834 557.324 47.9177 563.192 47.2009C569.568 46.4243 575.934 45.7573 582.311 44.9509C587.729 44.2639 593.507 43.567 598.666 45.8867C608.066 50.118 611.399 63.9965 600.053 68.0983C596.999 69.2034 593.676 69.0939 590.493 69.1039C587.09 69.1138 583.678 69.0342 580.295 68.7853C573.29 68.2775 566.325 67.491 559.38 66.5253C552.594 65.5894 545.669 64.2752 538.844 65.3306C533.236 66.1868 528.426 69.2432 523.147 71.105C518.657 72.678 513.388 72.9269 509.935 69.1238C506.762 65.6193 506.503 60.5617 506.782 56.1015C506.972 53.0649 507.481 50.0781 507.79 47.0715C507.91 45.9166 507.95 44.7816 507.95 43.6466C507.94 41.9442 507.82 40.2218 507.63 38.4994L507.62 38.4895ZM647.481 142.469C642.891 147.248 635.756 146.71 630.029 149.219C626.496 150.762 623.353 153.082 619.751 154.545C616.138 156.029 612.257 156.865 608.375 157.363C599.883 158.458 591.361 157.243 582.84 157.154C574.358 157.064 565.886 157.343 557.424 157.711C550.189 158.03 542.456 158.737 535.73 155.481C532.268 153.809 529.404 151.17 526.101 149.209C522.668 147.198 518.856 145.953 515.284 144.191C510.055 141.593 505.535 137.381 505.335 131.199C505.185 127.097 506.443 123.075 506.942 119.023C507.441 114.971 507.55 110.839 507.231 106.777C506.922 102.785 506.253 98.7326 507.52 94.8299C508.528 91.7236 510.384 88.488 513.278 86.7955C516.392 84.9835 520.233 85.103 523.636 84.1373C527.448 83.062 531.16 81.479 534.633 79.5476C536.459 78.5221 538.225 77.4071 539.891 76.1327C541.278 75.0674 542.685 73.9325 544.442 73.5044C547.625 72.7178 551.077 74.3207 553.273 76.5807C555.448 78.8308 556.945 82.3551 555.388 85.3419C553.931 88.1594 550.598 89.1152 547.754 89.8619C542.875 91.1562 536.738 92.2413 534.503 97.3985C532.966 100.953 533.645 105.114 533.724 108.848C533.814 113.049 533.405 117.251 533.505 121.462C533.595 124.827 534.074 128.341 536.179 131.099C538.295 133.897 541.618 135.301 545.01 135.749C548.872 136.276 552.804 135.898 556.675 135.778C561.016 135.659 565.377 135.619 569.718 135.53C578.389 135.35 587.051 135.092 595.722 135.062C599.863 135.062 604.084 135.291 608.145 134.345C611.598 133.558 614.602 131.746 617.366 129.606C622.834 125.345 629.011 120.536 636.365 121.133C640.995 121.532 645.576 124.429 648.22 128.292C651.154 132.563 651.762 138.009 647.471 142.449L647.481 142.469Z" fill="#BABB15"/>
<path d="M799.058 139.094C797.741 143.484 793.27 145.426 789.299 146.81C786.664 147.726 783.99 148.442 781.336 149.229C778.671 150.015 776.246 151.12 773.812 152.405C768.862 155.013 763.723 156.556 758.145 157.164C752.258 157.801 746.32 157.562 740.413 157.413C734.376 157.253 728.339 157.283 722.302 157.343C716.275 157.413 710.257 157.622 704.24 157.652C698.493 157.691 692.545 157.741 687.037 155.899C681.858 154.167 678.226 150.065 673.376 147.735C669.065 145.665 663.877 144.848 660.224 141.553C656.482 138.188 656.323 133.309 656.662 128.62C657.101 122.587 657.76 116.564 658.039 110.51C658.578 98.5932 655.924 86.905 655.894 74.9977C655.884 70.0795 656.802 64.9622 660.833 61.6867C662.759 60.0938 665.134 59.2077 667.429 58.2917C669.874 57.3161 672.249 56.191 674.594 54.9565C679.244 52.4875 683.305 48.7639 688.334 47.0416C693.743 45.1798 699.281 46.8524 704.709 47.7584C716.953 49.8193 729.367 47.3403 741.66 47.2208C747.667 47.161 753.794 47.2606 759.712 48.4155C764.771 49.3912 768.802 52.6169 773.213 55.0262C778.033 57.6645 783.361 59.0086 788.56 60.6811C790.915 61.4577 793.19 62.5031 794.637 64.6137C799.257 71.3937 796.284 80.6228 796.044 88.1395C795.954 91.176 796.034 94.2225 795.884 97.2491C795.785 99.6385 795.415 102.078 793.959 104.059C791.414 107.504 787.003 108.708 783.192 110.142C777.524 112.253 771.966 114.692 766.328 116.892C761.069 118.933 755.67 120.655 749.983 120.914C737.759 121.452 725.365 121.91 713.161 120.825C707.463 120.317 701.805 119.262 696.078 118.943C692.026 118.724 687.177 118.853 684.532 122.457C682.138 125.753 682.307 130.621 684.742 133.847C687.766 137.889 693.264 138.118 697.864 138.188C710.128 138.387 722.392 137.939 734.655 138.098C745.133 138.228 756.319 139.363 766.108 134.793C770.888 132.563 774.999 129.088 779.968 127.236C784.439 125.574 789.817 125.225 794.088 127.635C794.298 127.754 794.497 127.883 794.687 128.013C798.249 130.362 800.385 134.892 799.118 139.114L799.058 139.094ZM686.448 104.348C689.791 106.409 693.783 105.921 697.465 105.284C701.875 104.507 706.296 103.75 710.766 103.392C719.737 102.645 728.748 103.143 737.729 103.213C742.169 103.253 746.63 103.153 751.07 103.282C755.012 103.402 759.163 103.87 762.935 102.406C772.884 98.5434 774.011 83.1118 765.709 76.9989C762.466 74.5895 758.415 73.8229 754.673 72.5087C750.452 71.0353 746.46 68.7952 742.03 67.9589C737.629 67.1425 733.059 67.9888 729.137 70.0895C725.924 71.8118 723.17 74.48 719.597 75.4856C715.796 76.5508 711.744 75.5254 708.302 73.8528C702.704 71.1448 696.726 65.1314 689.991 67.4611C687.067 68.4667 685.151 70.8561 683.894 73.5541C683.674 74.022 683.475 74.4999 683.295 74.9878C681.748 79.1195 680.97 83.5598 680.721 87.9503C680.401 93.675 681 101.003 686.438 104.338L686.448 104.348Z" fill="#BABB15"/>
<path d="M948.838 122.657C949.247 127.236 950.294 132.154 948.658 136.595C947.341 140.149 944.188 142.548 940.755 143.873C936.694 145.446 932.133 145.794 928.531 148.462C926.765 149.776 925.328 151.449 923.502 152.703C921.606 153.998 919.5 154.973 917.305 155.621C908.174 158.348 898.316 155.989 888.976 156.098C878.568 156.228 868.16 156.736 857.782 157.303C853.032 157.562 848.213 157.841 843.543 156.746C838.893 155.64 834.951 153.161 830.9 150.762C826.898 148.383 822.587 146.63 818.356 144.669C814.794 142.996 811.222 140.836 809.555 137.083C807.739 132.981 808.428 128.331 808.996 124.05C809.655 118.933 810.344 113.816 810.543 108.639C810.942 98.7226 810.513 88.8663 809.096 79.0398C808.617 75.6747 808.128 72.1603 808.807 68.7753C809.585 64.8925 811.99 62.284 815.403 60.4024C819.544 58.1324 824.114 56.7685 828.235 54.4488C832.327 52.1489 836.168 49.1124 840.589 47.4597C845.119 45.7672 849.709 46.1455 854.369 46.9619C859.469 47.8679 864.438 48.6843 869.627 48.5648C874.716 48.4653 879.606 47.3502 884.655 46.8922C889.564 46.4442 893.865 47.5195 898.076 50.0682C901.918 52.3879 905.161 55.4643 908.803 58.0628C912.076 60.3924 916.098 61.6469 919.68 59.1579C923.083 56.7784 924.25 52.5671 924.27 48.6047C924.28 43.9951 923.322 39.3158 922.604 34.7759C921.815 29.7582 920.628 24.8499 919.75 19.8421C918.971 15.4714 918.932 10.8917 921.426 7.0388C925.428 0.896019 933.78 -1.31419 940.555 0.975666C946.652 3.04649 949.007 8.50232 949.716 14.5256C950.324 19.6131 949.786 25.0988 949.366 29.3002C947.281 49.9587 947.441 70.7266 947.82 91.4648C948.019 101.849 947.86 112.292 948.818 122.647L948.838 122.657ZM919.061 78.0841C916.866 76.6106 914.252 76.1725 911.707 75.6946C909.073 75.2168 906.478 74.5696 903.963 73.6338C899.283 71.9014 894.903 68.7156 889.774 68.5463C884.994 68.387 881.152 71.2742 877.38 73.7931C873.389 76.4513 869.108 78.2433 864.368 76.3318C860.117 74.6294 856.844 71.1547 852.763 69.1237C849.23 67.3715 844.86 66.7343 841.347 68.8748C837.735 71.0751 836.498 75.1769 836.188 79.1593C835.789 83.9978 836.118 88.8961 836.158 93.7447C836.228 99.1806 836.218 104.636 836.248 110.082C836.278 115.13 835.779 120.257 836.478 125.275C836.987 128.989 838.763 132.433 842.146 134.305C845.928 136.386 850.548 136.585 854.759 136.714C859.628 136.864 864.518 136.525 869.258 135.301C878.638 132.851 886.81 127.366 895.482 123.244C899.892 121.163 904.413 119.192 909.132 117.888C912.904 116.852 917.085 116.195 920.169 113.617C923.262 111.018 923.681 106.956 923.941 103.193C923.951 102.974 923.971 102.755 923.981 102.536C924.589 94.8099 926.605 83.0919 919.051 78.094L919.061 78.0841Z" fill="#BABB15"/>
</svg>
