<svg width="493" height="249" viewBox="0 0 493 249" fill="none" xmlns="http://www.w3.org/2000/svg">
<g clip-path="url(#clip0_99_162)">
<path d="M153.655 166.567H194.911C200.637 166.567 205.566 164.482 209.704 160.321C213.841 156.152 215.913 151.214 215.913 145.493C215.913 139.772 213.841 134.659 209.704 130.526C205.566 126.392 200.63 124.322 194.911 124.322H153.655C147.802 124.322 142.796 126.385 138.624 130.526C134.451 134.659 132.372 139.646 132.372 145.493C132.372 151.025 130.412 155.754 126.491 159.67C122.571 163.587 117.838 165.545 112.301 165.545C110.837 165.545 109.423 165.678 108.065 165.937C106.637 165.643 105.146 165.496 103.599 165.496C98.0609 165.496 93.3284 163.538 89.4079 159.621C85.4874 155.705 83.5272 150.921 83.5272 145.262C83.5272 139.604 81.4409 134.617 77.2754 130.484C73.1099 126.35 68.0973 124.28 62.2446 124.28H21.0026C15.2759 124.28 10.3473 126.35 6.20976 130.484C2.07225 134.617 0 139.548 0 145.262C0 150.977 2.07225 156.096 6.20976 160.23C10.3473 164.363 15.2829 166.434 21.0026 166.434H62.2586C67.9223 166.434 72.7108 168.392 76.6313 172.309C80.5518 176.226 82.512 180.954 82.512 186.486C82.512 192.018 80.5518 196.928 76.6313 200.845C72.7108 204.762 67.9223 206.72 62.2586 206.72H21.0026C15.2759 206.72 10.3473 208.804 6.20976 212.966C2.07225 217.135 0 222.072 0 227.794C0 233.515 2.07225 238.628 6.20976 242.761C10.3473 246.895 15.2829 248.965 21.0026 248.965H62.2586C68.1113 248.965 73.1169 246.902 77.2894 242.761C81.4619 238.628 83.5412 233.641 83.5412 227.794C83.5412 222.261 85.5014 217.533 89.4219 213.616C93.3424 209.7 98.0749 207.741 103.613 207.741C105.076 207.741 106.49 207.608 107.848 207.35C109.276 207.643 110.767 207.79 112.315 207.79C117.852 207.79 122.585 209.749 126.505 213.665C130.426 217.582 132.386 222.366 132.386 228.024C132.386 233.683 134.472 238.67 138.638 242.803C142.803 246.937 147.816 249.007 153.669 249.007H194.925C200.651 249.007 205.58 246.937 209.718 242.803C213.855 238.67 215.927 233.739 215.927 228.024C215.927 222.31 213.855 217.19 209.718 213.057C205.58 208.923 200.644 206.853 194.925 206.853H153.669C148.005 206.853 143.216 204.895 139.296 200.978C135.375 197.061 133.415 192.333 133.415 186.801C133.415 181.268 135.375 176.358 139.296 172.442C143.216 168.525 148.005 166.567 153.669 166.567H153.655Z" stroke="#BABB15"/>
<path d="M316.088 170.672C311.951 166.504 306.959 164.426 301.107 164.426C295.569 164.426 290.836 162.468 286.916 158.551C282.995 154.634 281.035 149.906 281.035 144.374C281.035 138.527 278.949 133.54 274.783 129.406C270.618 125.273 265.605 123.203 259.753 123.203H241.865C236.139 123.203 231.21 125.266 227.073 129.406C222.935 133.54 220.863 138.527 220.863 144.374C220.863 150.221 222.935 155.033 227.073 159.202C231.21 163.363 236.146 165.447 241.865 165.447H259.753C265.416 165.447 270.205 167.406 274.125 171.323C278.046 175.239 280.006 180.023 280.006 185.682V226.898C280.006 232.62 282.092 237.544 286.258 241.677C290.43 245.811 295.373 247.881 301.1 247.881C306.826 247.881 311.944 245.811 316.081 241.677C320.219 237.544 322.291 232.613 322.291 226.898V185.682C322.291 179.835 320.226 174.834 316.081 170.665L316.088 170.672Z" stroke="#BABB15"/>
<path d="M317.622 0H317.902C320.527 0 322.809 1.78352 323.453 4.32241L341.201 50.1413C343.679 60.0381 352.654 67.1512 363.183 67.1512H387.952C398.481 67.1512 407.457 60.0381 409.935 50.1413L427.983 4.30842C428.627 1.77652 430.909 0 433.528 0C437.245 0 439.976 3.4901 439.079 7.0921L410.25 98.4012C407.772 108.606 398.481 115.726 388.267 115.726H363.19C352.661 115.726 343.686 108.613 341.208 98.4012L312.077 7.10609C311.174 3.49709 313.904 0 317.629 0H317.622Z" stroke="#BABB15"/>
<path d="M450.141 117.747C464.161 117.747 475.526 106.393 475.526 92.3862C475.526 78.3798 464.161 67.0253 450.141 67.0253C436.121 67.0253 424.756 78.3798 424.756 92.3862C424.756 106.393 436.121 117.747 450.141 117.747Z" stroke="#BABB15"/>
<path d="M316.285 160.691L289.534 135.072C287.903 133.505 287.385 131.106 288.225 129.001C289.065 126.896 291.095 125.518 293.357 125.518H467.706C471.78 125.518 475.078 128.826 475.078 132.911C475.078 136.995 471.773 140.303 467.706 140.303H364.051C361.79 140.303 359.76 141.681 358.92 143.786C358.08 145.892 358.598 148.291 360.229 149.857L362.504 152.04C369.365 158.607 378.487 162.279 387.973 162.272H439.128C441.39 162.272 443.42 163.65 444.26 165.755C445.1 167.86 444.582 170.266 442.944 171.826C442.104 172.637 441.831 173.875 442.265 174.96C442.699 176.044 443.749 176.757 444.911 176.757H487.469C489.731 176.757 491.761 178.135 492.601 180.24C493.441 182.345 492.923 184.744 491.292 186.311L452.577 235.277C445.716 241.845 436.594 245.517 427.108 245.517H397.907C395.646 245.517 393.616 244.139 392.776 242.034C391.936 239.929 392.454 237.53 394.085 235.963L425.477 196.418C426.317 195.613 426.583 194.382 426.156 193.298C425.722 192.221 424.679 191.515 423.524 191.515C422.795 191.515 422.088 191.795 421.563 192.305L386.566 235.291C379.705 241.859 370.583 245.517 361.104 245.517H334.417C332.155 245.517 330.125 244.139 329.285 242.034C328.445 239.929 328.963 237.53 330.601 235.963L378.627 180.506C380.265 178.939 380.783 176.533 379.943 174.435C379.103 172.33 377.066 170.952 374.812 170.952H341.761C332.267 170.945 323.145 167.266 316.292 160.684L316.285 160.691Z" stroke="#BABB15"/>
</g>
<defs>
<clipPath id="clip0_99_162">
<rect width="493" height="249" fill="white"/>
</clipPath>
</defs>
</svg>
