<svg width="70" height="70" viewBox="0 0 70 70" fill="none" xmlns="http://www.w3.org/2000/svg">
<path d="M69.2357 60.382V38.7214C69.2357 36.749 68.0211 35.2554 66.4655 35.2554C64.91 35.2554 63.6314 36.749 63.6314 38.7214V54.2933C63.2478 53.0641 61.9551 52.2065 60.3214 52.2065C59.0358 52.2065 58.1621 50.9845 58.1621 49.3551C58.1621 47.7258 56.6776 46.5037 54.7171 46.5037C53.4315 46.5037 52.5578 45.2817 52.5578 43.7167C52.5578 42.1516 51.0733 40.8653 49.1128 40.8653C47.8343 40.8653 46.8825 39.6432 46.8825 38.0782C46.8825 36.5131 45.398 35.2911 43.4375 35.2911H39.0479C38.9698 35.2911 38.8916 35.3054 38.8135 35.3125C38.6501 35.2768 38.4797 35.2554 38.3092 35.2554C36.6897 35.2554 35.4751 36.749 35.4751 38.7214V43.2021C35.4751 43.5237 35.5319 43.831 35.6029 44.124V65.7846C35.6029 67.757 36.8175 69.2506 38.3731 69.2506C39.9287 69.2506 41.2072 67.757 41.2072 65.7846V50.2127C41.5908 51.4419 42.8835 52.2994 44.5172 52.2994C45.8029 52.2994 46.6765 53.5215 46.6765 55.1508C46.6765 56.7802 48.1611 58.0022 50.1215 58.0022C51.4072 58.0022 52.2808 59.2242 52.2808 60.7893C52.2808 62.3544 53.7653 63.6407 55.7257 63.6407C57.0114 63.6407 57.9561 64.8627 57.9561 66.4278C57.9561 67.9928 59.4407 69.2148 61.4011 69.2148H65.7907C65.8689 69.2148 65.947 69.2006 66.0251 69.1934C66.1885 69.2291 66.359 69.2506 66.5294 69.2506C68.1489 69.2506 69.3635 67.757 69.3635 65.7846V61.3038C69.3635 60.9822 69.3067 60.675 69.2357 60.382ZM60.8684 63.5764C59.2489 63.5764 58.0342 62.3543 58.0342 60.725C58.0342 59.0956 56.5497 57.9379 54.5893 57.9379C53.3036 57.9379 52.3589 56.7159 52.3589 55.0865C52.3589 53.4571 50.8744 52.2351 48.914 52.2351C47.6283 52.2351 46.7547 51.0131 46.7547 49.3837C46.7547 47.7543 45.2701 46.5966 43.3097 46.5966C42.2513 46.5966 41.4771 45.5676 41.2356 44.1026C41.3493 42.2802 42.5071 40.9296 43.9774 40.9296C45.5969 40.9296 46.8115 42.1516 46.8115 43.781C46.8115 45.4103 48.296 46.5681 50.2565 46.5681C51.5421 46.5681 52.4868 47.7901 52.4868 49.4194C52.4868 51.0488 53.9713 52.2708 55.9318 52.2708C57.2174 52.2708 58.0911 53.4929 58.0911 55.1222C58.0911 56.7516 59.5756 57.9093 61.5361 57.9093C62.5944 57.9093 63.3686 58.9384 63.6101 60.4034C63.4965 62.2257 62.3387 63.5764 60.8684 63.5764Z" fill="#E8E6E7"/>
<path d="M30.6804 35.5913H3.81684C1.85641 35.5913 0.371856 36.8133 0.371856 38.3783C0.371856 39.9434 1.85641 41.2297 3.81684 41.2297H25.0762C27.0366 41.2297 28.5211 42.4518 28.5211 44.0168C28.5211 45.5819 27.3065 46.8682 25.687 46.8682C24.0675 46.8682 22.9168 48.3618 22.9168 50.3342C22.9168 51.6277 21.7022 52.5781 20.0827 52.5781C18.4632 52.5781 17.2486 54.0717 17.2486 56.0441C17.2486 57.3376 16.034 58.2166 14.4145 58.2166C12.795 58.2166 11.6443 59.7102 11.6443 61.6826C11.6443 62.9761 10.1598 63.8551 8.19939 63.8551H3.80973C1.8493 63.8551 0.364746 65.0771 0.364746 66.7065C0.364746 68.3358 1.8493 69.5579 3.80973 69.5579H8.26333C10.2238 69.5579 11.7083 68.0643 11.7083 66.0919C11.7083 64.7984 12.9229 63.9194 14.4785 63.9194C16.034 63.9194 17.3126 62.4258 17.3126 60.4534C17.3126 59.1599 18.5272 58.2809 20.1467 58.2809C21.7661 58.2809 22.9808 56.7873 22.9808 54.8149C22.9808 53.5215 24.1954 52.6425 25.7509 52.6425C27.3065 52.6425 28.585 51.1489 28.585 49.1765C28.585 47.8901 29.7996 46.9325 31.3552 46.9325C32.9107 46.9325 34.1254 45.4389 34.1254 43.4665V39.0501C34.1254 37.0777 32.6409 35.5841 30.6804 35.5841V35.5913Z" fill="#E8E6E7"/>
<path d="M38.6857 34.0977H65.5492C67.5097 34.0977 68.9942 32.8757 68.9942 31.3106C68.9942 29.7456 67.5097 28.4593 65.5492 28.4593H44.2899C42.3295 28.4593 40.845 27.2372 40.845 25.6722C40.845 24.1071 42.0596 22.8208 43.6791 22.8208C45.2986 22.8208 46.4492 21.3272 46.4492 19.3548C46.4492 18.0613 47.6639 17.1108 49.2834 17.1108C50.9029 17.1108 52.1175 15.6173 52.1175 13.6449C52.1175 12.3514 53.3321 11.4724 54.9516 11.4724C56.5711 11.4724 57.7217 9.97878 57.7217 8.00639C57.7217 6.7129 59.2063 5.83389 61.1667 5.83389H65.5564C67.5168 5.83389 69.0013 4.61187 69.0013 2.9825C69.0013 1.35313 67.5168 0.131104 65.5564 0.131104H61.1028C59.1423 0.131104 57.6578 1.62469 57.6578 3.59709C57.6578 4.89058 56.4432 5.76958 54.8876 5.76958C53.3321 5.76958 52.0535 7.26316 52.0535 9.23556C52.0535 10.529 50.8389 11.4081 49.2194 11.4081C47.6 11.4081 46.3853 12.9016 46.3853 14.874C46.3853 16.1675 45.1707 17.0465 43.6152 17.0465C42.0596 17.0465 40.7811 18.5401 40.7811 20.5125C40.7811 21.7988 39.5664 22.7565 38.0109 22.7565C36.4553 22.7565 35.2407 24.2501 35.2407 26.2224V30.6389C35.2407 32.6113 36.7252 34.1049 38.6857 34.1049V34.0977Z" fill="#E8E6E7"/>
<path d="M24.7707 28.4737H3.51142C1.55099 28.4737 0.0664361 29.6957 0.0664361 31.3251C0.0664361 32.9545 1.55099 34.1122 3.51142 34.1122H30.375C32.3354 34.1122 33.82 32.6186 33.82 30.6462V26.2298C33.82 24.2574 32.6053 22.7638 31.0498 22.7638C29.4942 22.7638 28.2796 21.8133 28.2796 20.5198C28.2796 18.5474 27.065 17.0538 25.4455 17.0538C23.826 17.0538 22.6753 16.1677 22.6753 14.8814C22.6753 12.909 21.4607 11.4154 19.8412 11.4154C18.2218 11.4154 17.0071 10.5292 17.0071 9.24288C17.0071 7.27049 15.7925 5.7769 14.173 5.7769C12.5535 5.7769 11.4029 4.89075 11.4029 3.60441C11.4029 1.63202 9.9183 0.138428 7.95787 0.138428H3.50431C1.54388 0.138428 0.0593262 1.36045 0.0593262 2.98982C0.0593262 4.61919 1.54388 5.84122 3.50431 5.84122H7.89397C9.8544 5.84122 11.3389 6.72737 11.3389 8.01371C11.3389 9.9861 12.4896 11.4797 14.1091 11.4797C15.7286 11.4797 16.9432 12.3658 16.9432 13.6522C16.9432 15.6246 18.1578 17.1182 19.7773 17.1182C21.3968 17.1182 22.6114 18.0686 22.6114 19.3621C22.6114 21.3345 23.7621 22.8281 25.3816 22.8281C27.0011 22.8281 28.2157 24.0501 28.2157 25.6795C28.2157 27.3089 26.7312 28.4666 24.7707 28.4666V28.4737Z" fill="#E8E6E7"/>
</svg>
