<?xml version="1.0" encoding="UTF-8" standalone="no"?>
<!DOCTYPE svg PUBLIC "-//W3C//DTD SVG 1.1//EN" "http://www.w3.org/Graphics/SVG/1.1/DTD/svg11.dtd">
<svg width="100%" height="100%" viewBox="0 0 138 128" version="1.1" xmlns="http://www.w3.org/2000/svg" xmlns:xlink="http://www.w3.org/1999/xlink" xml:space="preserve" xmlns:serif="http://www.serif.com/" style="fill-rule:evenodd;clip-rule:evenodd;stroke-linejoin:round;stroke-miterlimit:2;">
    <g transform="matrix(1,0,0,1,-3160.84,-1142.46)">
        <g transform="matrix(1,0,0,1,2160,0)">
            <g transform="matrix(1,0,0,1,1068.7,1170.01)">
                <path d="M0,13.749C1.646,11.69 2.47,9.372 2.47,6.797C2.47,3.742 3.623,1.133 5.928,-1.03C8.233,-3.193 11.05,-4.274 14.38,-4.274L34.908,-4.274C32.347,-3.519 30.252,-2.119 28.624,-0.077C26.995,1.965 26.182,4.257 26.182,6.797C26.182,9.921 25.029,12.565 22.723,14.728C20.418,16.891 17.637,17.971 14.38,17.971L-6.312,17.971C-3.751,17.217 -1.646,15.809 0,13.749M-22.394,29.609C-22.394,32.837 -21.178,35.592 -18.744,37.874C-16.311,40.158 -13.375,41.299 -9.934,41.299L14.38,41.299C17.747,41.299 20.646,40.158 23.081,37.874C25.514,35.592 26.731,32.837 26.731,29.609C26.731,26.554 27.883,23.945 30.188,21.782C32.494,19.619 35.311,18.539 38.641,18.539C42.007,18.539 44.907,17.389 47.341,15.087C49.774,12.788 50.991,10.025 50.991,6.797C50.991,4.085 50.066,1.657 48.219,-0.49C46.371,-2.634 44.038,-3.999 41.221,-4.584C44.038,-5.099 46.371,-6.428 48.219,-8.575C50.066,-10.719 50.991,-13.184 50.991,-15.964C50.991,-19.123 49.774,-21.842 47.341,-24.126C44.907,-26.408 42.007,-27.55 38.641,-27.55L14.38,-27.55C10.941,-27.55 7.995,-26.408 5.543,-24.126C3.092,-21.842 1.866,-19.123 1.866,-15.964C1.866,-12.839 0.714,-10.196 -1.592,-8.033C-3.897,-5.872 -6.678,-4.789 -9.934,-4.789C-13.375,-4.789 -16.311,-3.647 -18.744,-1.365C-21.178,0.919 -22.394,3.64 -22.394,6.797C-22.394,9.577 -21.471,12.041 -19.622,14.187C-17.775,16.333 -15.442,17.662 -12.625,18.177C-15.442,18.761 -17.775,20.134 -19.622,22.297C-21.471,24.46 -22.394,26.898 -22.394,29.609" style="fill:rgb(254,254,254);fill-rule:nonzero;"/>
            </g>
        </g>
        <g transform="matrix(1,0,0,1,2160,0)">
            <g transform="matrix(1,0,0,1,1094.22,1243.38)">
                <path d="M0,-17.797L13.084,-17.797C18.599,-17.798 23.901,-19.922 27.89,-23.731L43.452,-38.595C44.401,-39.503 44.703,-40.899 44.214,-42.117C43.725,-43.338 42.544,-44.137 41.23,-44.138L25.704,-44.138C20.185,-44.138 14.878,-42.011 10.888,-38.198L1.021,-28.76C-2.969,-24.947 -8.276,-22.82 -13.795,-22.821L-35.123,-22.821C-40.646,-22.82 -45.958,-24.949 -49.949,-28.767L-59.817,-38.205C-63.808,-42.018 -69.115,-44.145 -74.635,-44.145L-90.16,-44.145C-91.474,-44.144 -92.656,-43.344 -93.145,-42.124C-93.634,-40.905 -93.332,-39.51 -92.382,-38.602L-76.82,-23.737C-72.83,-19.925 -67.523,-17.797 -62.004,-17.797L-48.92,-17.797C-47.605,-17.797 -46.422,-16.998 -45.933,-15.776C-45.444,-14.556 -45.746,-13.16 -46.698,-12.252L-81.317,20.803C-82.267,21.711 -82.571,23.106 -82.081,24.327C-81.592,25.548 -80.409,26.348 -79.094,26.348L-63.584,26.348C-58.066,26.348 -52.76,24.222 -48.77,20.412L-26.687,-0.674C-25.443,-1.861 -23.486,-1.861 -22.242,-0.674L-0.159,20.412C3.832,24.222 9.137,26.348 14.655,26.348L30.176,26.348C31.491,26.348 32.674,25.548 33.164,24.327C33.652,23.106 33.349,21.711 32.398,20.803L-2.22,-12.252C-3.171,-13.16 -3.474,-14.554 -2.985,-15.776C-2.497,-16.996 -1.315,-17.797 0,-17.797" style="fill:rgb(254,254,254);fill-rule:nonzero;"/>
            </g>
        </g>
    </g>
</svg>
