<svg width="75" height="74" viewBox="0 0 75 74" fill="none" xmlns="http://www.w3.org/2000/svg">
<path d="M67.0048 59.0865H52.9338C51.0018 59.0865 49.368 58.4147 48.0327 57.0712C46.6973 55.7277 46.0296 54.1054 46.0296 52.2045C46.0296 50.3036 46.6973 48.617 48.0327 47.2735C49.368 45.93 51.0018 45.2583 52.9338 45.2583H67.0048C68.9582 45.2583 70.6416 44.5436 72.048 43.1144C73.4614 41.6851 74.1646 39.9843 74.1646 38.0262C74.1646 36.0681 73.4614 34.3029 72.048 32.8879C70.6345 31.4729 68.9582 30.7583 67.0048 30.7583H52.9338C50.9378 30.7583 49.2331 31.4658 47.8125 32.8879C46.3919 34.31 45.6816 36.018 45.6816 38.0262C45.6816 39.9271 45.0139 41.5493 43.6785 42.8928C42.3432 44.2363 40.7308 44.9081 38.8414 44.9081C38.3371 44.9081 37.8612 44.951 37.3924 45.0439C36.9023 44.9438 36.398 44.8938 35.8723 44.8938C33.9829 44.8938 32.3706 44.222 31.0352 42.8785C29.6998 41.535 29.0321 39.8914 29.0321 37.9475C29.0321 36.0037 28.3218 34.2886 26.9012 32.8736C25.4806 31.4515 23.7688 30.744 21.78 30.744H7.70889C5.75557 30.744 4.07217 31.4515 2.66578 32.8736C1.25228 34.2958 0.549072 35.9823 0.549072 37.9475C0.549072 39.9128 1.25228 41.6708 2.66578 43.0858C4.07928 44.5007 5.75557 45.2154 7.70889 45.2154H21.78C23.712 45.2154 25.3457 45.8871 26.681 47.2307C28.0164 48.5742 28.6841 50.1964 28.6841 52.0973C28.6841 53.9983 28.0164 55.6848 26.681 57.0283C25.3457 58.3718 23.712 59.0436 21.78 59.0436H7.70889C5.75557 59.0436 4.07217 59.7582 2.66578 61.1875C1.25228 62.6168 0.549072 64.3176 0.549072 66.2757C0.549072 68.2338 1.25228 69.9989 2.66578 71.4139C4.07928 72.8289 5.75557 73.5435 7.70889 73.5435H21.78C23.7759 73.5435 25.4806 72.836 26.9012 71.4139C28.3218 69.9918 29.0321 68.2838 29.0321 66.2757C29.0321 64.3748 29.6998 62.7525 31.0352 61.409C32.3706 60.0655 33.9829 59.3937 35.8723 59.3937C36.3767 59.3937 36.8525 59.3509 37.3213 59.258C37.8114 59.358 38.3158 59.408 38.8414 59.408C40.7308 59.408 42.3432 60.0798 43.6785 61.4233C45.0139 62.7668 45.6816 64.4105 45.6816 66.3543C45.6816 68.2981 46.3919 70.0132 47.8125 71.4282C49.2331 72.8503 50.9449 73.5578 52.9338 73.5578H67.0048C68.9582 73.5578 70.6416 72.8503 72.048 71.4282C73.4614 70.0061 74.1646 68.3195 74.1646 66.3543C74.1646 64.3891 73.4614 62.631 72.048 61.2161C70.6345 59.8011 68.9582 59.0865 67.0048 59.0865Z" fill="#E8E6E7"/>
<path d="M23.0941 29.3148C24.9835 29.3148 26.5959 29.9866 27.9313 31.3301C29.2666 32.6736 29.9343 34.2958 29.9343 36.1968C29.9343 38.2049 30.6446 39.92 32.0652 41.335C33.4858 42.7571 35.1976 43.4646 37.1865 43.4646C39.1753 43.4646 40.8232 42.7571 42.2296 41.335C43.6431 39.9129 44.3463 38.2049 44.3463 36.1968C44.3463 34.2958 45.014 32.6736 46.3494 31.3301C47.6847 29.9866 49.3184 29.3148 51.2504 29.3148C53.1825 29.3148 54.8872 28.6002 56.2936 27.1709C57.7071 25.7417 58.4103 24.0194 58.4103 22.0184V7.86148C58.4103 5.89624 57.7071 4.20255 56.2936 2.78757C54.8801 1.36545 53.2038 0.657959 51.2504 0.657959C49.2971 0.657959 47.5498 1.36545 46.1434 2.78757C44.737 4.2097 44.0267 5.89624 44.0267 7.86148V22.0184C44.0267 23.9622 43.359 25.6059 42.0236 26.9494C40.6883 28.2929 39.0759 28.9647 37.1865 28.9647C35.2971 28.9647 33.6208 28.2929 32.2854 26.9494C30.95 25.6059 30.2824 23.9622 30.2824 22.0184V7.86148C30.2824 5.89624 29.5721 4.20255 28.1515 2.78757C26.7309 1.36545 25.0403 0.657959 23.0941 0.657959C21.1479 0.657959 19.3934 1.36545 17.987 2.78757C16.5806 4.2097 15.8704 5.89624 15.8704 7.86148V22.0184C15.8704 24.0265 16.5735 25.7417 17.987 27.1709C19.4005 28.6002 21.0982 29.3148 23.0941 29.3148Z" fill="#E8E6E7"/>
</svg>
