<?xml version="1.0" encoding="UTF-8" standalone="no"?>
<!DOCTYPE svg PUBLIC "-//W3C//DTD SVG 1.1//EN" "http://www.w3.org/Graphics/SVG/1.1/DTD/svg11.dtd">
<svg width="100%" height="100%" viewBox="0 0 172 142" version="1.1" xmlns="http://www.w3.org/2000/svg" xmlns:xlink="http://www.w3.org/1999/xlink" xml:space="preserve" xmlns:serif="http://www.serif.com/" style="fill-rule:evenodd;clip-rule:evenodd;stroke-linejoin:round;stroke-miterlimit:2;">
    <g transform="matrix(1,0,0,1,-2206.19,-1122.54)">
        <g transform="matrix(1,0,0,1,2160,0)">
            <g transform="matrix(1,0,0,1,113.49,1131.4)">
                <path d="M0,65.669C1.266,70.89 5.855,74.53 11.235,74.53L24.052,74.53C29.274,74.53 34.021,70.89 35.287,65.669L52.899,-5.232C53.357,-7.077 51.962,-8.861 50.062,-8.861C48.724,-8.861 47.557,-7.953 47.228,-6.657L35.129,40.984C33.863,46.047 29.274,49.687 23.894,49.687L11.235,49.687C5.855,49.687 1.266,46.047 0,40.984L-11.946,-6.648C-12.272,-7.949 -13.441,-8.861 -14.782,-8.861L-14.925,-8.861C-16.828,-8.861 -18.224,-7.072 -17.761,-5.227L0,65.669Z" style="fill:rgb(145,153,45);fill-rule:nonzero;"/>
            </g>
        </g>
        <g transform="matrix(1,0,0,1,2160,0)">
            <g transform="matrix(1,0,0,1,168.062,1245.29)">
                <path d="M0,-35.128L49.845,-47.628L49.845,-53.8L-24.685,-35.128C-29.907,-33.862 -33.546,-29.274 -33.546,-23.893L-33.546,-11.076C-33.546,-5.855 -29.907,-1.107 -24.685,0.159L49.845,18.672L49.845,12.659L0,0C-5.064,-1.265 -8.703,-5.855 -8.703,-11.234L-8.703,-23.893C-8.703,-29.274 -5.064,-33.862 0,-35.128" style="fill:rgb(145,153,45);fill-rule:nonzero;"/>
            </g>
        </g>
        <g transform="matrix(1,0,0,1,2160,0)">
            <g transform="matrix(1,0,0,1,120.72,1245.45)">
                <path d="M0,-35.445L-74.53,-53.959L-74.53,-47.945L-24.685,-35.287C-19.622,-34.021 -15.982,-29.432 -15.982,-24.052L-15.982,-11.393C-15.982,-6.013 -19.622,-1.424 -24.685,-0.158L-74.53,12.343L-74.53,18.514L0,-0.158C5.222,-1.424 8.861,-6.013 8.861,-11.393L8.861,-24.21C8.861,-29.432 5.222,-34.179 0,-35.445" style="fill:rgb(145,153,45);fill-rule:nonzero;"/>
            </g>
        </g>
    </g>
</svg>
