<svg width="67" height="80" viewBox="0 0 67 80" fill="none" xmlns="http://www.w3.org/2000/svg">
<path d="M17.4194 31.906C18.2149 35.2148 21.1058 37.5159 24.4939 37.5159H32.563C35.8516 37.5159 38.8349 35.2076 39.6376 31.906L48.9141 2.32725C49.2053 1.16239 48.3245 0.026123 47.1312 0.026123C46.286 0.026123 45.5544 0.597831 45.3484 1.41966L39.5452 16.2698C38.7497 19.4785 35.8587 21.7796 32.4706 21.7796H24.5011C21.1129 21.7796 18.2291 19.4785 17.4265 16.2698L11.7156 1.42681C11.5097 0.604978 10.778 0.026123 9.93279 0.026123H9.84044C8.64004 0.026123 7.76636 1.15525 8.05758 2.32725L17.4265 31.8989L17.4194 31.906Z" fill="#E8E6E7"/>
<path d="M44.2971 29.6048C44.1053 34.1356 47.6 37.9732 52.1104 38.1662C56.6137 38.3591 60.428 34.8431 60.6198 30.3123C60.8116 25.7815 57.3169 21.9439 52.8065 21.751C48.3032 21.558 44.4889 25.074 44.2971 29.6048Z" fill="#E8E6E7"/>
<path d="M66.1179 58.4189C65.848 57.74 65.1945 57.2898 64.47 57.2898H50.7825C50.406 57.2898 50.0722 57.0611 49.9301 56.7038C49.7881 56.3537 49.8804 55.9535 50.1503 55.689C50.6759 55.1816 50.8464 54.4027 50.5765 53.7238C50.3066 53.0449 49.6531 52.5947 48.9215 52.5947H32.4639C29.4096 52.5947 26.476 51.4084 24.2741 49.2788L23.5425 48.5713C23.0169 48.0639 22.8535 47.2849 23.1234 46.606C23.3933 45.9271 24.0468 45.4769 24.7713 45.4769H58.1128C59.4198 45.4769 60.4852 44.4049 60.4852 43.0829C60.4852 41.7608 59.4198 40.6888 58.1128 40.6888H2.03454C1.31003 40.6888 0.656551 41.1391 0.386637 41.818C0.116722 42.4969 0.280111 43.2758 0.805733 43.7832L9.40747 52.0801C11.6094 54.2097 14.5501 55.4032 17.5973 55.4032H28.2304C28.955 55.4032 29.6084 55.8463 29.8855 56.5323C30.1554 57.2112 29.992 57.9902 29.4593 58.4976L14.0102 76.4635C13.4846 76.9709 13.3141 77.7498 13.584 78.4287C13.854 79.1076 14.5074 79.5579 15.2319 79.5579H23.8195C26.8667 79.5579 29.8002 78.3716 32.0093 76.242L43.2675 62.3209C43.438 62.1565 43.6653 62.0636 43.8997 62.0636C44.2761 62.0636 44.61 62.2923 44.7449 62.6424C44.887 62.9926 44.7947 63.3928 44.5247 63.6501L34.4314 76.4635C33.9057 76.9709 33.7424 77.7498 34.0123 78.4287C34.2822 79.1076 34.9357 79.5579 35.6602 79.5579H45.0504C48.1047 79.5579 51.0382 78.3716 53.2402 76.242L65.6917 60.377C66.2173 59.8697 66.3807 59.0907 66.1108 58.4118L66.1179 58.4189Z" fill="#E8E6E7"/>
</svg>
