<svg width="66" height="76" viewBox="0 0 66 76" fill="none" xmlns="http://www.w3.org/2000/svg">
<path d="M40.673 37.0677L49.3103 29.5498C51.0363 28.0276 51.7892 26.3982 51.7892 24.0113V20.6597C51.7892 18.6301 53.6289 16.9007 55.9374 16.9007H63.8856V11.3123H60.7177C58.4732 11.3123 57.0881 11.9197 55.4757 13.499L47.3569 21.6244C45.7446 23.1966 44.878 24.776 44.878 27.1629V30.0071C44.878 32.0367 42.9176 33.666 40.6162 33.666H26.6872C24.3858 33.666 22.4254 32.0438 22.4254 30.0071V24.9261C22.4254 22.3748 20.3726 20.3095 17.8368 20.3095H15.5212V24.0185C15.5212 26.4054 16.2671 28.0347 17.9931 29.5569L26.5167 37.0749C28.2427 38.597 30.2032 39.2616 32.7887 39.2616H34.6283C37.2209 39.2616 38.947 38.6042 40.673 37.0749V37.0677Z" fill="#BABB15"/>
<path d="M44.4591 38.9829H65.6474V32.8871H51.2567C48.5504 32.8871 46.7108 33.5446 44.9847 35.0739L36.4682 42.5918C34.7422 44.114 33.9893 45.8434 33.9893 48.1303V49.7525C33.9893 52.0393 34.7351 53.5615 36.4682 55.0837L44.9847 62.7017C46.7108 64.2239 48.5575 64.8885 51.2567 64.8885H55.0568C57.3582 64.8885 59.3186 66.5107 59.3186 68.5474V75.558H65.6545V72.7637C65.6545 70.7842 64.9655 69.5622 63.1826 68.1401L53.97 60.9794C52.1872 59.5573 50.4043 58.7926 47.6981 58.7926H44.4733C42.1719 58.7926 40.3251 57.0632 40.3251 55.0336V42.7419C40.3251 40.7123 42.1648 38.9829 44.4733 38.9829H44.4591Z" fill="#BABB15"/>
<path d="M30.0044 41.7842L21.4879 34.2663C19.7618 32.7441 17.915 32.0795 15.2159 32.0795H0.825195V38.1753H22.0135C24.3149 38.1753 26.1616 39.9047 26.1616 41.9343V54.226C26.1616 56.2556 24.322 57.985 22.0135 57.985H18.7887C16.0825 57.985 14.2996 58.7497 12.5168 60.1718L3.30416 67.3324C1.52131 68.7546 0.832305 69.9766 0.832305 71.9561V74.7503H7.16109V67.7398C7.16109 65.7102 9.12152 64.0808 11.4229 64.0808H15.223C17.9293 64.0808 19.7689 63.4234 21.495 61.8941L30.0115 54.276C31.7375 52.7539 32.4904 51.2246 32.4904 48.9449V47.3226C32.4904 45.0358 31.7446 43.3064 30.0115 41.7842H30.0044Z" fill="#BABB15"/>
<path d="M25.2027 19.4018C26.8932 19.4018 28.4345 18.5228 29.6633 17.5009L30.2032 18.044C28.74 19.266 27.7384 20.9597 27.8947 22.6605C28.2001 25.8478 30.3594 27.4129 34.0459 27.4129C37.7324 27.4129 39.8917 25.855 40.2752 22.6605C40.4315 20.9597 39.43 19.266 38.0449 18.044L38.5066 17.5009C39.7354 18.5157 41.2768 19.4018 42.8891 19.4018C46.2773 19.4018 47.8115 16.7577 47.8115 14.1064C47.8115 11.4551 46.2702 8.74659 42.8891 8.74659C41.2768 8.74659 39.7354 9.62559 38.5066 10.5761L38.0449 10.0329C39.43 8.88237 40.5096 7.18154 40.2752 5.41639C39.9698 2.29343 37.8105 0.664062 34.0459 0.664062C30.2813 0.664062 28.2001 2.29343 27.8947 5.41639C27.7384 7.18154 28.74 8.88237 30.2032 10.0329L29.6633 10.5761C28.4345 9.62559 26.8932 8.67513 25.2808 8.67513C21.8216 8.67513 20.2803 11.3193 20.2803 14.1064C20.2803 16.8934 21.8927 19.4018 25.2027 19.4018Z" fill="#BABB15"/>
</svg>
