<svg width="60" height="55" viewBox="0 0 60 55" fill="none" xmlns="http://www.w3.org/2000/svg">
<path d="M1.39062 24.7705H8.10059C10.2847 24.7705 12.3909 25.5591 14.0332 26.9805L14.3555 27.2734L18.6279 31.3535C20.4028 33.0458 22.7595 33.9892 25.209 33.9893H34.4434C36.8928 33.9892 39.2489 33.0455 41.0195 31.3574L45.293 27.2773L45.292 27.2764C46.9758 25.6712 49.2174 24.7745 51.5469 24.7744H58.2705C58.7421 24.7745 59.168 25.0626 59.3447 25.502C59.5209 25.9406 59.4127 26.4402 59.0703 26.7676L52.335 33.1895C50.6509 34.7908 48.4094 35.6885 46.084 35.6885H40.3662L40.3516 35.6953C39.7102 35.7192 39.1424 36.1154 38.9023 36.7119L38.9014 36.7139C38.6742 37.2905 38.7936 37.9429 39.2051 38.4004L39.291 38.4893L54.2783 52.7744L54.2803 52.7754C54.6246 53.0977 54.7333 53.6008 54.5566 54.04C54.3801 54.4789 53.9548 54.7664 53.4785 54.7666H46.7598C44.4344 54.7666 42.1928 53.8691 40.5088 52.2637L30.9502 43.1484C30.3233 42.5482 29.3329 42.548 28.7061 43.1484L19.1475 52.2637C17.4635 53.8691 15.227 54.7666 12.8975 54.7666H6.18262C5.70632 54.7665 5.28104 54.4789 5.10449 54.04C4.92808 53.6015 5.03591 53.102 5.37793 52.7744L20.3691 38.4844C20.8503 38.0288 21.0013 37.3229 20.7539 36.708C20.5063 36.0925 19.9104 35.6886 19.2441 35.6885H13.5811C11.2514 35.6884 9.01006 34.7909 7.32617 33.1855L0.59082 26.7627H0.589844C0.247892 26.4351 0.140019 25.9356 0.316406 25.4971L0.317383 25.4961C0.489554 25.0592 0.917805 24.7705 1.39062 24.7705ZM35.5986 9.8252C34.1015 9.82528 32.8277 10.3121 31.7822 11.2881H31.7812C30.7363 12.2682 30.21 13.4531 30.21 14.8428C30.2099 15.8991 29.8739 16.8505 29.1924 17.7002L29.0664 17.8574C28.4067 18.6249 27.5776 19.1548 26.5811 19.4463L26.6465 19.9033H35.6035C37.0676 19.9033 38.3286 19.4155 39.373 18.4404C40.4198 17.4632 40.9443 16.2563 40.9443 14.8428C40.9443 13.7992 41.2768 12.86 41.9502 12.0186V12.0176C42.6203 11.171 43.4883 10.5968 44.5527 10.2812L44.4863 9.8252H35.5986ZM19.9102 24.6045L19.9072 24.6016C19.9282 23.5266 20.3045 22.5572 21.0488 21.6895C21.8159 20.7953 22.7783 20.2257 23.9482 19.9854L23.9443 19.5273C22.7745 19.312 21.8132 18.7679 21.0479 17.8799C20.2828 16.9921 19.9053 15.9824 19.9053 14.8379C19.9053 13.5408 20.4041 12.4257 21.4121 11.4814C22.4192 10.538 23.6342 10.0664 25.0664 10.0664C26.5305 10.0664 27.7914 9.57766 28.8359 8.60254C29.8822 7.62562 30.4082 6.43619 30.4082 5.00488C30.4083 3.70844 30.9103 2.5929 31.9268 1.64844C32.9428 0.704614 34.1626 0.233398 35.5947 0.233398H46.0967C47.4972 0.233398 48.6959 0.703976 49.7041 1.64844C50.712 2.59268 51.2099 3.70783 51.21 5.00488C51.21 6.14982 50.8329 7.16383 50.0684 8.04688H50.0674C49.3021 8.93481 48.3416 9.47894 47.1719 9.69434L47.167 10.1523C48.3374 10.3927 49.3005 10.9575 50.0674 11.8428V11.8438C50.8335 12.7327 51.21 13.7298 51.21 14.8428C51.2099 16.1716 50.7106 17.3038 49.7031 18.2559C48.6951 19.2084 47.4797 19.6836 46.0967 19.6836C44.5996 19.6837 43.3256 20.1707 42.2803 21.1465L42.2793 21.1475C41.2346 22.1274 40.7081 23.3117 40.708 24.7012C40.708 26.0303 40.2079 27.1623 39.2012 28.1055C38.193 29.0498 36.9952 29.5205 35.5947 29.5205H25.0703C23.6382 29.5204 22.4231 29.0489 21.416 28.1055H21.415C20.4084 27.1579 19.9102 26.0296 19.9102 24.7012V24.6045Z" stroke="#61623B" stroke-width="0.466102"/>
</svg>
