<svg width="97" height="73" viewBox="0 0 97 73" fill="none" xmlns="http://www.w3.org/2000/svg">
<path d="M38.0969 38.4808C38.7984 41.1399 41.3478 42.9958 44.3271 42.9958H51.4399C54.3362 42.9958 56.9686 41.1399 57.6701 38.4808L67.4378 2.36773C67.6942 1.42595 66.9173 0.518799 65.8614 0.518799C65.1222 0.518799 64.4735 0.982764 64.2925 1.64062L57.5796 25.9053C56.8781 28.4813 54.3287 30.3372 51.3493 30.3372H44.3271C41.3403 30.3372 38.7984 28.4813 38.0969 25.9053L31.467 1.64755C31.2859 0.982763 30.6373 0.518799 29.8905 0.518799H29.8076C28.7516 0.518799 27.9747 1.43288 28.2312 2.36773L38.0818 38.4738L38.0969 38.4808Z" fill="#BABB15"/>
<path d="M68.3733 45.1561L96.0246 38.7922V35.6483L54.6759 45.1561C51.7795 45.8001 49.7581 48.1407 49.7581 50.876V57.4062C49.7581 60.0653 51.7795 62.4821 54.6759 63.1261L96.0246 72.5577V69.4969L68.3733 63.0499C65.5674 62.4059 63.546 60.0653 63.546 57.33V50.883C63.546 48.1407 65.5674 45.8071 68.3733 45.163V45.1561Z" fill="#BABB15"/>
<path d="M42.1097 45.0732L0.760986 35.6416V38.7024L28.4123 45.1494C31.2182 45.7934 33.2396 48.134 33.2396 50.8693V57.3163C33.2396 60.0586 31.2182 62.3923 28.4123 63.0363L0.760986 69.414V72.5579L42.1097 63.0501C45.0061 62.4061 47.0275 60.0655 47.0275 57.3302V50.8001C47.0275 48.1409 45.0061 45.7242 42.1097 45.0802V45.0732Z" fill="#BABB15"/>
</svg>
