<svg width="73" height="68" viewBox="0 0 73 68" fill="none" xmlns="http://www.w3.org/2000/svg">
<path d="M24.6792 30.7041C24.6792 32.3978 25.3114 33.8485 26.5828 35.0491C27.8542 36.2497 29.3885 36.85 31.1855 36.85H43.8857C45.6473 36.85 47.1602 36.2497 48.4317 35.0491C49.7031 33.8485 50.3353 32.3978 50.3353 30.7041C50.3353 29.0962 50.939 27.7241 52.1394 26.5878C53.3469 25.4515 54.8173 24.8798 56.5575 24.8798C58.2977 24.8798 59.832 24.2724 61.1034 23.0647C62.3749 21.8569 63.007 20.4062 63.007 18.7054C63.007 17.2833 62.524 16.0041 61.558 14.8749C60.592 13.7458 59.3703 13.0312 57.9 12.7239C59.3703 12.4523 60.592 11.752 61.558 10.6229C62.524 9.49373 63.007 8.20024 63.007 6.74238C63.007 5.08443 62.3678 3.65516 61.1034 2.45457C59.832 1.25398 58.319 0.653687 56.5575 0.653687H43.8857C42.0887 0.653687 40.5473 1.25398 39.2688 2.45457C37.9902 3.65516 37.351 5.08443 37.351 6.74238C37.351 8.40033 36.7472 9.77243 35.5468 10.9087C34.3393 12.045 32.8903 12.6167 31.1855 12.6167C29.3885 12.6167 27.8542 13.217 26.5828 14.4176C25.3114 15.6181 24.6792 17.0474 24.6792 18.7054C24.6792 20.1632 25.1622 21.4639 26.1282 22.593C27.0942 23.7221 28.3088 24.4225 29.7863 24.6869C28.3159 24.9942 27.0942 25.7159 26.1282 26.8522C25.1622 27.9885 24.6792 29.2677 24.6792 30.697V30.7041ZM36.3779 22.3643C37.2373 21.2852 37.6706 20.0632 37.6706 18.7125C37.6706 17.1046 38.2744 15.7325 39.4748 14.5962C40.6823 13.46 42.1526 12.8882 43.8928 12.8882H54.6184C53.283 13.2884 52.1892 14.0174 51.3368 15.0965C50.4844 16.1684 50.0583 17.3762 50.0583 18.7125C50.0583 20.3562 49.4545 21.7426 48.2541 22.8788C47.0466 24.0151 45.5976 24.5868 43.8928 24.5868H33.0821C34.4174 24.1938 35.5184 23.4506 36.3779 22.3643Z" fill="#BABB15"/>
<path d="M49.7102 44.3465H56.5433C59.4272 44.3465 62.1973 43.2317 64.2785 41.2307L72.4115 33.4197C72.9087 32.9409 73.0649 32.212 72.8092 31.5688C72.5535 30.9257 71.9355 30.504 71.2537 30.504H63.142C60.2582 30.504 57.488 31.6189 55.3998 33.627L50.243 38.5866C48.1618 40.5875 45.3845 41.7095 42.5007 41.7095H31.3561C28.4722 41.7095 25.695 40.5875 23.6138 38.5866L18.457 33.627C16.3687 31.626 13.5986 30.504 10.7147 30.504H2.6031C1.91411 30.504 1.29615 30.9257 1.04044 31.5688C0.784731 32.212 0.940996 32.9409 1.43821 33.4197L9.57115 41.2307C11.6594 43.2317 14.4296 44.3537 17.3134 44.3537H24.1465C24.8355 44.3537 25.4535 44.7753 25.7092 45.4185C25.9649 46.0616 25.8086 46.7906 25.3114 47.2694L7.22715 64.6422C6.72994 65.121 6.57368 65.8499 6.82939 66.4931C7.08509 67.1362 7.70305 67.5579 8.39205 67.5579H16.4966C19.3804 67.5579 22.1506 66.443 24.2389 64.4349L35.7741 53.3509C36.4276 52.7292 37.4434 52.7292 38.0968 53.3509L49.6321 64.4349C51.7204 66.4359 54.4906 67.5579 57.3744 67.5579H65.486C66.175 67.5579 66.793 67.1362 67.0487 66.4931C67.3044 65.8499 67.1481 65.121 66.6509 64.6422L48.5667 47.2694C48.0694 46.7906 47.9132 46.0616 48.1689 45.4185C48.4246 44.7753 49.0426 44.3537 49.7315 44.3537L49.7102 44.3465Z" fill="#BABB15"/>
</svg>
