<svg width="71" height="58" viewBox="0 0 71 58" fill="none" xmlns="http://www.w3.org/2000/svg">
<path d="M30.4756 36.0625V36.0693L30.6641 36.1143C32.7047 36.6043 34.1278 38.4529 34.1279 40.4805V45.7383C34.1279 47.829 32.7073 49.6098 30.6641 50.1045L30.6621 50.1055L0.246094 57.6846V55.6611L20.6035 50.5781C22.7984 50.0343 24.3758 48.0539 24.376 45.7344V40.542C24.3759 38.2263 22.7979 36.2462 20.6035 35.6982H20.6045L0.246094 30.5537V28.5938L30.4756 36.0625ZM70.5342 30.6182L50.1758 35.6982C47.9811 36.2422 46.4034 38.2226 46.4033 40.542V45.7344C46.4035 48.0496 47.9811 50.0288 50.1748 50.5771V50.5781L70.5342 55.7217V57.6807L40.1172 50.166H40.1152C38.0747 49.6759 36.6515 47.8273 36.6514 45.7998V40.542C36.6515 38.4512 38.0729 36.6704 40.1162 36.1758L40.1172 36.1748L70.5342 28.5938V30.6182ZM21.5869 0.246094H21.6445C22.0302 0.246094 22.3725 0.473698 22.5244 0.814453L22.5771 0.966797L27.5068 20.499C28.0539 22.6846 30.0458 24.2529 32.375 24.2529H37.5928C39.9221 24.2529 41.9085 22.6845 42.46 20.5L47.4482 0.963867C47.5563 0.543567 47.9359 0.246257 48.376 0.246094C49.0013 0.246094 49.4587 0.831407 49.3086 1.42871L42.0459 30.5049L42.0449 30.5068C41.5527 32.535 39.6954 33.952 37.6553 33.9521H32.3701C30.2663 33.952 28.4771 32.5369 27.9805 30.5059L27.9346 30.3184H27.9287L20.6553 1.42871C20.5052 0.831475 20.9617 0.246245 21.5869 0.246094Z" stroke="#DCDADB" stroke-width="0.491525"/>
</svg>
