<?xml version="1.0" encoding="UTF-8" standalone="no"?>
<!DOCTYPE svg PUBLIC "-//W3C//DTD SVG 1.1//EN" "http://www.w3.org/Graphics/SVG/1.1/DTD/svg11.dtd">
<svg width="100%" height="100%" viewBox="0 0 644 342" version="1.1" xmlns="http://www.w3.org/2000/svg" xmlns:xlink="http://www.w3.org/1999/xlink" xml:space="preserve" xmlns:serif="http://www.serif.com/" style="fill-rule:evenodd;clip-rule:evenodd;stroke-linejoin:round;stroke-miterlimit:2;">
    <g transform="matrix(1,0,0,1,-3133.81,-167.036)">
        <g transform="matrix(1,0,0,1,2160,0)">
            <g transform="matrix(1,0,0,1,1416.62,450.46)">
                <path d="M0,-55.04L-53.835,-55.04C-61.305,-55.04 -67.739,-57.897 -73.14,-63.607C-78.539,-69.318 -81.24,-76.095 -81.24,-83.936C-81.24,-91.949 -78.539,-98.79 -73.14,-104.457C-67.739,-110.127 -61.305,-112.96 -53.835,-112.96L0,-112.96C7.634,-112.96 14.171,-110.127 19.61,-104.457C25.051,-98.79 27.77,-91.949 27.77,-83.936C27.77,-76.351 30.328,-69.872 35.444,-64.502C40.559,-59.132 46.731,-56.447 53.957,-56.447C55.868,-56.447 57.709,-56.268 59.48,-55.91C61.346,-56.308 63.288,-56.513 65.311,-56.513C72.537,-56.513 78.709,-59.198 83.824,-64.568C88.94,-69.938 91.498,-76.5 91.498,-84.258C91.498,-92.1 94.217,-98.853 99.659,-104.523C105.097,-110.191 111.635,-113.026 119.268,-113.026L173.103,-113.026C180.573,-113.026 187.007,-110.191 192.408,-104.523C197.808,-98.853 200.508,-92.1 200.508,-84.258C200.508,-76.245 197.808,-69.404 192.408,-63.737C187.007,-58.067 180.573,-55.234 173.103,-55.234L119.268,-55.234C111.878,-55.234 105.626,-52.549 100.511,-47.179C95.395,-41.809 92.838,-35.331 92.838,-27.745C92.838,-19.987 95.395,-13.425 100.511,-8.055C105.626,-2.685 111.878,0 119.268,0L173.103,0C180.573,0 187.007,2.857 192.408,8.567C197.808,14.278 200.508,21.055 200.508,28.897C200.508,36.909 197.808,43.75 192.408,49.418C187.007,55.087 180.573,57.92 173.103,57.92L119.268,57.92C111.635,57.92 105.097,55.087 99.659,49.418C94.217,43.75 91.498,36.909 91.498,28.897C91.498,21.311 88.94,14.832 83.824,9.462C78.709,4.092 72.537,1.407 65.311,1.407C63.4,1.407 61.559,1.228 59.787,0.87C57.922,1.268 55.98,1.473 53.957,1.473C46.731,1.473 40.559,4.158 35.444,9.528C30.328,14.898 27.77,21.46 27.77,29.218C27.77,37.06 25.051,43.814 19.61,49.483C14.171,55.151 7.634,57.986 0,57.986L-53.835,57.986C-61.305,57.986 -67.739,55.151 -73.14,49.483C-78.539,43.814 -81.24,37.06 -81.24,29.218C-81.24,21.205 -78.539,14.365 -73.14,8.697C-67.739,3.027 -61.305,0.194 -53.835,0.194L0,0.194C7.39,0.194 13.642,-2.491 18.757,-7.861C23.873,-13.231 26.43,-19.709 26.43,-27.295C26.43,-35.053 23.873,-41.615 18.757,-46.985C13.642,-52.355 7.39,-55.04 0,-55.04" style="fill:rgb(254,254,254);fill-rule:nonzero;"/>
            </g>
        </g>
        <g transform="matrix(1,0,0,1,2160,0)">
            <g transform="matrix(1,0,0,1,1204.66,441.838)">
                <path d="M0,-40.786C5.399,-46.498 11.916,-49.353 19.549,-49.353C26.776,-49.353 32.947,-52.037 38.062,-57.408C43.178,-62.778 45.736,-69.257 45.736,-76.842C45.736,-84.856 48.456,-91.696 53.896,-97.363C59.336,-103.034 65.873,-105.866 73.506,-105.866L96.851,-105.866C104.32,-105.866 110.755,-103.034 116.156,-97.363C121.554,-91.696 124.255,-84.856 124.255,-76.842C124.255,-69.001 121.554,-62.224 116.156,-56.513C110.755,-50.803 104.32,-47.947 96.851,-47.947L73.506,-47.947C66.116,-47.947 59.864,-45.262 54.749,-39.891C49.633,-34.521 47.075,-27.958 47.075,-20.202L47.075,36.312C47.075,44.153 44.354,50.908 38.915,56.577C33.474,62.245 27.018,65.08 19.549,65.08C11.916,65.08 5.399,62.245 0,56.577C-5.401,50.908 -8.099,44.153 -8.099,36.312L-8.099,-20.202C-8.099,-28.214 -5.401,-35.077 0,-40.786" style="fill:rgb(254,254,254);fill-rule:nonzero;"/>
            </g>
        </g>
        <g transform="matrix(1,0,0,1,2160,0)">
            <g transform="matrix(1,0,0,1,1209.9,315.966)">
                <path d="M0,-139.189L-38.005,-14.01C-41.238,-0.014 -52.955,9.741 -66.692,9.741L-99.42,9.741C-112.753,9.741 -124.874,-0.014 -128.106,-14.01L-165.731,-139.204C-166.901,-144.147 -163.338,-148.93 -158.486,-148.93C-155.07,-148.93 -152.09,-146.498 -151.25,-143.022L-127.702,-80.176C-124.47,-66.603 -112.753,-56.849 -99.016,-56.849L-66.692,-56.849C-52.955,-56.849 -41.238,-66.603 -38.005,-80.176L-14.849,-143C-14.017,-146.486 -11.032,-148.93 -7.608,-148.93L-7.242,-148.93C-2.383,-148.93 1.181,-144.136 0,-139.189" style="fill:rgb(254,254,254);fill-rule:nonzero;"/>
            </g>
        </g>
        <g transform="matrix(1,0,0,1,2160,0)">
            <g transform="matrix(0.0448217,0.998995,0.998995,-0.0448217,1026.77,260.708)">
                <path d="M33.098,-31.646C52.302,-31.726 67.87,-16.957 67.87,1.34C67.871,19.639 52.303,34.536 33.098,34.616C13.894,34.695 -1.674,19.927 -1.675,1.629C-1.675,-16.669 13.893,-31.566 33.098,-31.646" style="fill:rgb(254,254,254);fill-rule:nonzero;"/>
            </g>
        </g>
        <g transform="matrix(1,0,0,1,2160,0)">
            <g transform="matrix(1,0,0,1,1171.18,441.385)">
                <path d="M0,-39.948L-43.127,-39.948C-46.077,-39.948 -48.73,-38.058 -49.828,-35.174C-50.925,-32.289 -50.246,-28.992 -48.112,-26.846L14.561,49.192C16.694,51.337 17.373,54.633 16.277,57.517C15.181,60.401 12.529,62.292 9.581,62.294L-25.246,62.294C-37.622,62.295 -49.523,57.272 -58.475,48.27L-104.143,-10.668C-104.833,-11.36 -105.749,-11.747 -106.702,-11.747C-108.216,-11.749 -109.578,-10.779 -110.141,-9.299C-110.704,-7.818 -110.354,-6.126 -109.258,-5.027L-68.295,49.198C-66.165,51.343 -65.488,54.638 -66.585,57.52C-67.682,60.403 -70.333,62.292 -73.28,62.294L-111.387,62.294C-123.768,62.295 -135.672,57.268 -144.625,48.259L-195.14,-18.884C-197.27,-21.03 -197.947,-24.325 -196.85,-27.207C-195.754,-30.089 -193.103,-31.979 -190.155,-31.98L-134.624,-31.98C-133.103,-31.984 -131.736,-32.961 -131.17,-34.449C-130.605,-35.938 -130.955,-37.639 -132.055,-38.747C-134.189,-40.892 -134.868,-44.19 -133.771,-47.074C-132.673,-49.958 -130.02,-51.849 -127.07,-51.848L-60.314,-51.848C-47.933,-51.847 -36.028,-56.874 -27.075,-65.883L-24.106,-68.873C-21.976,-71.019 -21.299,-74.314 -22.396,-77.196C-23.493,-80.078 -26.143,-81.968 -29.091,-81.969L-164.35,-81.969C-169.665,-81.969 -173.974,-86.508 -173.974,-92.107C-173.974,-97.705 -169.665,-102.243 -164.35,-102.243L63.157,-102.243C66.105,-102.242 68.755,-100.352 69.852,-97.47C70.949,-94.588 70.272,-91.293 68.142,-89.147L33.234,-54.023C24.288,-45 12.385,-39.959 0,-39.948" style="fill:rgb(254,254,254);fill-rule:nonzero;"/>
            </g>
        </g>
    </g>
</svg>
