<?xml version="1.0" encoding="UTF-8" standalone="no"?>
<!DOCTYPE svg PUBLIC "-//W3C//DTD SVG 1.1//EN" "http://www.w3.org/Graphics/SVG/1.1/DTD/svg11.dtd">
<svg width="100%" height="100%" viewBox="0 0 584 218" version="1.1" xmlns="http://www.w3.org/2000/svg" xmlns:xlink="http://www.w3.org/1999/xlink" xml:space="preserve" xmlns:serif="http://www.serif.com/" style="fill-rule:evenodd;clip-rule:evenodd;stroke-linejoin:round;stroke-miterlimit:2;">
    <g transform="matrix(1,0,0,1,-3129.86,-576.065)">
        <g transform="matrix(1,0,0,1,2160,0)">
            <g transform="matrix(1,0,0,1,1156.51,595.868)">
                <path d="M0,176.705C-6.017,183.303 -15.368,182.558 -22.879,186.018C-27.516,188.149 -31.635,191.348 -36.349,193.36C-41.082,195.411 -46.179,196.558 -51.257,197.242C-62.39,198.75 -73.561,197.081 -84.732,196.959C-95.845,196.84 -106.958,197.221 -118.053,197.724C-127.538,198.166 -137.675,199.132 -146.489,194.646C-151.03,192.333 -154.786,188.693 -159.117,185.997C-163.62,183.222 -168.62,181.512 -173.296,179.079C-180.156,175.498 -186.076,169.684 -186.345,161.157C-186.536,155.504 -184.888,149.952 -184.237,144.36C-183.585,138.768 -183.433,133.076 -183.854,127.464C-184.256,121.952 -185.138,116.362 -183.471,110.99C-182.148,106.705 -179.715,102.241 -175.921,99.907C-171.839,97.413 -166.8,97.574 -162.336,96.247C-157.335,94.758 -152.467,92.586 -147.926,89.911C-145.531,88.502 -143.212,86.954 -141.028,85.203C-139.208,83.736 -137.368,82.166 -135.069,81.582C-130.891,80.497 -126.37,82.709 -123.496,85.827C-120.64,88.924 -118.686,93.792 -120.718,97.916C-122.634,101.798 -127.001,103.125 -130.719,104.151C-137.119,105.941 -145.167,107.43 -148.098,114.55C-150.11,119.458 -149.229,125.191 -149.114,130.341C-149,136.134 -149.535,141.927 -149.401,147.74C-149.287,152.386 -148.654,157.234 -145.895,161.036C-143.116,164.897 -138.767,166.829 -134.322,167.453C-129.263,168.176 -124.109,167.654 -119.031,167.493C-113.339,167.331 -107.629,167.271 -101.939,167.151C-90.576,166.909 -79.213,166.547 -67.851,166.506C-62.428,166.506 -56.891,166.829 -51.564,165.521C-47.041,164.434 -43.094,161.94 -39.473,158.984C-32.306,153.11 -24.201,146.472 -14.562,147.297C-8.489,147.84 -2.491,151.844 0.976,157.174C4.828,163.069 5.614,170.571 0,176.705M-183.355,33.29C-184.275,24.199 -185.329,15.106 -186.363,6.015C-187.169,-0.824 -186.459,-7.804 -181.669,-12.973C-173.717,-21.562 -158.484,-22.427 -150.513,-13.416C-142.216,-4.023 -147.236,9.836 -149.631,20.598C-151.107,27.296 -152.353,35.161 -149.172,41.537C-146.106,47.611 -139.571,49.362 -133.498,48.577C-125.814,47.611 -118.187,46.284 -110.505,45.298C-102.15,44.233 -93.795,43.307 -85.441,42.201C-78.333,41.255 -70.763,40.29 -63.999,43.488C-51.678,49.321 -47.31,68.471 -62.178,74.122C-66.184,75.651 -70.533,75.491 -74.71,75.511C-79.175,75.531 -83.64,75.41 -88.085,75.068C-97.264,74.364 -106.403,73.278 -115.505,71.95C-124.396,70.663 -133.478,68.852 -142.427,70.301C-149.784,71.488 -156.089,75.692 -163.007,78.266C-168.889,80.438 -175.806,80.78 -180.328,75.531C-184.487,70.703 -184.831,63.723 -184.467,57.568C-184.218,53.385 -183.547,49.261 -183.145,45.118C-182.992,43.529 -182.934,41.959 -182.934,40.391C-182.954,38.036 -183.106,35.663 -183.355,33.29" style="fill:rgb(232,230,231);fill-rule:nonzero;"/>
            </g>
        </g>
        <g transform="matrix(1,0,0,1,2160,0)">
            <g transform="matrix(1,0,0,1,1207.59,712.091)">
                <path d="M0,7.905C4.387,10.741 9.619,10.077 14.448,9.192C20.234,8.127 26.021,7.08 31.885,6.577C43.649,5.552 55.453,6.235 67.238,6.336C73.062,6.396 78.906,6.256 84.732,6.436C89.905,6.597 95.347,7.241 100.29,5.23C113.339,-0.101 114.814,-21.382 103.931,-29.81C99.677,-33.129 94.37,-34.195 89.464,-36.006C83.926,-38.036 78.696,-41.134 72.89,-42.281C67.122,-43.407 61.125,-42.241 55.989,-39.344C51.774,-36.971 48.171,-33.29 43.477,-31.902C38.495,-30.434 33.188,-31.842 28.665,-34.155C21.326,-37.896 13.49,-46.183 4.656,-42.965C0.824,-41.577 -1.686,-38.278 -3.335,-34.557C-3.622,-33.913 -3.89,-33.25 -4.12,-32.586C-6.151,-26.894 -7.167,-20.759 -7.492,-14.704C-7.911,-6.802 -7.128,3.297 0,7.905M147.639,55.838C145.914,61.892 140.05,64.567 134.839,66.478C131.39,67.745 127.883,68.732 124.395,69.818C120.908,70.903 117.727,72.432 114.527,74.203C108.032,77.802 101.306,79.935 93.987,80.76C86.265,81.645 78.485,81.303 70.743,81.102C62.829,80.88 54.916,80.92 47.003,81.001C39.108,81.102 31.214,81.383 23.319,81.423C15.789,81.484 7.99,81.544 0.766,79.009C-6.017,76.616 -10.788,70.964 -17.149,67.745C-22.803,64.889 -29.605,63.763 -34.395,59.218C-39.301,54.571 -39.511,47.852 -39.07,41.376C-38.495,33.048 -37.633,24.741 -37.269,16.393C-36.561,-0.04 -40.048,-16.173 -40.086,-32.586C-40.105,-39.365 -38.898,-46.424 -33.609,-50.95C-31.08,-53.142 -27.976,-54.369 -24.967,-55.637C-21.767,-56.985 -18.644,-58.533 -15.578,-60.243C-9.485,-63.642 -4.158,-68.791 2.433,-71.165C9.523,-73.74 16.785,-71.427 23.895,-70.179C39.952,-67.344 56.219,-70.763 72.334,-70.924C80.209,-71.004 88.239,-70.864 95.999,-69.274C102.628,-67.927 107.917,-63.481 113.703,-60.162C120.027,-56.522 127.001,-54.671 133.823,-52.358C136.907,-51.292 139.897,-49.844 141.795,-46.927C147.849,-37.574 143.959,-24.842 143.633,-14.482C143.519,-10.3 143.615,-6.095 143.423,-1.911C143.288,1.387 142.809,4.747 140.893,7.482C137.559,12.229 131.773,13.899 126.772,15.871C119.337,18.787 112.056,22.146 104.659,25.184C97.761,28 90.69,30.373 83.237,30.735C67.218,31.48 50.969,32.102 34.97,30.614C27.496,29.91 20.081,28.463 12.57,28.019C7.261,27.717 0.9,27.899 -2.568,32.867C-5.71,37.413 -5.48,44.131 -2.299,48.576C1.667,54.148 8.872,54.47 14.907,54.571C30.984,54.852 47.06,54.229 63.136,54.449C76.876,54.632 91.534,56.199 104.372,49.884C110.637,46.806 116.022,42.019 122.537,39.465C128.4,37.172 135.452,36.689 141.047,40.008C141.316,40.169 141.583,40.349 141.833,40.531C146.507,43.769 149.305,50.025 147.639,55.838" style="fill:rgb(232,230,231);fill-rule:nonzero;"/>
            </g>
        </g>
        <g transform="matrix(1,0,0,1,2160,0)">
            <g transform="matrix(1,0,0,1,1512.55,685.013)">
                <path d="M0,-1.243C-2.874,-3.275 -6.303,-3.878 -9.638,-4.542C-13.087,-5.206 -16.497,-6.091 -19.793,-7.379C-25.925,-9.772 -31.673,-14.157 -38.399,-14.398C-44.665,-14.619 -49.704,-10.637 -54.648,-7.157C-59.879,-3.497 -65.494,-1.022 -71.701,-3.658C-77.277,-6.011 -81.569,-10.798 -86.916,-13.594C-91.552,-16.007 -97.282,-16.892 -101.881,-13.935C-106.613,-10.898 -108.242,-5.246 -108.645,0.245C-109.162,6.923 -108.741,13.681 -108.683,20.359C-108.587,27.862 -108.606,35.385 -108.568,42.888C-108.53,49.848 -109.181,56.928 -108.262,63.848C-107.591,68.977 -105.272,73.723 -100.827,76.298C-95.864,79.174 -89.808,79.436 -84.291,79.617C-77.91,79.818 -71.491,79.355 -65.282,77.666C-52.982,74.287 -42.27,66.723 -30.907,61.031C-25.12,58.155 -19.199,55.44 -13.01,53.649C-8.066,52.222 -2.587,51.317 1.457,47.756C5.519,44.175 6.055,38.564 6.4,33.374C6.418,33.072 6.439,32.771 6.458,32.469C7.26,21.806 9.905,5.654 0,-1.243M39.031,60.244C39.567,66.561 40.947,73.339 38.801,79.474C37.076,84.382 32.937,87.681 28.434,89.511C23.107,91.684 17.129,92.166 12.415,95.847C10.096,97.658 8.218,99.971 5.823,101.701C3.332,103.491 0.574,104.838 -2.3,105.724C-14.276,109.485 -27.191,106.227 -39.436,106.388C-53.078,106.569 -66.722,107.273 -80.326,108.056C-86.553,108.419 -92.876,108.801 -98.989,107.293C-105.083,105.764 -110.256,102.344 -115.564,99.047C-120.813,95.767 -126.467,93.354 -132.004,90.638C-136.68,88.325 -141.355,85.348 -143.54,80.178C-145.915,74.527 -145.015,68.11 -144.267,62.196C-143.405,55.136 -142.504,48.075 -142.237,40.935C-141.719,27.257 -142.275,13.66 -144.133,0.102C-144.766,-4.545 -145.398,-9.391 -144.516,-14.058C-143.5,-19.409 -140.339,-23.009 -135.874,-25.604C-130.451,-28.742 -124.455,-30.613 -119.051,-33.811C-113.686,-36.989 -108.646,-41.172 -102.86,-43.446C-96.92,-45.779 -90.903,-45.256 -84.791,-44.13C-78.103,-42.882 -71.588,-41.756 -64.786,-41.917C-58.118,-42.057 -51.699,-43.586 -45.088,-44.23C-38.65,-44.853 -33.017,-43.365 -27.498,-39.845C-22.459,-36.647 -18.205,-32.403 -13.433,-28.822C-9.142,-25.604 -3.871,-23.874 0.823,-27.314C5.287,-30.593 6.821,-36.406 6.839,-41.876C6.859,-48.233 5.594,-54.689 4.655,-60.945C3.62,-67.865 2.068,-74.643 0.919,-81.542C-0.097,-87.576 -0.155,-93.892 3.122,-99.202C8.372,-107.671 19.313,-110.728 28.205,-107.571C36.195,-104.714 39.28,-97.191 40.218,-88.884C41.023,-81.864 40.314,-74.301 39.759,-68.508C37.019,-40.006 37.229,-11.363 37.727,17.24C37.995,31.564 37.785,45.964 39.031,60.244" style="fill:rgb(232,230,231);fill-rule:nonzero;"/>
            </g>
        </g>
    </g>
</svg>
