<?xml version="1.0" encoding="UTF-8" standalone="no"?>
<!DOCTYPE svg PUBLIC "-//W3C//DTD SVG 1.1//EN" "http://www.w3.org/Graphics/SVG/1.1/DTD/svg11.dtd">
<svg width="100%" height="100%" viewBox="0 0 652 218" version="1.1" xmlns="http://www.w3.org/2000/svg" xmlns:xlink="http://www.w3.org/1999/xlink" xml:space="preserve" xmlns:serif="http://www.serif.com/" style="fill-rule:evenodd;clip-rule:evenodd;stroke-linecap:round;stroke-linejoin:round;stroke-miterlimit:1.5;">
    <g transform="matrix(1,0,0,1,-2467.69,-576.32)">
        <g transform="matrix(1,0,0,1,2160,0)">
            <g transform="matrix(1,0,0,1,-2160,0)">
                <path d="M3026.85,576.82L3026.85,791.299" style="fill:none;stroke:white;stroke-opacity:0;stroke-width:1px;"/>
            </g>
            <g transform="matrix(1,0,0,1,550.721,664.377)">
                <path d="M0,100.693C-2.165,105.741 -7.319,108.054 -11.784,110.368C-17.245,113.185 -22.745,116.001 -28.014,119.219C-32.958,122.236 -37.863,126.097 -43.401,127.847C-48.88,129.577 -54.763,129.114 -60.396,129.014C-66.375,128.893 -72.353,128.813 -78.351,128.953C-84.233,129.094 -90.307,129.276 -95.903,126.982C-100.903,124.931 -104.889,121.25 -109.144,117.911C-113.435,114.551 -118.455,111.997 -123.916,113.304C-129.109,114.532 -132.673,118.534 -136.773,121.773C-141.085,125.193 -145.856,127.425 -151.221,128.25C-157.219,129.154 -163.331,128.632 -169.368,128.651C-180.902,128.692 -193.453,130.644 -204.165,125.092C-209.07,122.538 -213.342,118.836 -218.268,116.302C-223.23,113.727 -228.595,111.997 -233.309,108.94C-237.812,106.003 -241.49,101.92 -242.583,96.348C-243.714,90.615 -242.41,84.642 -241.721,78.949C-240.169,66.016 -240.226,52.921 -240.514,39.906C-240.667,33.53 -241.184,27.235 -241.931,20.939C-242.622,15.166 -243.446,8.83 -241.49,3.238C-239.709,-1.891 -235.78,-4.627 -231.221,-6.799C-225.816,-9.394 -220.585,-11.807 -215.585,-15.227C-206.981,-21.12 -199.049,-29.951 -187.954,-29.166C-178.699,-28.503 -169.616,-21.805 -169.119,-11.446C-168.85,-6.236 -171.053,-1.388 -175.192,1.528C-178.488,3.861 -182.416,4.606 -186.287,5.189C-193.339,6.255 -201.999,7.02 -204.816,15.185C-206.751,20.859 -206.253,27.214 -206.348,33.128C-206.464,39.665 -206.502,46.223 -206.56,52.78C-206.636,59.056 -206.77,65.331 -206.885,71.627C-206.981,77.42 -207.077,83.615 -204.835,89.027C-200.141,100.411 -187.283,97.796 -177.683,97.796C-171.552,97.817 -165.42,97.817 -159.269,97.978C-154.23,98.118 -148.922,97.978 -144.725,94.659C-140.491,91.279 -137.675,86.251 -133.842,82.429C-130.049,78.648 -125.871,75.509 -121.061,73.358C-119.03,72.452 -116.578,71.406 -115.792,69.033C-114.988,66.599 -116.443,64.346 -118.225,62.938C-121.866,60.102 -126.791,59.378 -130.776,57.145C-138.805,52.639 -145.415,44.593 -142.407,34.496C-139.648,25.263 -130.45,18.485 -121.253,18.746C-112.152,19.007 -105.445,26.329 -102.532,34.898C-100.751,40.189 -99.505,45.659 -95.442,49.622C-91.668,53.303 -86.706,55.375 -82.087,57.568C-77.259,59.86 -72.353,62.093 -67.851,65.05C-63.827,67.665 -58.979,71.245 -56.967,75.932C-54.84,80.86 -57.905,85.748 -62.466,87.518C-67.851,89.61 -72.966,86.05 -77.603,83.536C-84.694,79.672 -99.428,71.024 -104.468,82.388C-106.441,86.834 -105.12,91.843 -102.188,95.443C-98.777,99.606 -93.833,101.598 -88.774,102.403C-77.699,104.173 -66.049,102.665 -54.973,101.598C-47.443,100.874 -38.687,99.304 -35.084,91.34C-32.727,86.13 -32.881,79.955 -32.977,74.323C-33.092,67.725 -33.11,61.147 -33.245,54.57C-33.36,48.234 -33.743,41.938 -33.973,35.602C-34.164,29.929 -33.685,23.976 -35.218,18.464C-37.901,8.789 -47.251,6.577 -55.492,4.586C-60.128,3.459 -65.206,2.293 -68.771,-1.267C-72.277,-4.727 -73.445,-10.098 -72.277,-14.925C-70.074,-24.057 -60.378,-29.81 -51.774,-29.368C-46.505,-29.086 -41.886,-26.29 -37.595,-23.333C-32.497,-19.813 -27.535,-16.092 -22.304,-12.793C-17.245,-9.575 -11.67,-7.383 -6.515,-4.326C3.373,1.568 1.169,14.623 0.038,24.498C-0.709,30.855 -1.188,37.231 -1.379,43.628C-1.744,56.663 -0.613,69.656 0.747,82.589C0.786,82.952 0.824,83.293 0.862,83.655C1.437,89.147 2.223,95.464 0,100.693" style="fill:rgb(186,187,21);fill-rule:nonzero;"/>
            </g>
            <g transform="matrix(1,0,0,1,717.851,681.915)">
                <path d="M0,69.238C-1.15,60.367 -10.788,56.627 -17.724,54.112C-28.972,50.029 -40.335,46.066 -51.199,40.917C-55.893,38.705 -60.454,36.149 -65.264,34.259C-70.034,32.409 -75.036,31.362 -80.114,31.06C-85.421,30.759 -90.787,31.121 -96.075,31.785C-100.444,32.327 -104.928,33.354 -108.377,36.411C-114.585,41.903 -115.371,51.437 -115.122,59.382C-114.892,67.589 -112.554,76.037 -105.062,79.939C-97.091,84.103 -87.72,82.352 -79.194,82.192C-68.483,81.991 -57.714,81.93 -47.022,82.634C-36.425,83.299 -25.753,84.967 -15.157,83.64C-8.852,82.855 -1.15,79.477 -0.038,72.577C0.134,71.551 0.154,70.425 0,69.238M32.172,86.233C28.282,91.825 21.652,93.736 15.885,96.37C9.466,99.307 4.235,104.376 -2.127,107.454C-9.006,110.773 -16.708,111.497 -24.201,111.617C-40.68,111.879 -57.177,110.894 -73.657,111.397C-87.452,111.839 -102.15,113.126 -114.719,105.945C-118.015,104.055 -121.023,101.64 -124.281,99.689C-127.442,97.799 -130.795,96.431 -134.149,95.002C-139.495,92.71 -145.166,89.954 -148.08,84.403C-151.643,77.543 -150.052,68.492 -150.034,61.029C-150.034,56.543 -150.091,52.059 -149.918,47.573C-149.784,43.972 -149.708,40.251 -148.75,36.771C-146.93,30.274 -141.755,26.714 -136.027,24.38C-129.091,21.564 -121.866,19.592 -115.006,16.515C-111.404,14.886 -108.012,12.754 -104.391,11.165C-100.942,9.617 -97.34,9.093 -93.604,9.053C-85.498,8.972 -77.393,9.255 -69.288,9.255C-61.298,9.255 -53.288,9.315 -45.297,9.938C-37.345,10.562 -29.719,12.111 -21.959,13.9C-16.133,15.268 -9.638,15.671 -4.771,11.386C0.02,7.143 1.801,-0.642 -0.671,-6.696C-5.365,-18.241 -21.039,-16.553 -30.735,-16.573C-46.907,-16.593 -63.079,-16.834 -79.251,-16.452C-86.322,-16.291 -93.45,-15.788 -100.348,-13.998C-107.533,-12.127 -113.397,-8.467 -119.662,-4.504C-125.488,-0.863 -132.175,2.475 -139.13,1.651C-145.032,0.967 -151.241,-2.713 -153.387,-8.788C-155.552,-14.883 -152.601,-20.897 -147.561,-24.116C-141.18,-28.219 -133.46,-30.331 -126.504,-33.046C-119.279,-35.862 -112.132,-39 -104.793,-41.414C-97.282,-43.888 -89.867,-43.486 -82.107,-43.264C-65.609,-42.782 -49.129,-43.204 -32.631,-43.345C-28.512,-43.385 -24.392,-43.426 -20.273,-43.486C-16.824,-43.526 -13.279,-43.586 -9.888,-42.681C-3.334,-40.891 1.686,-35.842 7.377,-32.282C13.7,-28.339 21.001,-26.388 27.21,-22.265C39.204,-14.3 34.739,2.697 33.379,14.746C31.501,31.481 32.631,48.438 34.605,65.113C34.912,67.708 35.238,70.423 35.314,73.118C35.47,77.767 34.874,82.373 32.172,86.233" style="fill:rgb(186,187,21);fill-rule:nonzero;"/>
            </g>
            <g transform="matrix(1,0,0,1,955.205,679.965)">
                <path d="M0,73.379C0.058,78.166 0.039,83.516 -2.778,87.559C-5.423,91.381 -9.714,93.232 -13.604,95.263C-18.069,97.576 -22.534,99.869 -26.941,102.303C-31.406,104.798 -35.621,107.754 -40.086,110.208C-48.995,115.096 -59.458,113.548 -69.153,113.487C-80.247,113.447 -91.342,113.286 -102.436,113.466C-113.09,113.649 -123.878,114.372 -134.494,113.366C-139.629,112.884 -144.4,111.495 -148.998,109.042C-153.425,106.668 -157.659,103.933 -162.315,102.082C-167.049,100.212 -171.953,99.307 -176.801,97.939C-181.036,96.772 -185.232,94.84 -187.954,91.1C-192.725,84.603 -191.038,75.591 -185.098,70.603C-178.699,65.233 -168.716,65.594 -161.377,68.531C-156.874,70.341 -153.233,73.7 -149.21,76.376C-145.147,79.051 -140.759,80.983 -136.065,82.108C-125.89,84.542 -115.37,83.677 -105.042,83.557C-94.216,83.436 -83.409,83.817 -72.602,83.918C-67.256,83.96 -61.909,83.878 -56.564,83.778C-52.119,83.698 -47.156,83.658 -43.094,81.485C-36.521,78.005 -34.509,69.315 -36.004,62.255C-36.943,57.85 -39.261,53.566 -43.228,51.514C-47.329,49.381 -52.215,49.684 -56.68,49.563C-67.639,49.281 -78.599,49.18 -89.56,49.402C-100.271,49.624 -110.963,50.187 -121.655,50.005C-131.293,49.865 -140.875,48.317 -149.42,43.428C-153.731,40.954 -157.85,38.157 -162.45,36.288C-167.183,34.377 -172.26,33.23 -176.763,30.715C-180.5,28.624 -183.604,25.485 -185.232,21.322C-186.976,16.856 -187.148,11.848 -187.398,7.081C-187.839,-1.207 -187.455,-10.579 -181.745,-16.996C-175.709,-23.774 -166.282,-25.525 -158.866,-30.09C-154.651,-32.685 -150.665,-35.803 -146.144,-37.834C-141.659,-39.846 -136.889,-40.59 -132.041,-40.771C-121.483,-41.154 -110.829,-40.751 -100.252,-40.731C-89.483,-40.711 -78.695,-40.49 -67.907,-40.61C-58.48,-40.711 -48.612,-41.717 -39.663,-37.875C-34.854,-35.823 -30.428,-32.926 -25.58,-30.955C-20.885,-29.045 -16.019,-27.556 -11.247,-25.847C-4.694,-23.493 3.219,-19.43 3.968,-11.243C4.715,-2.976 -2.567,3.983 -9.638,5.833C-19.123,8.328 -27.745,1.63 -35.391,-3.218C-43.535,-8.387 -52.463,-11.947 -62.045,-12.209C-72.755,-12.511 -83.409,-10.72 -94.121,-10.901C-105.138,-11.082 -116.098,-12.732 -127.116,-12.591C-129.301,-12.551 -131.6,-12.43 -133.88,-12.088C-139.955,-11.183 -145.856,-8.789 -148.903,-2.856C-152.447,4.064 -151.01,13.417 -145.434,18.687C-138.843,24.882 -129.033,23.696 -120.888,23.514C-110.044,23.273 -99.179,23.394 -88.333,23.092C-77.833,22.791 -67.314,22.146 -56.832,22.992C-51.792,23.394 -46.772,24.299 -42.04,26.21C-37.268,28.121 -32.9,30.917 -28.3,33.21C-23.837,35.423 -19.199,37.132 -14.658,39.104C-10.692,40.814 -6.553,42.764 -3.87,46.445C1.533,53.849 -0.134,64.671 0,73.379" style="fill:rgb(186,187,21);fill-rule:nonzero;"/>
            </g>
        </g>
    </g>
</svg>
