<svg width="256" height="307" viewBox="0 0 256 307" fill="none" xmlns="http://www.w3.org/2000/svg">
<g clip-path="url(#clip0_105_384)">
<path d="M218.87 0.939941H218.518C215.255 0.939941 212.416 3.15954 211.624 6.33268L189.573 63.4413C186.493 75.7813 175.336 84.6436 162.251 84.6436H131.465C118.38 84.6436 107.223 75.7813 104.143 63.4413L81.7163 6.30864C80.9165 3.15153 78.0771 0.939941 74.8218 0.939941C70.1988 0.939941 66.8076 5.29099 67.9193 9.77827L103.751 123.579C106.831 136.303 118.372 145.166 131.073 145.166H162.243C175.328 145.166 186.485 136.295 189.565 123.579L225.773 9.79429C226.9 5.29901 223.501 0.939941 218.878 0.939941H218.87Z" fill="#E8E6E7"/>
<path d="M54.1784 147.69C36.7521 147.69 22.6253 133.537 22.6253 116.079C22.6253 98.6201 36.7521 84.4673 54.1784 84.4673C71.6047 84.4673 85.7314 98.6201 85.7314 116.079C85.7314 133.537 71.6047 147.69 54.1784 147.69Z" fill="#E8E6E7"/>
<path d="M220.542 201.209L253.791 169.285C255.822 167.338 256.462 164.341 255.422 161.721C254.374 159.1 251.855 157.385 249.048 157.385H32.3672C27.3043 157.385 23.2012 161.512 23.2012 166.6C23.2012 171.689 27.3043 175.815 32.3672 175.815H161.179C163.986 175.815 166.514 177.538 167.553 180.15C168.601 182.771 167.953 185.767 165.922 187.715L163.09 190.431C154.564 198.62 143.223 203.188 131.433 203.188H67.8554C65.048 203.188 62.5205 204.903 61.4727 207.531C60.425 210.151 61.0728 213.148 63.1044 215.103C64.1522 216.113 64.4881 217.659 63.9442 219.013C63.4083 220.368 62.1046 221.257 60.6569 221.257H7.76456C4.95717 221.257 2.42972 222.972 1.38995 225.592C0.350174 228.212 0.990051 231.209 3.02161 233.156L51.131 294.183C59.6572 302.372 70.9987 306.94 82.7881 306.94H119.084C121.891 306.94 124.419 305.217 125.459 302.597C126.506 299.977 125.859 296.98 123.827 295.033L84.8116 245.745C83.7639 244.743 83.4359 243.205 83.9718 241.858C84.5077 240.512 85.8034 239.631 87.2511 239.631C88.1549 239.631 89.0347 239.983 89.6906 240.608L133.185 294.183C141.711 302.364 153.045 306.932 164.834 306.932H198.003C200.81 306.932 203.338 305.209 204.377 302.589C205.425 299.969 204.777 296.972 202.746 295.025L143.055 225.913C141.023 223.965 140.375 220.961 141.423 218.34C142.471 215.72 144.998 213.997 147.806 213.997H188.885C200.682 213.989 212.016 209.406 220.534 201.201L220.542 201.209Z" fill="#E8E6E7"/>
</g>
<defs>
<clipPath id="clip0_105_384">
<rect width="255" height="306" fill="white" transform="matrix(-1 0 0 1 255.91 0.939941)"/>
</clipPath>
</defs>
</svg>
