<?xml version="1.0" encoding="UTF-8" standalone="no"?>
<!DOCTYPE svg PUBLIC "-//W3C//DTD SVG 1.1//EN" "http://www.w3.org/Graphics/SVG/1.1/DTD/svg11.dtd">
<svg width="100%" height="100%" viewBox="0 0 644 342" version="1.1" xmlns="http://www.w3.org/2000/svg" xmlns:xlink="http://www.w3.org/1999/xlink" xml:space="preserve" xmlns:serif="http://www.serif.com/" style="fill-rule:evenodd;clip-rule:evenodd;stroke-linejoin:round;stroke-miterlimit:2;">
    <g transform="matrix(1,0,0,1,-2468.33,-167.036)">
        <g transform="matrix(1,0,0,1,2160,0)">
            <g transform="matrix(1,0,0,1,508.834,450.46)">
                <path d="M0,-55.04L53.835,-55.04C61.305,-55.04 67.739,-57.897 73.14,-63.607C78.539,-69.318 81.24,-76.095 81.24,-83.936C81.24,-91.949 78.539,-98.79 73.14,-104.457C67.739,-110.127 61.305,-112.96 53.835,-112.96L0,-112.96C-7.634,-112.96 -14.171,-110.127 -19.61,-104.457C-25.051,-98.79 -27.771,-91.949 -27.771,-83.936C-27.771,-76.351 -30.328,-69.872 -35.444,-64.502C-40.559,-59.132 -46.731,-56.447 -53.957,-56.447C-55.868,-56.447 -57.71,-56.268 -59.481,-55.91C-61.346,-56.308 -63.288,-56.513 -65.311,-56.513C-72.537,-56.513 -78.709,-59.198 -83.824,-64.568C-88.94,-69.938 -91.498,-76.5 -91.498,-84.258C-91.498,-92.1 -94.217,-98.853 -99.659,-104.523C-105.098,-110.191 -111.635,-113.026 -119.268,-113.026L-173.103,-113.026C-180.573,-113.026 -187.007,-110.191 -192.408,-104.523C-197.808,-98.853 -200.508,-92.1 -200.508,-84.258C-200.508,-76.245 -197.808,-69.404 -192.408,-63.737C-187.007,-58.067 -180.573,-55.234 -173.103,-55.234L-119.268,-55.234C-111.878,-55.234 -105.627,-52.549 -100.511,-47.179C-95.396,-41.809 -92.838,-35.331 -92.838,-27.745C-92.838,-19.987 -95.396,-13.425 -100.511,-8.055C-105.627,-2.685 -111.878,0 -119.268,0L-173.103,0C-180.573,0 -187.007,2.857 -192.408,8.567C-197.808,14.278 -200.508,21.055 -200.508,28.897C-200.508,36.909 -197.808,43.75 -192.408,49.418C-187.007,55.087 -180.573,57.92 -173.103,57.92L-119.268,57.92C-111.635,57.92 -105.098,55.087 -99.659,49.418C-94.217,43.75 -91.498,36.909 -91.498,28.897C-91.498,21.311 -88.94,14.832 -83.824,9.462C-78.709,4.092 -72.537,1.407 -65.311,1.407C-63.4,1.407 -61.559,1.228 -59.788,0.87C-57.922,1.268 -55.98,1.473 -53.957,1.473C-46.731,1.473 -40.559,4.158 -35.444,9.528C-30.328,14.898 -27.771,21.46 -27.771,29.218C-27.771,37.06 -25.051,43.814 -19.61,49.483C-14.171,55.151 -7.634,57.986 0,57.986L53.835,57.986C61.305,57.986 67.739,55.151 73.14,49.483C78.539,43.814 81.24,37.06 81.24,29.218C81.24,21.205 78.539,14.365 73.14,8.697C67.739,3.027 61.305,0.194 53.835,0.194L0,0.194C-7.39,0.194 -13.642,-2.491 -18.757,-7.861C-23.873,-13.231 -26.431,-19.709 -26.431,-27.295C-26.431,-35.053 -23.873,-41.615 -18.757,-46.985C-13.642,-52.355 -7.39,-55.04 0,-55.04" style="fill:currentColor;fill-rule:nonzero;"/>
            </g>
        </g>
        <g transform="matrix(1,0,0,1,2160,0)">
            <g transform="matrix(1,0,0,1,720.796,441.838)">
                <path d="M0,-40.786C-5.399,-46.498 -11.916,-49.353 -19.549,-49.353C-26.776,-49.353 -32.947,-52.037 -38.062,-57.408C-43.178,-62.778 -45.736,-69.257 -45.736,-76.842C-45.736,-84.856 -48.456,-91.696 -53.896,-97.363C-59.336,-103.034 -65.873,-105.866 -73.506,-105.866L-96.851,-105.866C-104.32,-105.866 -110.755,-103.034 -116.156,-97.363C-121.554,-91.696 -124.255,-84.856 -124.255,-76.842C-124.255,-69.001 -121.554,-62.224 -116.156,-56.513C-110.755,-50.803 -104.32,-47.947 -96.851,-47.947L-73.506,-47.947C-66.116,-47.947 -59.864,-45.262 -54.749,-39.891C-49.633,-34.521 -47.075,-27.958 -47.075,-20.202L-47.075,36.312C-47.075,44.153 -44.354,50.908 -38.915,56.577C-33.474,62.245 -27.018,65.08 -19.549,65.08C-11.916,65.08 -5.399,62.245 0,56.577C5.401,50.908 8.1,44.153 8.1,36.312L8.1,-20.202C8.1,-28.214 5.401,-35.077 0,-40.786" style="fill:currentColor;fill-rule:nonzero;"/>
            </g>
        </g>
        <g transform="matrix(1,0,0,1,2160,0)">
            <g transform="matrix(1,0,0,1,722.798,325.707)">
                <path d="M0,-158.671L0.367,-158.671C3.79,-158.671 6.775,-156.227 7.608,-152.741L30.764,-89.917C33.996,-76.344 45.713,-66.59 59.45,-66.59L91.774,-66.59C105.511,-66.59 117.228,-76.344 120.461,-89.917L144.008,-152.763C144.849,-156.238 147.829,-158.671 151.244,-158.671C156.096,-158.671 159.659,-153.888 158.489,-148.945L120.865,-23.751C117.632,-9.755 105.511,0 92.178,0L59.45,0C45.713,0 33.996,-9.755 30.764,-23.751L-7.242,-148.93C-8.422,-153.877 -4.858,-158.671 0,-158.671" style="fill:currentColor;fill-rule:nonzero;"/>
            </g>
        </g>
        <g transform="matrix(1,0,0,1,2160,0)">
            <g transform="matrix(0.0448217,-0.998995,-0.998995,-0.0448217,898.688,260.708)">
                <path d="M-33.098,-31.646C-52.302,-31.726 -67.87,-16.957 -67.87,1.34C-67.871,19.639 -52.303,34.536 -33.098,34.616C-13.894,34.695 1.674,19.927 1.675,1.629C1.675,-16.669 -13.893,-31.566 -33.098,-31.646" style="fill:currentColor;fill-rule:nonzero;"/>
            </g>
        </g>
        <g transform="matrix(1,0,0,1,2160,0)">
            <g transform="matrix(1,0,0,1,721.048,455.459)">
                <path d="M0,-68.097L-34.908,-103.221C-37.039,-105.367 -37.716,-108.662 -36.619,-111.544C-35.522,-114.426 -32.871,-116.316 -29.923,-116.317L197.584,-116.317C202.898,-116.317 207.207,-111.779 207.207,-106.181C207.207,-100.582 202.898,-96.044 197.584,-96.044L62.325,-96.044C59.377,-96.042 56.727,-94.153 55.629,-91.27C54.533,-88.389 55.209,-85.093 57.34,-82.947L60.309,-79.957C69.261,-70.949 81.166,-65.922 93.547,-65.923L160.304,-65.923C163.254,-65.923 165.907,-64.033 167.005,-61.148C168.102,-58.264 167.422,-54.966 165.288,-52.821C164.189,-51.713 163.839,-50.012 164.404,-48.524C164.969,-47.035 166.336,-46.058 167.858,-46.055L223.389,-46.055C226.336,-46.053 228.987,-44.163 230.084,-41.282C231.181,-38.399 230.504,-35.104 228.373,-32.958L177.858,34.185C168.906,43.194 157.001,48.22 144.62,48.22L106.513,48.22C103.566,48.218 100.916,46.328 99.818,43.446C98.722,40.564 99.399,37.269 101.529,35.123L142.491,-19.101C143.588,-20.2 143.938,-21.892 143.375,-23.373C142.812,-24.853 141.45,-25.823 139.936,-25.822C138.983,-25.822 138.066,-25.434 137.376,-24.742L91.708,34.195C82.757,43.198 70.856,48.22 58.48,48.22L23.653,48.22C20.704,48.218 18.053,46.327 16.957,43.443C15.86,40.559 16.54,37.263 18.673,35.118L81.346,-40.92C83.479,-43.066 84.159,-46.364 83.061,-49.248C81.964,-52.132 79.31,-54.023 76.361,-54.022L33.234,-54.022C20.849,-54.034 8.946,-59.075 0,-68.097" style="fill:currentColor;fill-rule:nonzero;"/>
            </g>
        </g>
    </g>
</svg>
